<svg xmlns="http://www.w3.org/2000/svg" xmlns:xlink="http://www.w3.org/1999/xlink" width="500" zoomAndPan="magnify" viewBox="0 0 375 374.999991" height="500" preserveAspectRatio="xMidYMid meet" version="1.0"><defs><clipPath id="af0d8300df"><path d="M 1.003906 68.847656 L 237.148438 68.847656 L 237.148438 304.992188 L 1.003906 304.992188 Z M 1.003906 68.847656 " clip-rule="nonzero"/></clipPath><clipPath id="bfbe1a7921"><path d="M 30.371094 98.214844 L 207.78125 98.214844 L 207.78125 275.625 L 30.371094 275.625 Z M 30.371094 98.214844 " clip-rule="nonzero"/></clipPath><clipPath id="fe19e8915a"><path d="M 16.828125 84.675781 L 221.320312 84.675781 L 221.320312 289.167969 L 16.828125 289.167969 Z M 16.828125 84.675781 " clip-rule="nonzero"/></clipPath><clipPath id="e370f37b93"><path d="M 126.566406 167.863281 L 169.511719 167.863281 L 169.511719 304.996094 L 126.566406 304.996094 Z M 126.566406 167.863281 " clip-rule="nonzero"/></clipPath><clipPath id="f910439988"><path d="M 86.933594 167.863281 L 169.515625 167.863281 L 169.515625 204.9375 L 86.933594 204.9375 Z M 86.933594 167.863281 " clip-rule="nonzero"/></clipPath><clipPath id="07770ab8df"><path d="M 111.761719 68.847656 L 169.507812 68.847656 L 169.507812 110.253906 L 111.761719 110.253906 Z M 111.761719 68.847656 " clip-rule="nonzero"/></clipPath><clipPath id="54c0f7ae85"><path d="M 266.261719 105.011719 L 333.761719 105.011719 L 333.761719 172.382812 L 266.261719 172.382812 Z M 266.261719 105.011719 " clip-rule="nonzero"/></clipPath><clipPath id="29ea4d480e"><path d="M 266.40625 200.21875 L 333.15625 200.21875 L 333.15625 266.628906 L 266.40625 266.628906 Z M 266.40625 200.21875 " clip-rule="nonzero"/></clipPath><clipPath id="d69eeac098"><path d="M 255.308594 69.113281 L 372.308594 69.113281 L 372.308594 185.914062 L 255.308594 185.914062 Z M 255.308594 69.113281 " clip-rule="nonzero"/></clipPath><clipPath id="822b1b28b2"><path d="M 244.488281 175.011719 L 374.988281 175.011719 L 374.988281 305.253906 L 244.488281 305.253906 Z M 244.488281 175.011719 " clip-rule="nonzero"/></clipPath><clipPath id="d5f73c4889"><path d="M 206.207031 69.113281 L 317.160156 69.113281 L 317.160156 110.484375 L 206.207031 110.484375 Z M 206.207031 69.113281 " clip-rule="nonzero"/></clipPath><clipPath id="89afaa6c2d"><path d="M 206.207031 260.964844 L 316.761719 260.964844 L 316.761719 305.261719 L 206.207031 305.261719 Z M 206.207031 260.964844 " clip-rule="nonzero"/></clipPath><clipPath id="ac7bba6d72"><path d="M 286.734375 166.65625 L 336.554688 166.65625 L 336.554688 204.769531 L 286.734375 204.769531 Z M 286.734375 166.65625 " clip-rule="nonzero"/></clipPath><clipPath id="1053e31a66"><path d="M 304.480469 73.613281 L 344.902344 73.613281 L 344.902344 114.035156 L 304.480469 114.035156 Z M 304.480469 73.613281 " clip-rule="nonzero"/></clipPath><clipPath id="48ea19cb21"><path d="M 324.691406 73.613281 C 313.53125 73.613281 304.480469 82.664062 304.480469 93.824219 C 304.480469 104.984375 313.53125 114.035156 324.691406 114.035156 C 335.851562 114.035156 344.902344 104.984375 344.902344 93.824219 C 344.902344 82.664062 335.851562 73.613281 324.691406 73.613281 Z M 324.691406 73.613281 " clip-rule="nonzero"/></clipPath><clipPath id="003e80463c"><path d="M 317.160156 84.5625 L 360.113281 84.5625 L 360.113281 127.519531 L 317.160156 127.519531 Z M 317.160156 84.5625 " clip-rule="nonzero"/></clipPath><clipPath id="52902d1b49"><path d="M 338.636719 84.5625 C 326.773438 84.5625 317.160156 94.179688 317.160156 106.039062 C 317.160156 117.902344 326.773438 127.519531 338.636719 127.519531 C 350.5 127.519531 360.113281 117.902344 360.113281 106.039062 C 360.113281 94.179688 350.5 84.5625 338.636719 84.5625 Z M 338.636719 84.5625 " clip-rule="nonzero"/></clipPath><clipPath id="2cde7ceffd"><path d="M 329.242188 103.144531 L 369.660156 103.144531 L 369.660156 143.566406 L 329.242188 143.566406 Z M 329.242188 103.144531 " clip-rule="nonzero"/></clipPath><clipPath id="188165ac51"><path d="M 349.449219 103.144531 C 338.289062 103.144531 329.242188 112.195312 329.242188 123.355469 C 329.242188 134.519531 338.289062 143.566406 349.449219 143.566406 C 360.613281 143.566406 369.660156 134.519531 369.660156 123.355469 C 369.660156 112.195312 360.613281 103.144531 349.449219 103.144531 Z M 349.449219 103.144531 " clip-rule="nonzero"/></clipPath><clipPath id="d230c0bd9d"><path d="M 329.242188 127.519531 L 365.5 127.519531 L 365.5 163.777344 L 329.242188 163.777344 Z M 329.242188 127.519531 " clip-rule="nonzero"/></clipPath><clipPath id="b4de94139b"><path d="M 347.371094 127.519531 C 337.359375 127.519531 329.242188 135.632812 329.242188 145.648438 C 329.242188 155.660156 337.359375 163.777344 347.371094 163.777344 C 357.382812 163.777344 365.5 155.660156 365.5 145.648438 C 365.5 135.632812 357.382812 127.519531 347.371094 127.519531 Z M 347.371094 127.519531 " clip-rule="nonzero"/></clipPath><clipPath id="32c18db81d"><path d="M 326.804688 148.351562 L 349.449219 148.351562 L 349.449219 170.996094 L 326.804688 170.996094 Z M 326.804688 148.351562 " clip-rule="nonzero"/></clipPath><clipPath id="d77d470379"><path d="M 338.128906 148.351562 C 331.875 148.351562 326.804688 153.421875 326.804688 159.675781 C 326.804688 165.925781 331.875 170.996094 338.128906 170.996094 C 344.382812 170.996094 349.449219 165.925781 349.449219 159.675781 C 349.449219 153.421875 344.382812 148.351562 338.128906 148.351562 Z M 338.128906 148.351562 " clip-rule="nonzero"/></clipPath><clipPath id="1f066b66c8"><path d="M 315.484375 159.675781 L 338.128906 159.675781 L 338.128906 182.316406 L 315.484375 182.316406 Z M 315.484375 159.675781 " clip-rule="nonzero"/></clipPath><clipPath id="acdceafb3b"><path d="M 326.804688 159.675781 C 320.554688 159.675781 315.484375 164.742188 315.484375 170.996094 C 315.484375 177.25 320.554688 182.316406 326.804688 182.316406 C 333.058594 182.316406 338.128906 177.25 338.128906 170.996094 C 338.128906 164.742188 333.058594 159.675781 326.804688 159.675781 Z M 326.804688 159.675781 " clip-rule="nonzero"/></clipPath><clipPath id="bb4b48a3d6"><path d="M 322.949219 152.367188 L 349.449219 152.367188 L 349.449219 178.867188 L 322.949219 178.867188 Z M 322.949219 152.367188 " clip-rule="nonzero"/></clipPath><clipPath id="21a09cb7d3"><path d="M 336.199219 152.367188 C 328.882812 152.367188 322.949219 158.300781 322.949219 165.617188 C 322.949219 172.9375 328.882812 178.867188 336.199219 178.867188 C 343.519531 178.867188 349.449219 172.9375 349.449219 165.617188 C 349.449219 158.300781 343.519531 152.367188 336.199219 152.367188 Z M 336.199219 152.367188 " clip-rule="nonzero"/></clipPath><clipPath id="a9f674511d"><path d="M 302.738281 260.292969 L 343.160156 260.292969 L 343.160156 300.714844 L 302.738281 300.714844 Z M 302.738281 260.292969 " clip-rule="nonzero"/></clipPath><clipPath id="28909bf3b9"><path d="M 322.949219 260.292969 C 311.789062 260.292969 302.738281 269.34375 302.738281 280.503906 C 302.738281 291.664062 311.789062 300.714844 322.949219 300.714844 C 334.109375 300.714844 343.160156 291.664062 343.160156 280.503906 C 343.160156 269.34375 334.109375 260.292969 322.949219 260.292969 Z M 322.949219 260.292969 " clip-rule="nonzero"/></clipPath><clipPath id="59db73deb9"><path d="M 316.34375 249.109375 L 356.765625 249.109375 L 356.765625 289.527344 L 316.34375 289.527344 Z M 316.34375 249.109375 " clip-rule="nonzero"/></clipPath><clipPath id="5a4c4a659e"><path d="M 336.554688 249.109375 C 325.394531 249.109375 316.34375 258.15625 316.34375 269.316406 C 316.34375 280.480469 325.394531 289.527344 336.554688 289.527344 C 347.71875 289.527344 356.765625 280.480469 356.765625 269.316406 C 356.765625 258.15625 347.71875 249.109375 336.554688 249.109375 Z M 336.554688 249.109375 " clip-rule="nonzero"/></clipPath><clipPath id="5cfc3600dd"><path d="M 324.691406 235.164062 L 365.113281 235.164062 L 365.113281 275.582031 L 324.691406 275.582031 Z M 324.691406 235.164062 " clip-rule="nonzero"/></clipPath><clipPath id="c126acf671"><path d="M 344.902344 235.164062 C 333.738281 235.164062 324.691406 244.210938 324.691406 255.371094 C 324.691406 266.535156 333.738281 275.582031 344.902344 275.582031 C 356.0625 275.582031 365.113281 266.535156 365.113281 255.371094 C 365.113281 244.210938 356.0625 235.164062 344.902344 235.164062 Z M 344.902344 235.164062 " clip-rule="nonzero"/></clipPath><clipPath id="8c7e194e48"><path d="M 329.242188 219.875 L 369.660156 219.875 L 369.660156 260.292969 L 329.242188 260.292969 Z M 329.242188 219.875 " clip-rule="nonzero"/></clipPath><clipPath id="83a9036211"><path d="M 349.449219 219.875 C 338.289062 219.875 329.242188 228.921875 329.242188 240.085938 C 329.242188 251.246094 338.289062 260.292969 349.449219 260.292969 C 360.613281 260.292969 369.660156 251.246094 369.660156 240.085938 C 369.660156 228.921875 360.613281 219.875 349.449219 219.875 Z M 349.449219 219.875 " clip-rule="nonzero"/></clipPath><clipPath id="6fc893f9dc"><path d="M 327.160156 199.34375 L 367.578125 199.34375 L 367.578125 239.765625 L 327.160156 239.765625 Z M 327.160156 199.34375 " clip-rule="nonzero"/></clipPath><clipPath id="b2f83ef99a"><path d="M 347.371094 199.34375 C 336.207031 199.34375 327.160156 208.394531 327.160156 219.554688 C 327.160156 230.714844 336.207031 239.765625 347.371094 239.765625 C 358.53125 239.765625 367.578125 230.714844 367.578125 219.554688 C 367.578125 208.394531 358.53125 199.34375 347.371094 199.34375 Z M 347.371094 199.34375 " clip-rule="nonzero"/></clipPath><clipPath id="8a9e4dac59"><path d="M 321.453125 189.667969 L 351.660156 189.667969 L 351.660156 219.875 L 321.453125 219.875 Z M 321.453125 189.667969 " clip-rule="nonzero"/></clipPath><clipPath id="4301c2eaee"><path d="M 336.554688 189.667969 C 328.214844 189.667969 321.453125 196.429688 321.453125 204.769531 C 321.453125 213.113281 328.214844 219.875 336.554688 219.875 C 344.898438 219.875 351.660156 213.113281 351.660156 204.769531 C 351.660156 196.429688 344.898438 189.667969 336.554688 189.667969 Z M 336.554688 189.667969 " clip-rule="nonzero"/></clipPath><clipPath id="793699c8dd"><path d="M 312.65625 185.394531 L 336.726562 185.394531 L 336.726562 209.460938 L 312.65625 209.460938 Z M 312.65625 185.394531 " clip-rule="nonzero"/></clipPath><clipPath id="6c051c2681"><path d="M 324.691406 185.394531 C 318.046875 185.394531 312.65625 190.78125 312.65625 197.425781 C 312.65625 204.074219 318.046875 209.460938 324.691406 209.460938 C 331.335938 209.460938 336.726562 204.074219 336.726562 197.425781 C 336.726562 190.78125 331.335938 185.394531 324.691406 185.394531 Z M 324.691406 185.394531 " clip-rule="nonzero"/></clipPath><clipPath id="785c7abc7e"><path d="M 206.203125 69.113281 L 247.222656 69.113281 L 247.222656 305.265625 L 206.203125 305.265625 Z M 206.203125 69.113281 " clip-rule="nonzero"/></clipPath><clipPath id="780061c292"><path d="M 237.152344 166.867188 L 296.339844 166.867188 L 296.339844 204.769531 L 237.152344 204.769531 Z M 237.152344 166.867188 " clip-rule="nonzero"/></clipPath><clipPath id="22cb5283c1"><path d="M 164.816406 68.40625 L 208.652344 68.40625 L 208.652344 305 L 164.816406 305 Z M 164.816406 68.40625 " clip-rule="nonzero"/></clipPath></defs><g clip-path="url(#af0d8300df)"><path fill="#f08700" d="M 1.003906 186.921875 C 1.003906 188.851562 1.054688 190.785156 1.152344 192.714844 C 1.25 194.640625 1.390625 196.566406 1.582031 198.492188 C 1.773438 200.414062 2.011719 202.328125 2.296875 204.238281 C 2.582031 206.148438 2.914062 208.054688 3.292969 209.945312 C 3.671875 211.839844 4.097656 213.726562 4.566406 215.597656 C 5.039062 217.472656 5.554688 219.332031 6.117188 221.179688 C 6.679688 223.03125 7.285156 224.863281 7.9375 226.679688 C 8.589844 228.5 9.285156 230.300781 10.027344 232.085938 C 10.765625 233.871094 11.550781 235.636719 12.375 237.378906 C 13.203125 239.125 14.070312 240.851562 14.984375 242.554688 C 15.894531 244.257812 16.847656 245.9375 17.839844 247.59375 C 18.835938 249.25 19.867188 250.882812 20.941406 252.488281 C 22.015625 254.09375 23.128906 255.671875 24.277344 257.222656 C 25.429688 258.777344 26.617188 260.296875 27.84375 261.789062 C 29.070312 263.285156 30.332031 264.746094 31.628906 266.175781 C 32.925781 267.609375 34.257812 269.007812 35.625 270.375 C 36.988281 271.738281 38.386719 273.070312 39.820312 274.367188 C 41.25 275.664062 42.714844 276.925781 44.207031 278.152344 C 45.699219 279.378906 47.222656 280.566406 48.773438 281.71875 C 50.324219 282.867188 51.902344 283.980469 53.507812 285.054688 C 55.113281 286.128906 56.746094 287.164062 58.402344 288.15625 C 60.058594 289.148438 61.738281 290.101562 63.441406 291.011719 C 65.144531 291.925781 66.871094 292.792969 68.617188 293.621094 C 70.363281 294.449219 72.128906 295.230469 73.910156 295.972656 C 75.695312 296.710938 77.496094 297.40625 79.316406 298.058594 C 81.132812 298.710938 82.96875 299.316406 84.816406 299.878906 C 86.664062 300.441406 88.523438 300.957031 90.398438 301.429688 C 92.273438 301.902344 94.15625 302.324219 96.050781 302.703125 C 97.945312 303.082031 99.847656 303.414062 101.757812 303.699219 C 103.667969 303.984375 105.585938 304.222656 107.507812 304.414062 C 109.429688 304.605469 111.355469 304.75 113.285156 304.84375 C 115.214844 304.941406 117.144531 304.992188 119.074219 304.992188 L 237.148438 304.992188 L 237.148438 288.464844 L 119.074219 288.464844 C 117.414062 288.464844 115.75 288.421875 114.089844 288.339844 C 112.429688 288.257812 110.773438 288.136719 109.117188 287.972656 C 107.460938 287.8125 105.8125 287.609375 104.167969 287.363281 C 102.523438 287.121094 100.886719 286.835938 99.253906 286.511719 C 97.625 286.1875 96 285.824219 94.386719 285.417969 C 92.777344 285.015625 91.171875 284.570312 89.582031 284.089844 C 87.992188 283.605469 86.414062 283.085938 84.847656 282.523438 C 83.28125 281.964844 81.730469 281.367188 80.195312 280.730469 C 78.660156 280.09375 77.136719 279.417969 75.636719 278.707031 C 74.132812 277.996094 72.648438 277.25 71.179688 276.464844 C 69.714844 275.683594 68.269531 274.863281 66.84375 274.007812 C 65.414062 273.152344 64.011719 272.265625 62.628906 271.339844 C 61.246094 270.417969 59.886719 269.460938 58.550781 268.46875 C 57.214844 267.480469 55.90625 266.457031 54.621094 265.402344 C 53.335938 264.347656 52.078125 263.261719 50.84375 262.144531 C 49.613281 261.027344 48.410156 259.882812 47.234375 258.707031 C 46.058594 257.53125 44.910156 256.324219 43.792969 255.09375 C 42.675781 253.863281 41.589844 252.601562 40.535156 251.316406 C 39.480469 250.03125 38.460938 248.722656 37.46875 247.386719 C 36.476562 246.050781 35.519531 244.691406 34.597656 243.308594 C 33.671875 241.925781 32.785156 240.523438 31.929688 239.097656 C 31.074219 237.667969 30.253906 236.222656 29.472656 234.757812 C 28.6875 233.289062 27.941406 231.804688 27.230469 230.300781 C 26.519531 228.800781 25.84375 227.28125 25.207031 225.742188 C 24.570312 224.207031 23.972656 222.65625 23.414062 221.089844 C 22.851562 219.523438 22.332031 217.945312 21.847656 216.355469 C 21.367188 214.765625 20.921875 213.164062 20.519531 211.550781 C 20.117188 209.9375 19.75 208.316406 19.425781 206.683594 C 19.101562 205.054688 18.816406 203.414062 18.574219 201.769531 C 18.332031 200.125 18.125 198.476562 17.964844 196.820312 C 17.800781 195.167969 17.679688 193.507812 17.597656 191.847656 C 17.515625 190.1875 17.472656 188.523438 17.472656 186.863281 C 17.472656 185.199219 17.515625 183.539062 17.597656 181.878906 C 17.679688 180.214844 17.800781 178.558594 17.964844 176.902344 C 18.125 175.25 18.332031 173.597656 18.574219 171.953125 C 18.816406 170.308594 19.101562 168.671875 19.425781 167.039062 C 19.75 165.410156 20.117188 163.789062 20.519531 162.175781 C 20.921875 160.5625 21.367188 158.960938 21.847656 157.367188 C 22.332031 155.777344 22.851562 154.199219 23.414062 152.632812 C 23.972656 151.070312 24.570312 149.515625 25.207031 147.980469 C 25.84375 146.445312 26.519531 144.925781 27.230469 143.421875 C 27.941406 141.917969 28.6875 140.433594 29.472656 138.96875 C 30.253906 137.5 31.074219 136.054688 31.929688 134.628906 C 32.785156 133.203125 33.671875 131.796875 34.597656 130.414062 C 35.519531 129.03125 36.476562 127.675781 37.46875 126.339844 C 38.460938 125.003906 39.480469 123.691406 40.535156 122.40625 C 41.589844 121.121094 42.675781 119.863281 43.792969 118.632812 C 44.910156 117.398438 46.058594 116.195312 47.234375 115.019531 C 48.410156 113.84375 49.613281 112.699219 50.84375 111.582031 C 52.078125 110.464844 53.335938 109.378906 54.621094 108.324219 C 55.90625 107.269531 57.214844 106.246094 58.550781 105.253906 C 59.886719 104.265625 61.246094 103.308594 62.628906 102.382812 C 64.011719 101.460938 65.414062 100.570312 66.84375 99.714844 C 68.269531 98.859375 69.714844 98.042969 71.179688 97.257812 C 72.648438 96.472656 74.132812 95.726562 75.636719 95.015625 C 77.136719 94.304688 78.660156 93.632812 80.195312 92.996094 C 81.730469 92.359375 83.28125 91.761719 84.847656 91.199219 C 86.414062 90.640625 87.992188 90.117188 89.582031 89.636719 C 91.171875 89.152344 92.777344 88.710938 94.386719 88.304688 C 96 87.902344 97.625 87.539062 99.253906 87.214844 C 100.886719 86.890625 102.523438 86.605469 104.167969 86.359375 C 105.8125 86.117188 107.460938 85.914062 109.117188 85.75 C 110.773438 85.585938 112.429688 85.464844 114.089844 85.382812 C 115.75 85.300781 117.414062 85.261719 119.074219 85.261719 L 237.148438 85.261719 L 237.148438 68.847656 L 119.074219 68.847656 C 117.144531 68.851562 115.214844 68.902344 113.285156 68.996094 C 111.355469 69.09375 109.429688 69.238281 107.507812 69.429688 C 105.585938 69.621094 103.667969 69.859375 101.757812 70.144531 C 99.847656 70.429688 97.945312 70.761719 96.050781 71.140625 C 94.15625 71.519531 92.273438 71.941406 90.398438 72.414062 C 88.523438 72.882812 86.664062 73.398438 84.816406 73.960938 C 82.96875 74.523438 81.132812 75.132812 79.316406 75.785156 C 77.496094 76.433594 75.695312 77.132812 73.910156 77.871094 C 72.128906 78.613281 70.363281 79.394531 68.617188 80.222656 C 66.871094 81.046875 65.144531 81.917969 63.441406 82.828125 C 61.738281 83.742188 60.058594 84.691406 58.402344 85.6875 C 56.746094 86.679688 55.113281 87.714844 53.507812 88.789062 C 51.902344 89.863281 50.324219 90.972656 48.773438 92.125 C 47.222656 93.277344 45.699219 94.464844 44.207031 95.691406 C 42.714844 96.914062 41.25 98.175781 39.820312 99.476562 C 38.386719 100.773438 36.988281 102.105469 35.625 103.46875 C 34.257812 104.835938 32.925781 106.234375 31.628906 107.664062 C 30.332031 109.097656 29.070312 110.558594 27.84375 112.050781 C 26.617188 113.546875 25.429688 115.066406 24.277344 116.617188 C 23.128906 118.171875 22.015625 119.75 20.941406 121.355469 C 19.867188 122.960938 18.835938 124.589844 17.839844 126.25 C 16.847656 127.90625 15.894531 129.585938 14.984375 131.289062 C 14.070312 132.992188 13.203125 134.714844 12.375 136.460938 C 11.550781 138.207031 10.765625 139.972656 10.027344 141.757812 C 9.285156 143.542969 8.589844 145.34375 7.9375 147.160156 C 7.285156 148.980469 6.679688 150.8125 6.117188 152.660156 C 5.554688 154.507812 5.039062 156.371094 4.566406 158.242188 C 4.097656 160.117188 3.671875 162 3.292969 163.894531 C 2.914062 165.789062 2.582031 167.691406 2.296875 169.601562 C 2.011719 171.511719 1.773438 173.429688 1.582031 175.351562 C 1.390625 177.273438 1.25 179.199219 1.152344 181.128906 C 1.054688 183.058594 1.003906 184.988281 1.003906 186.921875 Z M 1.003906 186.921875 " fill-opacity="1" fill-rule="nonzero"/></g><g clip-path="url(#bfbe1a7921)"><path fill="#f08700" d="M 30.371094 186.921875 C 30.371094 188.371094 30.40625 189.820312 30.480469 191.269531 C 30.554688 192.71875 30.660156 194.167969 30.804688 195.613281 C 30.949219 197.054688 31.128906 198.496094 31.34375 199.929688 C 31.554688 201.367188 31.804688 202.796875 32.089844 204.21875 C 32.375 205.640625 32.691406 207.058594 33.046875 208.464844 C 33.402344 209.871094 33.789062 211.269531 34.210938 212.660156 C 34.632812 214.046875 35.089844 215.425781 35.578125 216.789062 C 36.070312 218.15625 36.589844 219.511719 37.148438 220.851562 C 37.703125 222.191406 38.292969 223.515625 38.914062 224.828125 C 39.535156 226.140625 40.1875 227.4375 40.871094 228.714844 C 41.558594 229.996094 42.273438 231.257812 43.019531 232.503906 C 43.765625 233.746094 44.542969 234.972656 45.347656 236.179688 C 46.15625 237.386719 46.992188 238.570312 47.855469 239.738281 C 48.71875 240.902344 49.613281 242.046875 50.535156 243.167969 C 51.453125 244.289062 52.402344 245.386719 53.378906 246.464844 C 54.351562 247.539062 55.351562 248.589844 56.378906 249.617188 C 57.40625 250.640625 58.457031 251.640625 59.53125 252.617188 C 60.605469 253.589844 61.703125 254.539062 62.828125 255.460938 C 63.949219 256.382812 65.09375 257.273438 66.257812 258.136719 C 67.421875 259.003906 68.609375 259.839844 69.816406 260.644531 C 71.023438 261.453125 72.246094 262.230469 73.492188 262.976562 C 74.738281 263.722656 76 264.4375 77.277344 265.121094 C 78.558594 265.808594 79.855469 266.460938 81.164062 267.082031 C 82.476562 267.703125 83.804688 268.289062 85.144531 268.847656 C 86.484375 269.402344 87.835938 269.925781 89.203125 270.414062 C 90.570312 270.90625 91.945312 271.363281 93.335938 271.785156 C 94.722656 272.207031 96.121094 272.59375 97.53125 272.949219 C 98.9375 273.300781 100.351562 273.621094 101.777344 273.90625 C 103.199219 274.1875 104.628906 274.4375 106.0625 274.652344 C 107.5 274.867188 108.9375 275.046875 110.382812 275.1875 C 111.828125 275.332031 113.273438 275.441406 114.722656 275.511719 C 116.171875 275.585938 117.621094 275.625 119.074219 275.625 L 207.78125 275.625 L 207.78125 263.207031 L 119.074219 263.207031 C 117.824219 263.207031 116.578125 263.175781 115.328125 263.113281 C 114.082031 263.054688 112.835938 262.960938 111.59375 262.839844 C 110.347656 262.714844 109.109375 262.5625 107.875 262.378906 C 106.636719 262.195312 105.40625 261.984375 104.183594 261.738281 C 102.957031 261.496094 101.738281 261.222656 100.527344 260.917969 C 99.316406 260.617188 98.113281 260.28125 96.917969 259.917969 C 95.722656 259.558594 94.535156 259.164062 93.359375 258.746094 C 92.183594 258.324219 91.019531 257.875 89.863281 257.394531 C 88.710938 256.917969 87.566406 256.410156 86.4375 255.878906 C 85.308594 255.34375 84.195312 254.78125 83.09375 254.191406 C 81.992188 253.605469 80.902344 252.988281 79.832031 252.347656 C 78.761719 251.703125 77.707031 251.035156 76.667969 250.34375 C 75.628906 249.648438 74.609375 248.929688 73.605469 248.183594 C 72.601562 247.441406 71.617188 246.671875 70.652344 245.878906 C 69.683594 245.085938 68.738281 244.273438 67.8125 243.433594 C 66.886719 242.59375 65.984375 241.734375 65.101562 240.851562 C 64.21875 239.964844 63.355469 239.0625 62.515625 238.136719 C 61.679688 237.210938 60.863281 236.265625 60.070312 235.300781 C 59.277344 234.332031 58.507812 233.347656 57.765625 232.347656 C 57.019531 231.34375 56.300781 230.320312 55.609375 229.28125 C 54.914062 228.242188 54.246094 227.1875 53.601562 226.117188 C 52.960938 225.046875 52.34375 223.960938 51.757812 222.859375 C 51.167969 221.757812 50.605469 220.640625 50.070312 219.511719 C 49.539062 218.382812 49.03125 217.242188 48.554688 216.085938 C 48.074219 214.933594 47.625 213.765625 47.207031 212.589844 C 46.785156 211.414062 46.394531 210.230469 46.03125 209.035156 C 45.667969 207.835938 45.335938 206.632812 45.03125 205.421875 C 44.726562 204.210938 44.453125 202.992188 44.210938 201.765625 C 43.964844 200.542969 43.753906 199.3125 43.570312 198.074219 C 43.386719 196.839844 43.234375 195.601562 43.109375 194.355469 C 42.988281 193.113281 42.898438 191.867188 42.835938 190.621094 C 42.773438 189.375 42.742188 188.125 42.742188 186.875 C 42.742188 185.625 42.773438 184.378906 42.835938 183.128906 C 42.898438 181.882812 42.988281 180.636719 43.109375 179.394531 C 43.234375 178.152344 43.386719 176.910156 43.570312 175.675781 C 43.753906 174.441406 43.964844 173.210938 44.210938 171.984375 C 44.453125 170.757812 44.726562 169.539062 45.03125 168.328125 C 45.335938 167.117188 45.667969 165.914062 46.03125 164.71875 C 46.394531 163.523438 46.785156 162.335938 47.207031 161.160156 C 47.625 159.984375 48.074219 158.820312 48.554688 157.664062 C 49.03125 156.511719 49.539062 155.371094 50.070312 154.238281 C 50.605469 153.109375 51.167969 151.996094 51.757812 150.894531 C 52.34375 149.792969 52.960938 148.707031 53.601562 147.632812 C 54.246094 146.5625 54.914062 145.507812 55.609375 144.46875 C 56.300781 143.429688 57.019531 142.410156 57.765625 141.40625 C 58.507812 140.402344 59.277344 139.417969 60.070312 138.453125 C 60.863281 137.488281 61.679688 136.539062 62.515625 135.613281 C 63.355469 134.691406 64.21875 133.785156 65.101562 132.902344 C 65.984375 132.019531 66.886719 131.15625 67.8125 130.316406 C 68.738281 129.480469 69.683594 128.664062 70.652344 127.871094 C 71.617188 127.078125 72.601562 126.308594 73.605469 125.566406 C 74.609375 124.820312 75.628906 124.101562 76.667969 123.410156 C 77.707031 122.714844 78.761719 122.046875 79.832031 121.40625 C 80.902344 120.761719 81.992188 120.148438 83.09375 119.558594 C 84.195312 118.96875 85.308594 118.40625 86.4375 117.875 C 87.566406 117.339844 88.710938 116.832031 89.863281 116.355469 C 91.019531 115.878906 92.183594 115.429688 93.359375 115.007812 C 94.535156 114.585938 95.722656 114.195312 96.917969 113.832031 C 98.113281 113.46875 99.316406 113.136719 100.527344 112.832031 C 101.738281 112.527344 102.957031 112.253906 104.183594 112.011719 C 105.40625 111.769531 106.636719 111.554688 107.875 111.371094 C 109.109375 111.1875 110.347656 111.035156 111.59375 110.914062 C 112.835938 110.789062 114.082031 110.699219 115.328125 110.636719 C 116.578125 110.574219 117.824219 110.546875 119.074219 110.546875 L 207.78125 110.546875 L 207.78125 98.214844 L 119.074219 98.214844 C 117.621094 98.214844 116.171875 98.253906 114.722656 98.328125 C 113.273438 98.398438 111.828125 98.507812 110.382812 98.652344 C 108.9375 98.792969 107.5 98.972656 106.0625 99.1875 C 104.628906 99.402344 103.199219 99.652344 101.777344 99.933594 C 100.351562 100.21875 98.9375 100.539062 97.53125 100.890625 C 96.121094 101.246094 94.722656 101.632812 93.335938 102.054688 C 91.945312 102.480469 90.570312 102.933594 89.203125 103.425781 C 87.835938 103.914062 86.484375 104.4375 85.144531 104.992188 C 83.804688 105.550781 82.476562 106.136719 81.164062 106.757812 C 79.855469 107.378906 78.558594 108.035156 77.277344 108.71875 C 76 109.402344 74.738281 110.117188 73.492188 110.863281 C 72.246094 111.609375 71.023438 112.386719 69.816406 113.195312 C 68.609375 114 67.421875 114.835938 66.257812 115.703125 C 65.09375 116.566406 63.949219 117.460938 62.828125 118.378906 C 61.703125 119.300781 60.605469 120.25 59.53125 121.222656 C 58.457031 122.199219 57.40625 123.199219 56.378906 124.222656 C 55.351562 125.25 54.351562 126.300781 53.378906 127.375 C 52.402344 128.453125 51.453125 129.550781 50.535156 130.671875 C 49.613281 131.792969 48.71875 132.9375 47.855469 134.101562 C 46.992188 135.269531 46.15625 136.453125 45.347656 137.660156 C 44.542969 138.867188 43.765625 140.09375 43.019531 141.335938 C 42.273438 142.582031 41.558594 143.84375 40.871094 145.125 C 40.1875 146.402344 39.535156 147.699219 38.914062 149.011719 C 38.292969 150.324219 37.703125 151.648438 37.148438 152.988281 C 36.589844 154.328125 36.070312 155.683594 35.578125 157.050781 C 35.089844 158.414062 34.632812 159.792969 34.210938 161.179688 C 33.789062 162.570312 33.402344 163.96875 33.046875 165.375 C 32.691406 166.78125 32.375 168.199219 32.089844 169.621094 C 31.804688 171.042969 31.554688 172.472656 31.34375 173.910156 C 31.128906 175.34375 30.949219 176.785156 30.804688 178.226562 C 30.660156 179.671875 30.554688 181.121094 30.480469 182.570312 C 30.40625 184.019531 30.371094 185.46875 30.371094 186.921875 Z M 30.371094 186.921875 " fill-opacity="1" fill-rule="nonzero"/></g><g clip-path="url(#fe19e8915a)"><path fill="#f08700" d="M 16.570312 186.921875 C 16.574219 188.597656 16.617188 190.273438 16.699219 191.949219 C 16.785156 193.625 16.910156 195.296875 17.074219 196.964844 C 17.242188 198.632812 17.449219 200.296875 17.695312 201.957031 C 17.941406 203.613281 18.230469 205.265625 18.558594 206.910156 C 18.886719 208.554688 19.257812 210.191406 19.664062 211.816406 C 20.074219 213.445312 20.523438 215.058594 21.011719 216.664062 C 21.5 218.269531 22.027344 219.859375 22.589844 221.4375 C 23.15625 223.015625 23.761719 224.582031 24.40625 226.128906 C 25.046875 227.679688 25.726562 229.210938 26.445312 230.726562 C 27.164062 232.242188 27.917969 233.742188 28.707031 235.21875 C 29.5 236.699219 30.328125 238.15625 31.1875 239.59375 C 32.050781 241.03125 32.949219 242.449219 33.882812 243.84375 C 34.8125 245.238281 35.777344 246.609375 36.777344 247.953125 C 37.777344 249.300781 38.808594 250.621094 39.875 251.917969 C 40.9375 253.214844 42.03125 254.484375 43.160156 255.726562 C 44.285156 256.96875 45.441406 258.183594 46.628906 259.371094 C 47.8125 260.554688 49.027344 261.710938 50.269531 262.835938 C 51.511719 263.964844 52.78125 265.058594 54.078125 266.125 C 55.375 267.1875 56.695312 268.21875 58.042969 269.21875 C 59.390625 270.21875 60.761719 271.183594 62.152344 272.117188 C 63.546875 273.046875 64.964844 273.945312 66.402344 274.808594 C 67.839844 275.671875 69.300781 276.496094 70.777344 277.289062 C 72.257812 278.078125 73.753906 278.835938 75.269531 279.550781 C 76.785156 280.269531 78.316406 280.949219 79.867188 281.59375 C 81.414062 282.234375 82.980469 282.839844 84.558594 283.40625 C 86.136719 283.972656 87.726562 284.5 89.332031 284.984375 C 90.9375 285.472656 92.554688 285.921875 94.179688 286.332031 C 95.804688 286.738281 97.441406 287.109375 99.085938 287.4375 C 100.730469 287.765625 102.382812 288.054688 104.039062 288.300781 C 105.699219 288.546875 107.363281 288.753906 109.03125 288.921875 C 110.699219 289.085938 112.371094 289.210938 114.046875 289.296875 C 115.722656 289.378906 117.398438 289.421875 119.074219 289.425781 L 221.578125 289.425781 L 221.578125 275.074219 L 119.074219 275.074219 C 117.632812 275.074219 116.1875 275.039062 114.746094 274.96875 C 113.304688 274.898438 111.867188 274.792969 110.429688 274.648438 C 108.992188 274.507812 107.5625 274.332031 106.132812 274.121094 C 104.707031 273.90625 103.285156 273.660156 101.867188 273.378906 C 100.453125 273.097656 99.042969 272.78125 97.644531 272.429688 C 96.242188 272.082031 94.851562 271.695312 93.472656 271.277344 C 92.089844 270.859375 90.71875 270.40625 89.359375 269.917969 C 88 269.433594 86.65625 268.914062 85.320312 268.359375 C 83.988281 267.808594 82.667969 267.222656 81.363281 266.605469 C 80.058594 265.988281 78.769531 265.339844 77.496094 264.660156 C 76.222656 263.980469 74.96875 263.269531 73.730469 262.527344 C 72.492188 261.785156 71.273438 261.011719 70.070312 260.210938 C 68.871094 259.40625 67.691406 258.578125 66.53125 257.714844 C 65.371094 256.855469 64.234375 255.96875 63.121094 255.054688 C 62.003906 254.136719 60.910156 253.195312 59.839844 252.226562 C 58.769531 251.257812 57.726562 250.261719 56.707031 249.238281 C 55.683594 248.21875 54.691406 247.175781 53.71875 246.105469 C 52.75 245.035156 51.808594 243.941406 50.890625 242.828125 C 49.976562 241.710938 49.089844 240.574219 48.230469 239.414062 C 47.367188 238.253906 46.539062 237.074219 45.734375 235.875 C 44.933594 234.671875 44.160156 233.453125 43.421875 232.214844 C 42.679688 230.976562 41.964844 229.722656 41.285156 228.449219 C 40.605469 227.175781 39.957031 225.886719 39.339844 224.582031 C 38.722656 223.277344 38.136719 221.957031 37.585938 220.625 C 37.03125 219.289062 36.511719 217.945312 36.027344 216.585938 C 35.539062 215.226562 35.089844 213.855469 34.667969 212.472656 C 34.25 211.09375 33.863281 209.703125 33.515625 208.300781 C 33.164062 206.902344 32.847656 205.492188 32.566406 204.078125 C 32.285156 202.664062 32.039062 201.242188 31.824219 199.8125 C 31.613281 198.382812 31.4375 196.953125 31.296875 195.515625 C 31.152344 194.078125 31.046875 192.640625 30.976562 191.199219 C 30.90625 189.757812 30.871094 188.3125 30.871094 186.871094 C 30.871094 185.425781 30.90625 183.984375 30.976562 182.542969 C 31.046875 181.101562 31.152344 179.660156 31.296875 178.222656 C 31.4375 176.789062 31.613281 175.355469 31.824219 173.929688 C 32.039062 172.5 32.285156 171.078125 32.566406 169.664062 C 32.847656 168.246094 33.164062 166.839844 33.515625 165.4375 C 33.863281 164.039062 34.25 162.648438 34.667969 161.265625 C 35.089844 159.882812 35.539062 158.515625 36.027344 157.15625 C 36.511719 155.796875 37.03125 154.449219 37.585938 153.117188 C 38.136719 151.78125 38.722656 150.460938 39.339844 149.15625 C 39.957031 147.851562 40.605469 146.5625 41.285156 145.289062 C 41.964844 144.019531 42.679688 142.761719 43.421875 141.523438 C 44.160156 140.285156 44.933594 139.066406 45.734375 137.867188 C 46.539062 136.664062 47.367188 135.484375 48.230469 134.328125 C 49.089844 133.167969 49.976562 132.03125 50.890625 130.914062 C 51.808594 129.796875 52.75 128.703125 53.71875 127.636719 C 54.691406 126.566406 55.683594 125.519531 56.707031 124.5 C 57.726562 123.480469 58.769531 122.484375 59.839844 121.515625 C 60.910156 120.546875 62.003906 119.601562 63.121094 118.6875 C 64.234375 117.769531 65.371094 116.882812 66.53125 116.023438 C 67.691406 115.164062 68.871094 114.332031 70.070312 113.53125 C 71.273438 112.730469 72.492188 111.957031 73.730469 111.214844 C 74.96875 110.472656 76.222656 109.761719 77.496094 109.082031 C 78.769531 108.398438 80.058594 107.75 81.363281 107.132812 C 82.667969 106.515625 83.988281 105.933594 85.320312 105.378906 C 86.65625 104.828125 88 104.308594 89.359375 103.820312 C 90.71875 103.335938 92.089844 102.882812 93.472656 102.464844 C 94.851562 102.042969 96.242188 101.660156 97.644531 101.308594 C 99.042969 100.957031 100.453125 100.640625 101.867188 100.359375 C 103.285156 100.078125 104.707031 99.832031 106.132812 99.621094 C 107.5625 99.410156 108.992188 99.230469 110.429688 99.089844 C 111.867188 98.949219 113.304688 98.84375 114.746094 98.773438 C 116.1875 98.699219 117.632812 98.664062 119.074219 98.664062 L 221.578125 98.664062 L 221.578125 84.417969 L 119.074219 84.417969 C 117.398438 84.417969 115.722656 84.460938 114.046875 84.546875 C 112.371094 84.628906 110.699219 84.753906 109.03125 84.921875 C 107.363281 85.085938 105.699219 85.292969 104.039062 85.542969 C 102.382812 85.789062 100.730469 86.078125 99.085938 86.40625 C 97.441406 86.734375 95.804688 87.101562 94.179688 87.511719 C 92.554688 87.921875 90.9375 88.367188 89.332031 88.855469 C 87.726562 89.34375 86.136719 89.871094 84.558594 90.4375 C 82.980469 91.003906 81.414062 91.609375 79.867188 92.25 C 78.316406 92.894531 76.785156 93.574219 75.269531 94.289062 C 73.753906 95.007812 72.257812 95.761719 70.777344 96.554688 C 69.300781 97.34375 67.839844 98.171875 66.402344 99.035156 C 64.964844 99.898438 63.546875 100.796875 62.152344 101.726562 C 60.761719 102.660156 59.390625 103.625 58.042969 104.625 C 56.695312 105.625 55.375 106.65625 54.078125 107.71875 C 52.78125 108.785156 51.511719 109.878906 50.269531 111.003906 C 49.027344 112.132812 47.8125 113.289062 46.628906 114.472656 C 45.441406 115.660156 44.285156 116.875 43.160156 118.117188 C 42.03125 119.359375 40.9375 120.628906 39.875 121.921875 C 38.808594 123.21875 37.777344 124.542969 36.777344 125.886719 C 35.777344 127.234375 34.8125 128.605469 33.882812 130 C 32.949219 131.394531 32.050781 132.808594 31.1875 134.25 C 30.328125 135.6875 29.5 137.144531 28.707031 138.625 C 27.917969 140.101562 27.164062 141.597656 26.445312 143.113281 C 25.726562 144.628906 25.046875 146.164062 24.40625 147.710938 C 23.761719 149.261719 23.15625 150.824219 22.589844 152.402344 C 22.027344 153.984375 21.5 155.574219 21.011719 157.179688 C 20.523438 158.78125 20.074219 160.398438 19.664062 162.023438 C 19.257812 163.652344 18.886719 165.285156 18.558594 166.929688 C 18.230469 168.574219 17.941406 170.226562 17.695312 171.886719 C 17.449219 173.546875 17.242188 175.207031 17.074219 176.878906 C 16.910156 178.546875 16.785156 180.21875 16.699219 181.894531 C 16.617188 183.566406 16.574219 185.246094 16.570312 186.921875 Z M 16.570312 186.921875 " fill-opacity="1" fill-rule="nonzero"/></g><g clip-path="url(#e370f37b93)"><path fill="#f08700" d="M 169.511719 167.863281 L 169.511719 304.914062 L 126.566406 304.914062 L 126.566406 167.863281 Z M 169.511719 167.863281 " fill-opacity="1" fill-rule="nonzero"/></g><g clip-path="url(#f910439988)"><path fill="#f08700" d="M 86.933594 167.863281 L 169.480469 167.863281 L 169.480469 204.9375 L 86.933594 204.9375 Z M 86.933594 167.863281 " fill-opacity="1" fill-rule="nonzero"/></g><g clip-path="url(#07770ab8df)"><path fill="#f08700" d="M 169.507812 68.847656 L 169.507812 110.253906 L 111.765625 110.253906 L 111.765625 68.847656 Z M 169.507812 68.847656 " fill-opacity="1" fill-rule="nonzero"/></g><g clip-path="url(#54c0f7ae85)"><path fill="#f08700" d="M 333.761719 138.695312 C 333.761719 139.804688 333.707031 140.90625 333.597656 142.007812 C 333.488281 143.109375 333.324219 144.203125 333.105469 145.289062 C 332.890625 146.375 332.621094 147.449219 332.296875 148.507812 C 331.976562 149.566406 331.601562 150.609375 331.179688 151.628906 C 330.753906 152.652344 330.28125 153.652344 329.757812 154.628906 C 329.238281 155.605469 328.667969 156.554688 328.050781 157.472656 C 327.4375 158.394531 326.777344 159.28125 326.074219 160.136719 C 325.375 160.992188 324.628906 161.8125 323.847656 162.59375 C 323.066406 163.378906 322.246094 164.121094 321.390625 164.824219 C 320.535156 165.527344 319.644531 166.183594 318.726562 166.800781 C 317.804688 167.414062 316.855469 167.984375 315.882812 168.507812 C 314.90625 169.027344 313.90625 169.503906 312.882812 169.925781 C 311.859375 170.351562 310.820312 170.722656 309.761719 171.046875 C 308.699219 171.367188 307.628906 171.636719 306.542969 171.855469 C 305.457031 172.070312 304.363281 172.234375 303.261719 172.34375 C 302.160156 172.453125 301.054688 172.507812 299.949219 172.511719 L 266.132812 172.511719 L 266.132812 167.777344 L 299.949219 167.777344 C 300.902344 167.777344 301.851562 167.730469 302.800781 167.636719 C 303.75 167.542969 304.691406 167.402344 305.625 167.21875 C 306.558594 167.03125 307.484375 166.800781 308.394531 166.523438 C 309.308594 166.246094 310.203125 165.925781 311.082031 165.5625 C 311.964844 165.195312 312.824219 164.789062 313.664062 164.339844 C 314.503906 163.890625 315.320312 163.402344 316.113281 162.871094 C 316.90625 162.34375 317.671875 161.777344 318.40625 161.171875 C 319.144531 160.566406 319.847656 159.929688 320.523438 159.253906 C 321.195312 158.582031 321.835938 157.875 322.441406 157.136719 C 323.046875 156.402344 323.613281 155.636719 324.140625 154.84375 C 324.671875 154.050781 325.160156 153.234375 325.609375 152.394531 C 326.058594 151.554688 326.464844 150.695312 326.832031 149.8125 C 327.195312 148.933594 327.515625 148.039062 327.792969 147.125 C 328.070312 146.214844 328.300781 145.289062 328.488281 144.355469 C 328.671875 143.421875 328.8125 142.480469 328.90625 141.53125 C 329 140.582031 329.046875 139.632812 329.046875 138.679688 C 329.046875 137.726562 329 136.777344 328.90625 135.828125 C 328.8125 134.878906 328.671875 133.9375 328.488281 133.003906 C 328.300781 132.066406 328.070312 131.144531 327.792969 130.234375 C 327.515625 129.320312 327.195312 128.425781 326.832031 127.542969 C 326.464844 126.664062 326.058594 125.804688 325.609375 124.960938 C 325.160156 124.121094 324.671875 123.304688 324.140625 122.511719 C 323.613281 121.722656 323.046875 120.957031 322.441406 120.21875 C 321.835938 119.484375 321.195312 118.777344 320.523438 118.105469 C 319.847656 117.429688 319.144531 116.792969 318.40625 116.1875 C 317.671875 115.582031 316.90625 115.015625 316.113281 114.484375 C 315.320312 113.957031 314.503906 113.46875 313.664062 113.019531 C 312.824219 112.570312 311.964844 112.160156 311.082031 111.796875 C 310.203125 111.433594 309.308594 111.113281 308.394531 110.835938 C 307.484375 110.558594 306.558594 110.328125 305.625 110.140625 C 304.691406 109.953125 303.75 109.816406 302.800781 109.722656 C 301.851562 109.628906 300.902344 109.582031 299.949219 109.582031 L 266.132812 109.582031 L 266.132812 104.882812 L 299.949219 104.882812 C 301.054688 104.882812 302.160156 104.9375 303.261719 105.046875 C 304.363281 105.15625 305.457031 105.320312 306.542969 105.539062 C 307.628906 105.753906 308.699219 106.023438 309.761719 106.347656 C 310.820312 106.667969 311.859375 107.042969 312.882812 107.464844 C 313.90625 107.890625 314.90625 108.363281 315.882812 108.886719 C 316.855469 109.40625 317.804688 109.976562 318.726562 110.59375 C 319.644531 111.207031 320.535156 111.867188 321.390625 112.570312 C 322.246094 113.269531 323.066406 114.015625 323.847656 114.796875 C 324.628906 115.578125 325.375 116.398438 326.074219 117.253906 C 326.777344 118.109375 327.4375 119 328.050781 119.917969 C 328.667969 120.839844 329.238281 121.789062 329.757812 122.761719 C 330.28125 123.738281 330.753906 124.738281 331.179688 125.761719 C 331.601562 126.785156 331.976562 127.824219 332.296875 128.882812 C 332.621094 129.945312 332.890625 131.015625 333.105469 132.101562 C 333.324219 133.1875 333.488281 134.28125 333.597656 135.382812 C 333.707031 136.484375 333.761719 137.589844 333.761719 138.695312 Z M 333.761719 138.695312 " fill-opacity="1" fill-rule="nonzero"/></g><g clip-path="url(#29ea4d480e)"><path fill="#f08700" d="M 333.15625 233.425781 C 333.15625 234.511719 333.101562 235.597656 332.992188 236.675781 C 332.886719 237.757812 332.726562 238.832031 332.511719 239.898438 C 332.300781 240.964844 332.035156 242.019531 331.71875 243.058594 C 331.402344 244.097656 331.035156 245.121094 330.621094 246.125 C 330.203125 247.128906 329.738281 248.109375 329.226562 249.070312 C 328.710938 250.027344 328.152344 250.960938 327.550781 251.863281 C 326.945312 252.765625 326.296875 253.640625 325.609375 254.480469 C 324.917969 255.320312 324.1875 256.125 323.421875 256.894531 C 322.652344 257.660156 321.847656 258.390625 321.007812 259.082031 C 320.167969 259.769531 319.292969 260.417969 318.390625 261.023438 C 317.488281 261.625 316.554688 262.183594 315.597656 262.699219 C 314.640625 263.210938 313.65625 263.675781 312.652344 264.09375 C 311.648438 264.507812 310.625 264.875 309.585938 265.191406 C 308.546875 265.507812 307.492188 265.773438 306.425781 265.984375 C 305.359375 266.199219 304.289062 266.359375 303.207031 266.464844 C 302.125 266.574219 301.039062 266.628906 299.953125 266.628906 L 266.746094 266.628906 L 266.746094 261.980469 L 299.953125 261.980469 C 300.886719 261.980469 301.820312 261.933594 302.753906 261.84375 C 303.683594 261.75 304.609375 261.613281 305.527344 261.429688 C 306.445312 261.25 307.351562 261.023438 308.246094 260.75 C 309.140625 260.476562 310.023438 260.164062 310.886719 259.804688 C 311.75 259.449219 312.597656 259.046875 313.421875 258.605469 C 314.246094 258.164062 315.046875 257.683594 315.824219 257.164062 C 316.605469 256.644531 317.355469 256.089844 318.078125 255.496094 C 318.800781 254.902344 319.496094 254.273438 320.15625 253.613281 C 320.816406 252.949219 321.445312 252.257812 322.039062 251.535156 C 322.632812 250.8125 323.191406 250.058594 323.710938 249.28125 C 324.230469 248.503906 324.710938 247.703125 325.152344 246.875 C 325.59375 246.050781 325.992188 245.207031 326.351562 244.34375 C 326.707031 243.476562 327.023438 242.597656 327.292969 241.703125 C 327.566406 240.804688 327.792969 239.898438 327.976562 238.980469 C 328.160156 238.0625 328.296875 237.140625 328.386719 236.207031 C 328.480469 235.277344 328.523438 234.34375 328.523438 233.40625 C 328.523438 232.472656 328.480469 231.539062 328.386719 230.605469 C 328.296875 229.675781 328.160156 228.75 327.976562 227.832031 C 327.792969 226.914062 327.566406 226.007812 327.292969 225.113281 C 327.023438 224.21875 326.707031 223.335938 326.351562 222.472656 C 325.992188 221.609375 325.59375 220.761719 325.152344 219.9375 C 324.710938 219.113281 324.230469 218.3125 323.710938 217.535156 C 323.191406 216.753906 322.632812 216.003906 322.039062 215.28125 C 321.445312 214.558594 320.816406 213.863281 320.15625 213.203125 C 319.496094 212.542969 318.800781 211.914062 318.078125 211.320312 C 317.355469 210.726562 316.605469 210.167969 315.824219 209.648438 C 315.046875 209.128906 314.246094 208.648438 313.421875 208.207031 C 312.597656 207.765625 311.75 207.367188 310.886719 207.007812 C 310.023438 206.652344 309.140625 206.335938 308.246094 206.066406 C 307.351562 205.792969 306.445312 205.566406 305.527344 205.382812 C 304.609375 205.199219 303.683594 205.0625 302.753906 204.972656 C 301.820312 204.878906 300.886719 204.835938 299.953125 204.835938 L 266.746094 204.835938 L 266.746094 200.21875 L 299.953125 200.21875 C 301.039062 200.21875 302.125 200.273438 303.207031 200.382812 C 304.289062 200.488281 305.359375 200.648438 306.425781 200.863281 C 307.492188 201.074219 308.546875 201.339844 309.585938 201.65625 C 310.625 201.972656 311.648438 202.339844 312.652344 202.757812 C 313.65625 203.171875 314.640625 203.636719 315.597656 204.152344 C 316.554688 204.664062 317.488281 205.222656 318.390625 205.828125 C 319.292969 206.429688 320.167969 207.078125 321.007812 207.765625 C 321.847656 208.457031 322.652344 209.1875 323.421875 209.957031 C 324.1875 210.722656 324.917969 211.527344 325.609375 212.367188 C 326.296875 213.210938 326.945312 214.082031 327.550781 214.984375 C 328.152344 215.890625 328.710938 216.820312 329.226562 217.777344 C 329.738281 218.738281 330.203125 219.71875 330.621094 220.722656 C 331.035156 221.726562 331.402344 222.75 331.71875 223.789062 C 332.035156 224.828125 332.300781 225.882812 332.511719 226.949219 C 332.726562 228.015625 332.886719 229.089844 332.992188 230.171875 C 333.101562 231.253906 333.15625 232.335938 333.15625 233.425781 Z M 333.15625 233.425781 " fill-opacity="1" fill-rule="nonzero"/></g><g clip-path="url(#d69eeac098)"><path fill="#f08700" d="M 372.308594 127.515625 C 372.304688 129.425781 372.210938 131.332031 372.019531 133.238281 C 371.832031 135.140625 371.550781 137.027344 371.175781 138.902344 C 370.800781 140.777344 370.335938 142.628906 369.777344 144.460938 C 369.222656 146.289062 368.578125 148.085938 367.84375 149.851562 C 367.113281 151.621094 366.296875 153.34375 365.394531 155.03125 C 364.492188 156.71875 363.507812 158.355469 362.445312 159.945312 C 361.382812 161.535156 360.246094 163.066406 359.03125 164.546875 C 357.820312 166.023438 356.535156 167.4375 355.183594 168.789062 C 353.832031 170.144531 352.417969 171.425781 350.9375 172.636719 C 349.460938 173.851562 347.925781 174.988281 346.339844 176.050781 C 344.75 177.117188 343.109375 178.097656 341.425781 179 C 339.738281 179.902344 338.011719 180.71875 336.246094 181.453125 C 334.480469 182.183594 332.683594 182.828125 330.851562 183.386719 C 329.023438 183.941406 327.171875 184.40625 325.296875 184.78125 C 323.421875 185.15625 321.53125 185.4375 319.628906 185.628906 C 317.726562 185.816406 315.820312 185.914062 313.90625 185.914062 L 255.507812 185.914062 L 255.507812 177.738281 L 313.90625 177.738281 C 315.554688 177.738281 317.195312 177.65625 318.832031 177.496094 C 320.472656 177.335938 322.097656 177.09375 323.710938 176.773438 C 325.324219 176.453125 326.921875 176.050781 328.496094 175.574219 C 330.070312 175.097656 331.617188 174.542969 333.140625 173.914062 C 334.660156 173.285156 336.144531 172.582031 337.597656 171.804688 C 339.046875 171.027344 340.457031 170.183594 341.828125 169.269531 C 343.195312 168.355469 344.515625 167.375 345.789062 166.332031 C 347.058594 165.289062 348.277344 164.183594 349.441406 163.019531 C 350.605469 161.855469 351.710938 160.636719 352.753906 159.367188 C 353.796875 158.09375 354.777344 156.773438 355.691406 155.40625 C 356.605469 154.035156 357.453125 152.625 358.226562 151.175781 C 359.003906 149.722656 359.707031 148.238281 360.335938 146.714844 C 360.964844 145.195312 361.519531 143.648438 361.996094 142.074219 C 362.476562 140.496094 362.875 138.902344 363.195312 137.289062 C 363.515625 135.675781 363.757812 134.046875 363.917969 132.410156 C 364.082031 130.773438 364.160156 129.132812 364.160156 127.484375 C 364.160156 125.839844 364.082031 124.195312 363.917969 122.558594 C 363.757812 120.921875 363.515625 119.296875 363.195312 117.679688 C 362.875 116.066406 362.476562 114.472656 361.996094 112.898438 C 361.519531 111.320312 360.964844 109.773438 360.335938 108.253906 C 359.707031 106.734375 359.003906 105.246094 358.226562 103.796875 C 357.453125 102.34375 356.605469 100.933594 355.691406 99.566406 C 354.777344 98.195312 353.796875 96.875 352.753906 95.605469 C 351.710938 94.332031 350.605469 93.113281 349.441406 91.949219 C 348.277344 90.785156 347.058594 89.683594 345.789062 88.636719 C 344.515625 87.59375 343.195312 86.613281 341.828125 85.699219 C 340.457031 84.785156 339.046875 83.941406 337.597656 83.164062 C 336.144531 82.390625 334.660156 81.6875 333.140625 81.058594 C 331.617188 80.425781 330.070312 79.875 328.496094 79.394531 C 326.921875 78.917969 325.324219 78.519531 323.710938 78.195312 C 322.097656 77.875 320.472656 77.636719 318.832031 77.472656 C 317.195312 77.3125 315.554688 77.230469 313.90625 77.230469 L 255.507812 77.230469 L 255.507812 69.113281 L 313.90625 69.113281 C 315.820312 69.117188 317.726562 69.210938 319.628906 69.402344 C 321.53125 69.589844 323.421875 69.871094 325.296875 70.246094 C 327.171875 70.621094 329.023438 71.085938 330.851562 71.644531 C 332.683594 72.199219 334.480469 72.84375 336.246094 73.578125 C 338.011719 74.308594 339.738281 75.125 341.425781 76.027344 C 343.109375 76.929688 344.75 77.914062 346.339844 78.976562 C 347.925781 80.039062 349.460938 81.175781 350.9375 82.390625 C 352.417969 83.601562 353.832031 84.886719 355.183594 86.238281 C 356.535156 87.589844 357.820312 89.003906 359.03125 90.484375 C 360.246094 91.960938 361.382812 93.496094 362.445312 95.082031 C 363.507812 96.671875 364.492188 98.3125 365.394531 99.996094 C 366.296875 101.683594 367.113281 103.410156 367.84375 105.175781 C 368.578125 106.941406 369.222656 108.738281 369.777344 110.570312 C 370.335938 112.398438 370.800781 114.25 371.175781 116.125 C 371.550781 118 371.832031 119.890625 372.019531 121.792969 C 372.210938 123.695312 372.304688 125.601562 372.308594 127.515625 Z M 372.308594 127.515625 " fill-opacity="1" fill-rule="nonzero"/></g><g clip-path="url(#822b1b28b2)"><path fill="#f08700" d="M 374.988281 240.132812 C 374.988281 241.195312 374.960938 242.261719 374.90625 243.324219 C 374.855469 244.390625 374.773438 245.453125 374.667969 246.511719 C 374.5625 247.574219 374.433594 248.628906 374.273438 249.683594 C 374.117188 250.738281 373.933594 251.785156 373.726562 252.832031 C 373.515625 253.875 373.285156 254.914062 373.023438 255.949219 C 372.765625 256.980469 372.480469 258.007812 372.167969 259.027344 C 371.859375 260.046875 371.523438 261.058594 371.164062 262.058594 C 370.804688 263.0625 370.421875 264.058594 370.011719 265.039062 C 369.605469 266.023438 369.171875 267 368.714844 267.960938 C 368.261719 268.925781 367.78125 269.875 367.277344 270.816406 C 366.777344 271.753906 366.25 272.679688 365.703125 273.59375 C 365.15625 274.507812 364.585938 275.40625 363.992188 276.292969 C 363.398438 277.179688 362.785156 278.050781 362.152344 278.90625 C 361.515625 279.761719 360.863281 280.601562 360.1875 281.425781 C 359.507812 282.246094 358.8125 283.054688 358.097656 283.84375 C 357.382812 284.632812 356.648438 285.40625 355.894531 286.15625 C 355.140625 286.910156 354.371094 287.644531 353.582031 288.363281 C 352.792969 289.078125 351.984375 289.773438 351.160156 290.449219 C 350.335938 291.125 349.5 291.78125 348.644531 292.414062 C 347.785156 293.050781 346.917969 293.664062 346.03125 294.253906 C 345.144531 294.847656 344.246094 295.417969 343.332031 295.964844 C 342.417969 296.515625 341.492188 297.039062 340.550781 297.542969 C 339.613281 298.042969 338.660156 298.523438 337.699219 298.980469 C 336.734375 299.4375 335.761719 299.867188 334.777344 300.277344 C 333.792969 300.683594 332.800781 301.070312 331.796875 301.429688 C 330.792969 301.789062 329.785156 302.121094 328.765625 302.433594 C 327.746094 302.742188 326.71875 303.027344 325.683594 303.285156 C 324.652344 303.546875 323.613281 303.78125 322.566406 303.988281 C 321.523438 304.199219 320.472656 304.382812 319.421875 304.539062 C 318.367188 304.695312 317.308594 304.828125 316.25 304.933594 C 315.1875 305.039062 314.125 305.117188 313.0625 305.171875 C 312 305.222656 310.933594 305.25 309.867188 305.253906 L 244.746094 305.253906 L 244.746094 296.136719 L 309.867188 296.136719 C 311.703125 296.136719 313.535156 296.046875 315.359375 295.867188 C 317.1875 295.6875 319 295.417969 320.800781 295.058594 C 322.601562 294.699219 324.378906 294.253906 326.136719 293.722656 C 327.890625 293.191406 329.617188 292.574219 331.3125 291.871094 C 333.007812 291.167969 334.664062 290.382812 336.285156 289.519531 C 337.902344 288.652344 339.472656 287.710938 341 286.691406 C 342.527344 285.671875 344 284.578125 345.417969 283.414062 C 346.835938 282.25 348.195312 281.019531 349.492188 279.722656 C 350.789062 278.425781 352.019531 277.066406 353.183594 275.648438 C 354.347656 274.230469 355.441406 272.757812 356.460938 271.230469 C 357.480469 269.707031 358.421875 268.132812 359.289062 266.515625 C 360.152344 264.894531 360.9375 263.238281 361.640625 261.542969 C 362.339844 259.847656 362.960938 258.121094 363.492188 256.367188 C 364.023438 254.609375 364.46875 252.832031 364.828125 251.03125 C 365.1875 249.230469 365.457031 247.417969 365.636719 245.589844 C 365.816406 243.765625 365.90625 241.933594 365.90625 240.097656 C 365.90625 238.261719 365.816406 236.433594 365.636719 234.605469 C 365.457031 232.78125 365.1875 230.964844 364.828125 229.167969 C 364.46875 227.367188 364.023438 225.589844 363.492188 223.832031 C 362.960938 222.074219 362.339844 220.351562 361.640625 218.65625 C 360.9375 216.957031 360.152344 215.300781 359.289062 213.683594 C 358.421875 212.066406 357.480469 210.492188 356.460938 208.964844 C 355.441406 207.441406 354.347656 205.96875 353.183594 204.550781 C 352.019531 203.128906 350.789062 201.773438 349.492188 200.476562 C 348.195312 199.175781 346.835938 197.945312 345.417969 196.78125 C 344 195.617188 342.527344 194.527344 341 193.507812 C 339.472656 192.488281 337.902344 191.542969 336.285156 190.679688 C 334.664062 189.8125 333.007812 189.03125 331.3125 188.328125 C 329.617188 187.625 327.890625 187.007812 326.136719 186.476562 C 324.378906 185.941406 322.601562 185.496094 320.800781 185.140625 C 319 184.78125 317.1875 184.511719 315.359375 184.332031 C 313.535156 184.152344 311.703125 184.0625 309.867188 184.0625 L 244.746094 184.0625 L 244.746094 175.011719 L 309.867188 175.011719 C 310.933594 175.011719 312 175.039062 313.0625 175.09375 C 314.125 175.144531 315.1875 175.226562 316.25 175.332031 C 317.308594 175.4375 318.367188 175.566406 319.421875 175.722656 C 320.472656 175.882812 321.523438 176.066406 322.566406 176.273438 C 323.613281 176.480469 324.652344 176.714844 325.683594 176.976562 C 326.71875 177.234375 327.746094 177.519531 328.765625 177.832031 C 329.785156 178.140625 330.792969 178.476562 331.796875 178.835938 C 332.800781 179.195312 333.792969 179.578125 334.777344 179.988281 C 335.761719 180.394531 336.734375 180.828125 337.699219 181.28125 C 338.660156 181.738281 339.613281 182.21875 340.550781 182.722656 C 341.492188 183.222656 342.417969 183.75 343.332031 184.296875 C 344.246094 184.84375 345.144531 185.414062 346.03125 186.007812 C 346.917969 186.597656 347.785156 187.210938 348.644531 187.847656 C 349.5 188.484375 350.335938 189.136719 351.160156 189.8125 C 351.984375 190.488281 352.792969 191.1875 353.582031 191.902344 C 354.371094 192.617188 355.140625 193.351562 355.894531 194.105469 C 356.648438 194.859375 357.382812 195.628906 358.097656 196.417969 C 358.8125 197.207031 359.507812 198.015625 360.1875 198.839844 C 360.863281 199.660156 361.515625 200.5 362.152344 201.355469 C 362.785156 202.210938 363.398438 203.082031 363.992188 203.96875 C 364.585938 204.855469 365.15625 205.753906 365.703125 206.667969 C 366.25 207.582031 366.777344 208.507812 367.277344 209.449219 C 367.78125 210.386719 368.261719 211.339844 368.714844 212.300781 C 369.171875 213.265625 369.605469 214.238281 370.011719 215.222656 C 370.421875 216.207031 370.804688 217.199219 371.164062 218.203125 C 371.523438 219.207031 371.859375 220.214844 372.167969 221.234375 C 372.480469 222.253906 372.765625 223.28125 373.023438 224.316406 C 373.285156 225.347656 373.515625 226.386719 373.726562 227.433594 C 373.933594 228.476562 374.117188 229.527344 374.273438 230.578125 C 374.433594 231.632812 374.5625 232.691406 374.667969 233.75 C 374.773438 234.8125 374.855469 235.871094 374.90625 236.9375 C 374.960938 238 374.988281 239.066406 374.988281 240.132812 Z M 374.988281 240.132812 " fill-opacity="1" fill-rule="nonzero"/></g><g clip-path="url(#d5f73c4889)"><path fill="#f08700" d="M 206.207031 69.113281 L 317.234375 69.113281 L 317.234375 110.484375 L 206.207031 110.484375 Z M 206.207031 69.113281 " fill-opacity="1" fill-rule="nonzero"/></g><g clip-path="url(#89afaa6c2d)"><path fill="#f08700" d="M 206.207031 260.964844 L 316.777344 260.964844 L 316.777344 305.261719 L 206.207031 305.261719 Z M 206.207031 260.964844 " fill-opacity="1" fill-rule="nonzero"/></g><g clip-path="url(#ac7bba6d72)"><path fill="#f08700" d="M 286.734375 166.65625 L 336.605469 166.65625 L 336.605469 204.769531 L 286.734375 204.769531 Z M 286.734375 166.65625 " fill-opacity="1" fill-rule="nonzero"/></g><g clip-path="url(#1053e31a66)"><g clip-path="url(#48ea19cb21)"><path fill="#f08700" d="M 304.480469 73.613281 L 344.902344 73.613281 L 344.902344 114.035156 L 304.480469 114.035156 Z M 304.480469 73.613281 " fill-opacity="1" fill-rule="nonzero"/></g></g><g clip-path="url(#003e80463c)"><g clip-path="url(#52902d1b49)"><path fill="#f08700" d="M 317.160156 84.5625 L 360.113281 84.5625 L 360.113281 127.519531 L 317.160156 127.519531 Z M 317.160156 84.5625 " fill-opacity="1" fill-rule="nonzero"/></g></g><g clip-path="url(#2cde7ceffd)"><g clip-path="url(#188165ac51)"><path fill="#f08700" d="M 329.242188 103.144531 L 369.660156 103.144531 L 369.660156 143.566406 L 329.242188 143.566406 Z M 329.242188 103.144531 " fill-opacity="1" fill-rule="nonzero"/></g></g><g clip-path="url(#d230c0bd9d)"><g clip-path="url(#b4de94139b)"><path fill="#f08700" d="M 329.242188 127.519531 L 365.5 127.519531 L 365.5 163.777344 L 329.242188 163.777344 Z M 329.242188 127.519531 " fill-opacity="1" fill-rule="nonzero"/></g></g><g clip-path="url(#32c18db81d)"><g clip-path="url(#d77d470379)"><path fill="#f08700" d="M 326.804688 148.351562 L 349.449219 148.351562 L 349.449219 170.996094 L 326.804688 170.996094 Z M 326.804688 148.351562 " fill-opacity="1" fill-rule="nonzero"/></g></g><g clip-path="url(#1f066b66c8)"><g clip-path="url(#acdceafb3b)"><path fill="#f08700" d="M 315.484375 159.675781 L 338.128906 159.675781 L 338.128906 182.316406 L 315.484375 182.316406 Z M 315.484375 159.675781 " fill-opacity="1" fill-rule="nonzero"/></g></g><g clip-path="url(#bb4b48a3d6)"><g clip-path="url(#21a09cb7d3)"><path fill="#f08700" d="M 322.949219 152.367188 L 349.449219 152.367188 L 349.449219 178.867188 L 322.949219 178.867188 Z M 322.949219 152.367188 " fill-opacity="1" fill-rule="nonzero"/></g></g><g clip-path="url(#a9f674511d)"><g clip-path="url(#28909bf3b9)"><path fill="#f08700" d="M 302.738281 260.292969 L 343.160156 260.292969 L 343.160156 300.714844 L 302.738281 300.714844 Z M 302.738281 260.292969 " fill-opacity="1" fill-rule="nonzero"/></g></g><g clip-path="url(#59db73deb9)"><g clip-path="url(#5a4c4a659e)"><path fill="#f08700" d="M 316.34375 249.109375 L 356.765625 249.109375 L 356.765625 289.527344 L 316.34375 289.527344 Z M 316.34375 249.109375 " fill-opacity="1" fill-rule="nonzero"/></g></g><g clip-path="url(#5cfc3600dd)"><g clip-path="url(#c126acf671)"><path fill="#f08700" d="M 324.691406 235.164062 L 365.113281 235.164062 L 365.113281 275.582031 L 324.691406 275.582031 Z M 324.691406 235.164062 " fill-opacity="1" fill-rule="nonzero"/></g></g><g clip-path="url(#8c7e194e48)"><g clip-path="url(#83a9036211)"><path fill="#f08700" d="M 329.242188 219.875 L 369.660156 219.875 L 369.660156 260.292969 L 329.242188 260.292969 Z M 329.242188 219.875 " fill-opacity="1" fill-rule="nonzero"/></g></g><g clip-path="url(#6fc893f9dc)"><g clip-path="url(#b2f83ef99a)"><path fill="#f08700" d="M 327.160156 199.34375 L 367.578125 199.34375 L 367.578125 239.765625 L 327.160156 239.765625 Z M 327.160156 199.34375 " fill-opacity="1" fill-rule="nonzero"/></g></g><g clip-path="url(#8a9e4dac59)"><g clip-path="url(#4301c2eaee)"><path fill="#f08700" d="M 321.453125 189.667969 L 351.660156 189.667969 L 351.660156 219.875 L 321.453125 219.875 Z M 321.453125 189.667969 " fill-opacity="1" fill-rule="nonzero"/></g></g><g clip-path="url(#793699c8dd)"><g clip-path="url(#6c051c2681)"><path fill="#f08700" d="M 312.65625 185.394531 L 336.726562 185.394531 L 336.726562 209.460938 L 312.65625 209.460938 Z M 312.65625 185.394531 " fill-opacity="1" fill-rule="nonzero"/></g></g><g clip-path="url(#785c7abc7e)"><path fill="#f08700" d="M 247.222656 69.113281 L 247.222656 305.292969 L 206.203125 305.292969 L 206.203125 69.113281 Z M 247.222656 69.113281 " fill-opacity="1" fill-rule="nonzero"/></g><g clip-path="url(#780061c292)"><path fill="#f08700" d="M 237.152344 166.867188 L 296.378906 166.867188 L 296.378906 204.769531 L 237.152344 204.769531 Z M 237.152344 166.867188 " fill-opacity="1" fill-rule="nonzero"/></g><g clip-path="url(#22cb5283c1)"><path fill="#000000" d="M 164.816406 68.40625 L 208.652344 68.40625 L 208.652344 305.046875 L 164.816406 305.046875 Z M 164.816406 68.40625 " fill-opacity="1" fill-rule="nonzero"/></g></svg>