<svg xmlns="http://www.w3.org/2000/svg" xmlns:xlink="http://www.w3.org/1999/xlink" width="1024" zoomAndPan="magnify" viewBox="0 0 768 767.999994" height="1024" preserveAspectRatio="xMidYMid meet" version="1.0"><defs><g/><clipPath id="14dba90643"><path d="M 98.285156 159.679688 L 700.398438 159.679688 L 700.398438 552.359375 L 98.285156 552.359375 Z M 98.285156 159.679688 " clip-rule="nonzero"/></clipPath><clipPath id="676093444e"><path d="M 11 139.1875 L 768 139.1875 L 768 552.4375 L 11 552.4375 Z M 11 139.1875 " clip-rule="nonzero"/></clipPath><clipPath id="100089391c"><path d="M 132.1875 326.15625 L 202.6875 326.15625 L 202.6875 441.65625 L 132.1875 441.65625 Z M 132.1875 326.15625 " clip-rule="nonzero"/></clipPath><clipPath id="64f9b8043c"><path d="M 595.773438 324.25 L 667.773438 324.25 L 667.773438 442 L 595.773438 442 Z M 595.773438 324.25 " clip-rule="nonzero"/></clipPath><clipPath id="3a253ee26a"><path d="M 11 552.359375 L 768 552.359375 L 768 573.359375 L 11 573.359375 Z M 11 552.359375 " clip-rule="nonzero"/></clipPath><clipPath id="9ab42ef0a0"><path d="M 283.800781 555.792969 L 298.050781 555.792969 L 298.050781 570.042969 L 283.800781 570.042969 Z M 283.800781 555.792969 " clip-rule="nonzero"/></clipPath><clipPath id="b4aa42567b"><path d="M 283.800781 141.714844 L 299.550781 141.714844 L 299.550781 157.464844 L 283.800781 157.464844 Z M 283.800781 141.714844 " clip-rule="nonzero"/></clipPath><clipPath id="4bfa5459ce"><path d="M 377.792969 143.476562 L 390.542969 143.476562 L 390.542969 156 L 377.792969 156 Z M 377.792969 143.476562 " clip-rule="nonzero"/></clipPath><clipPath id="30bd43d31a"><path d="M 101.066406 159.679688 L 697.359375 159.679688 L 697.359375 201.609375 L 101.066406 201.609375 Z M 101.066406 159.679688 " clip-rule="nonzero"/></clipPath><clipPath id="338ce0e96f"><path d="M 261.914062 167.214844 L 506.414062 167.214844 L 506.414062 194.214844 L 261.914062 194.214844 Z M 261.914062 167.214844 " clip-rule="nonzero"/></clipPath><clipPath id="24ebf16658"><path d="M 106.601562 170.472656 L 126.949219 170.472656 L 126.949219 190.820312 L 106.601562 190.820312 Z M 106.601562 170.472656 " clip-rule="nonzero"/></clipPath><clipPath id="91147f7725"><path d="M 116.773438 170.472656 C 111.15625 170.472656 106.601562 175.027344 106.601562 180.644531 C 106.601562 186.261719 111.15625 190.820312 116.773438 190.820312 C 122.394531 190.820312 126.949219 186.261719 126.949219 180.644531 C 126.949219 175.027344 122.394531 170.472656 116.773438 170.472656 Z M 116.773438 170.472656 " clip-rule="nonzero"/></clipPath><clipPath id="1839a0cfbe"><path d="M 137.449219 170.472656 L 157.796875 170.472656 L 157.796875 190.820312 L 137.449219 190.820312 Z M 137.449219 170.472656 " clip-rule="nonzero"/></clipPath><clipPath id="a0ab8fb459"><path d="M 147.621094 170.472656 C 142.003906 170.472656 137.449219 175.027344 137.449219 180.644531 C 137.449219 186.261719 142.003906 190.820312 147.621094 190.820312 C 153.242188 190.820312 157.796875 186.261719 157.796875 180.644531 C 157.796875 175.027344 153.242188 170.472656 147.621094 170.472656 Z M 147.621094 170.472656 " clip-rule="nonzero"/></clipPath><clipPath id="f1e1f4a846"><path d="M 168.347656 170.472656 L 188.695312 170.472656 L 188.695312 190.820312 L 168.347656 190.820312 Z M 168.347656 170.472656 " clip-rule="nonzero"/></clipPath><clipPath id="3b79d6fef1"><path d="M 178.519531 170.472656 C 172.902344 170.472656 168.347656 175.027344 168.347656 180.644531 C 168.347656 186.261719 172.902344 190.820312 178.519531 190.820312 C 184.140625 190.820312 188.695312 186.261719 188.695312 180.644531 C 188.695312 175.027344 184.140625 170.472656 178.519531 170.472656 Z M 178.519531 170.472656 " clip-rule="nonzero"/></clipPath><clipPath id="299d79523d"><path d="M 183.96875 252.996094 L 192 252.996094 L 192 267.058594 L 183.96875 267.058594 Z M 183.96875 252.996094 " clip-rule="nonzero"/></clipPath><clipPath id="9345d9d5b5"><path d="M 201.757812 253 L 207.757812 253 L 207.757812 267.246094 L 201.757812 267.246094 Z M 201.757812 253 " clip-rule="nonzero"/></clipPath><clipPath id="7379bfe49f"><path d="M 217.355469 252.996094 L 225.519531 252.996094 L 225.519531 267.058594 L 217.355469 267.058594 Z M 217.355469 252.996094 " clip-rule="nonzero"/></clipPath><clipPath id="43723d6ee6"><path d="M 165.804688 250.519531 L 170.125 250.519531 L 170.125 312.816406 L 165.804688 312.816406 Z M 165.804688 250.519531 " clip-rule="nonzero"/></clipPath><clipPath id="799bb7079c"><path d="M 146.507812 256.671875 L 153.285156 256.671875 L 153.285156 263.386719 L 146.507812 263.386719 Z M 146.507812 256.671875 " clip-rule="nonzero"/></clipPath><clipPath id="894bcfdc76"><path d="M 146.507812 273.171875 L 153.285156 273.171875 L 153.285156 279.886719 L 146.507812 279.886719 Z M 146.507812 273.171875 " clip-rule="nonzero"/></clipPath><clipPath id="59f7f3eace"><path d="M 146.507812 289.410156 L 153.285156 289.410156 L 153.285156 296.125 L 146.507812 296.125 Z M 146.507812 289.410156 " clip-rule="nonzero"/></clipPath><clipPath id="3ec789a68a"><path d="M 146.507812 305.574219 L 153.285156 305.574219 L 153.285156 312.289062 L 146.507812 312.289062 Z M 146.507812 305.574219 " clip-rule="nonzero"/></clipPath><clipPath id="fd0eaf18ff"><path d="M 176.308594 273.171875 L 212.367188 273.171875 L 212.367188 279.886719 L 176.308594 279.886719 Z M 176.308594 273.171875 " clip-rule="nonzero"/></clipPath><clipPath id="a3ccb6571c"><path d="M 183.933594 289.183594 L 244.289062 289.183594 L 244.289062 296.351562 L 183.933594 296.351562 Z M 183.933594 289.183594 " clip-rule="nonzero"/></clipPath><clipPath id="347af38310"><path d="M 219.269531 273.171875 L 238.128906 273.171875 L 238.128906 279.886719 L 219.269531 279.886719 Z M 219.269531 273.171875 " clip-rule="nonzero"/></clipPath><clipPath id="7a33f3578e"><path d="M 183.933594 305.351562 L 289.289062 305.351562 L 289.289062 312.515625 L 183.933594 312.515625 Z M 183.933594 305.351562 " clip-rule="nonzero"/></clipPath><clipPath id="ef49d75a9b"><path d="M 290.90625 289.183594 L 350.214844 289.183594 L 350.214844 296.351562 L 290.90625 296.351562 Z M 290.90625 289.183594 " clip-rule="nonzero"/></clipPath><clipPath id="85b583cb1b"><path d="M 296.433594 305.351562 L 325.4375 305.351562 L 325.4375 312.515625 L 296.433594 312.515625 Z M 296.433594 305.351562 " clip-rule="nonzero"/></clipPath><clipPath id="504bbc12c4"><path d="M 331.625 305.648438 L 377.128906 305.648438 L 377.128906 312.816406 L 331.625 312.816406 Z M 331.625 305.648438 " clip-rule="nonzero"/></clipPath><clipPath id="a25a6bf228"><path d="M 251.746094 289.410156 L 283.453125 289.410156 L 283.453125 296.574219 L 251.746094 296.574219 Z M 251.746094 289.410156 " clip-rule="nonzero"/></clipPath><clipPath id="d2476470e4"><path d="M 188.097656 503.476562 L 196.308594 503.476562 L 196.308594 517.539062 L 188.097656 517.539062 Z M 188.097656 503.476562 " clip-rule="nonzero"/></clipPath><clipPath id="b08b3149bf"><path d="M 205.882812 503.476562 L 211.882812 503.476562 L 211.882812 517.726562 L 205.882812 517.726562 Z M 205.882812 503.476562 " clip-rule="nonzero"/></clipPath><clipPath id="b8a6418763"><path d="M 221.484375 503.476562 L 229.648438 503.476562 L 229.648438 517.539062 L 221.484375 517.539062 Z M 221.484375 503.476562 " clip-rule="nonzero"/></clipPath><clipPath id="bf668eac4a"><path d="M 168.40625 454.25 L 172.726562 454.25 L 172.726562 516.542969 L 168.40625 516.542969 Z M 168.40625 454.25 " clip-rule="nonzero"/></clipPath><clipPath id="e17183044e"><path d="M 147.648438 455.550781 L 154.425781 455.550781 L 154.425781 462.265625 L 147.648438 462.265625 Z M 147.648438 455.550781 " clip-rule="nonzero"/></clipPath><clipPath id="6f2682c5cc"><path d="M 147.648438 472.371094 L 154.425781 472.371094 L 154.425781 479.085938 L 147.648438 479.085938 Z M 147.648438 472.371094 " clip-rule="nonzero"/></clipPath><clipPath id="9a35cbdc36"><path d="M 147.648438 490.089844 L 154.425781 490.089844 L 154.425781 496.804688 L 147.648438 496.804688 Z M 147.648438 490.089844 " clip-rule="nonzero"/></clipPath><clipPath id="0aca5a4e60"><path d="M 178.242188 490.089844 L 205.882812 490.089844 L 205.882812 496.804688 L 178.242188 496.804688 Z M 178.242188 490.089844 " clip-rule="nonzero"/></clipPath><clipPath id="71bf5754d3"><path d="M 186.976562 472.371094 L 214.964844 472.371094 L 214.964844 479.8125 L 186.976562 479.8125 Z M 186.976562 472.371094 " clip-rule="nonzero"/></clipPath><clipPath id="92851f18fa"><path d="M 222.921875 472.648438 L 353.28125 472.648438 L 353.28125 479.8125 L 222.921875 479.8125 Z M 222.921875 472.648438 " clip-rule="nonzero"/></clipPath><clipPath id="0d3add03d3"><path d="M 188.058594 455.550781 L 244.054688 455.550781 L 244.054688 462.714844 L 188.058594 462.714844 Z M 188.058594 455.550781 " clip-rule="nonzero"/></clipPath><clipPath id="d97d0bb273"><path d="M 251.164062 455.550781 L 344.671875 455.550781 L 344.671875 462.714844 L 251.164062 462.714844 Z M 251.164062 455.550781 " clip-rule="nonzero"/></clipPath><clipPath id="398e2352b2"><path d="M 352.488281 455.550781 L 368.648438 455.550781 L 368.648438 462.265625 L 352.488281 462.265625 Z M 352.488281 455.550781 " clip-rule="nonzero"/></clipPath></defs><g clip-path="url(#14dba90643)"><path fill="#262525" d="M 98.285156 159.679688 L 701.105469 159.679688 L 701.105469 552.359375 L 98.285156 552.359375 Z M 98.285156 159.679688 " fill-opacity="1" fill-rule="nonzero"/></g><g clip-path="url(#676093444e)"><path fill="#1a1a1a" d="M 101.976562 139.1875 C 89.902344 139.1875 80.175781 148.707031 80.175781 160.527344 L 80.175781 550.902344 C 80.175781 562.144531 78.59375 571.300781 88.824219 572.171875 L 17.175781 572.171875 C 8.695312 572.171875 13.03125 578.78125 13.03125 586.992188 L 13.03125 596.871094 C 13.03125 605.082031 19.859375 611.691406 28.335938 611.691406 L 770.644531 611.691406 C 779.125 611.691406 785.953125 605.082031 785.953125 596.871094 L 785.953125 586.992188 C 785.953125 578.78125 790.289062 572.171875 781.808594 572.171875 L 710.160156 572.171875 C 720.390625 571.300781 718.804688 562.144531 718.804688 550.902344 L 718.804688 160.527344 C 718.804688 148.707031 709.082031 139.1875 697.003906 139.1875 Z M 290.332031 144.363281 C 293.429688 144.363281 295.941406 146.824219 295.941406 149.855469 C 295.941406 152.890625 293.429688 155.351562 290.332031 155.351562 C 287.230469 155.351562 284.71875 152.890625 284.71875 149.855469 C 284.71875 146.824219 287.230469 144.363281 290.332031 144.363281 Z M 101.449219 160.570312 L 697.539062 160.570312 L 697.539062 550.855469 L 101.449219 550.855469 Z M 302.585938 572.242188 L 496.398438 572.242188 C 496.109375 576.375 493.238281 579.597656 489.707031 579.597656 L 309.277344 579.597656 C 305.75 579.597656 302.875 576.375 302.585938 572.242188 Z M 696.105469 583.929688 C 700.671875 583.929688 704.371094 587.515625 704.371094 591.933594 C 704.371094 596.355469 700.671875 599.9375 696.105469 599.9375 C 691.542969 599.9375 687.839844 596.355469 687.839844 591.933594 C 687.839844 587.515625 691.542969 583.929688 696.105469 583.929688 Z M 722.171875 583.929688 C 726.738281 583.929688 730.4375 587.515625 730.4375 591.933594 C 730.4375 596.355469 726.738281 599.9375 722.171875 599.9375 C 717.609375 599.9375 713.910156 596.355469 713.910156 591.933594 C 713.910156 587.515625 717.609375 583.929688 722.171875 583.929688 Z M 748.242188 583.929688 C 752.804688 583.929688 756.503906 587.515625 756.503906 591.933594 C 756.503906 596.355469 752.804688 599.9375 748.242188 599.9375 C 743.675781 599.9375 739.976562 596.355469 739.976562 591.933594 C 739.976562 587.515625 743.675781 583.929688 748.242188 583.929688 Z M 46.015625 589.230469 L 89.382812 589.230469 C 91.5 589.230469 93.207031 590.4375 93.207031 591.933594 C 93.207031 593.429688 91.5 594.636719 89.382812 594.636719 L 46.015625 594.636719 C 43.894531 594.636719 42.1875 593.429688 42.1875 591.933594 C 42.1875 590.4375 43.894531 589.230469 46.015625 589.230469 Z M 46.015625 589.230469 " fill-opacity="1" fill-rule="nonzero"/></g><g clip-path="url(#100089391c)"><path fill="#009ddc" d="M 132.195312 383.996094 L 189.855469 326.332031 L 202.542969 339.019531 L 157.566406 383.996094 L 202.542969 428.972656 L 189.855469 441.65625 Z M 132.195312 383.996094 " fill-opacity="1" fill-rule="nonzero"/></g><g clip-path="url(#64f9b8043c)"><path fill="#009ddc" d="M 667.542969 382.953125 L 608.835938 441.660156 L 595.921875 428.746094 L 641.710938 382.953125 L 595.921875 337.164062 L 608.835938 324.25 Z M 667.542969 382.953125 " fill-opacity="1" fill-rule="nonzero"/></g><g clip-path="url(#3a253ee26a)"><path fill="#1a1a1a" d="M 101.976562 573.429688 C 89.902344 573.429688 80.175781 563.910156 80.175781 552.089844 L 80.175781 161.71875 C 80.175781 150.476562 78.59375 141.316406 88.824219 140.445312 L 17.175781 140.445312 C 8.695312 140.445312 13.03125 133.835938 13.03125 125.625 L 13.03125 115.746094 C 13.03125 107.535156 19.859375 100.925781 28.335938 100.925781 L 770.644531 100.925781 C 779.125 100.925781 785.953125 107.535156 785.953125 115.746094 L 785.953125 125.625 C 785.953125 133.835938 790.289062 140.445312 781.808594 140.445312 L 710.160156 140.445312 C 720.390625 141.316406 718.804688 150.476562 718.804688 161.71875 L 718.804688 552.089844 C 718.804688 563.910156 709.082031 573.429688 697.003906 573.429688 Z M 290.332031 568.253906 C 293.429688 568.253906 295.945312 565.796875 295.945312 562.761719 C 295.945312 559.726562 293.429688 557.269531 290.332031 557.269531 C 287.230469 557.269531 284.71875 559.726562 284.71875 562.761719 C 284.71875 565.796875 287.230469 568.253906 290.332031 568.253906 Z M 101.449219 552.050781 L 697.539062 552.050781 L 697.539062 161.761719 L 101.449219 161.761719 Z M 302.585938 140.378906 L 496.398438 140.378906 C 496.109375 136.246094 493.238281 133.019531 489.707031 133.019531 L 309.277344 133.019531 C 305.75 133.019531 302.875 136.246094 302.585938 140.378906 Z M 696.105469 128.6875 C 700.671875 128.6875 704.371094 125.105469 704.371094 120.683594 C 704.371094 116.265625 700.671875 112.679688 696.105469 112.679688 C 691.542969 112.679688 687.839844 116.265625 687.839844 120.683594 C 687.839844 125.105469 691.542969 128.6875 696.105469 128.6875 Z M 722.171875 128.6875 C 726.738281 128.6875 730.4375 125.105469 730.4375 120.683594 C 730.4375 116.265625 726.738281 112.679688 722.171875 112.679688 C 717.609375 112.679688 713.910156 116.265625 713.910156 120.683594 C 713.910156 125.105469 717.609375 128.6875 722.171875 128.6875 Z M 748.242188 128.6875 C 752.804688 128.6875 756.503906 125.105469 756.503906 120.683594 C 756.503906 116.265625 752.804688 112.679688 748.242188 112.679688 C 743.675781 112.679688 739.976562 116.265625 739.976562 120.683594 C 739.976562 125.105469 743.675781 128.6875 748.242188 128.6875 Z M 46.015625 123.386719 L 89.382812 123.386719 C 91.5 123.386719 93.207031 122.179688 93.207031 120.683594 C 93.207031 119.1875 91.5 117.980469 89.382812 117.980469 L 46.015625 117.980469 C 43.894531 117.980469 42.1875 119.1875 42.1875 120.683594 C 42.1875 122.179688 43.894531 123.386719 46.015625 123.386719 Z M 46.015625 123.386719 " fill-opacity="1" fill-rule="nonzero"/></g><g clip-path="url(#9ab42ef0a0)"><path fill="#1a1a1a" d="M 298.015625 562.898438 C 298.015625 563.363281 297.96875 563.828125 297.878906 564.285156 C 297.785156 564.742188 297.652344 565.1875 297.472656 565.617188 C 297.292969 566.050781 297.074219 566.460938 296.816406 566.847656 C 296.558594 567.234375 296.261719 567.59375 295.933594 567.925781 C 295.601562 568.253906 295.242188 568.546875 294.855469 568.808594 C 294.46875 569.066406 294.058594 569.285156 293.625 569.464844 C 293.195312 569.644531 292.75 569.777344 292.292969 569.871094 C 291.835938 569.960938 291.375 570.007812 290.90625 570.007812 C 290.441406 570.007812 289.976562 569.960938 289.519531 569.871094 C 289.0625 569.777344 288.617188 569.644531 288.1875 569.464844 C 287.753906 569.285156 287.347656 569.066406 286.957031 568.808594 C 286.570312 568.546875 286.210938 568.253906 285.878906 567.925781 C 285.550781 567.59375 285.257812 567.234375 284.996094 566.847656 C 284.738281 566.460938 284.519531 566.050781 284.339844 565.617188 C 284.160156 565.1875 284.027344 564.742188 283.9375 564.285156 C 283.84375 563.828125 283.800781 563.363281 283.800781 562.898438 C 283.800781 562.433594 283.84375 561.96875 283.9375 561.511719 C 284.027344 561.054688 284.160156 560.609375 284.339844 560.179688 C 284.519531 559.746094 284.738281 559.335938 284.996094 558.949219 C 285.257812 558.5625 285.550781 558.203125 285.878906 557.871094 C 286.210938 557.542969 286.570312 557.25 286.957031 556.988281 C 287.347656 556.730469 287.753906 556.511719 288.1875 556.332031 C 288.617188 556.152344 289.0625 556.019531 289.519531 555.925781 C 289.976562 555.835938 290.441406 555.792969 290.90625 555.792969 C 291.375 555.792969 291.835938 555.835938 292.292969 555.925781 C 292.75 556.019531 293.195312 556.152344 293.625 556.332031 C 294.058594 556.511719 294.46875 556.730469 294.855469 556.988281 C 295.242188 557.25 295.601562 557.542969 295.933594 557.871094 C 296.261719 558.203125 296.558594 558.5625 296.816406 558.949219 C 297.074219 559.335938 297.292969 559.746094 297.472656 560.179688 C 297.652344 560.609375 297.785156 561.054688 297.878906 561.511719 C 297.96875 561.96875 298.015625 562.433594 298.015625 562.898438 Z M 298.015625 562.898438 " fill-opacity="1" fill-rule="nonzero"/></g><g clip-path="url(#b4aa42567b)"><path fill="#1a1a1a" d="M 299.738281 149.683594 C 299.738281 150.207031 299.6875 150.722656 299.582031 151.238281 C 299.480469 151.75 299.332031 152.25 299.128906 152.730469 C 298.929688 153.214844 298.683594 153.675781 298.394531 154.109375 C 298.101562 154.542969 297.773438 154.945312 297.402344 155.316406 C 297.03125 155.6875 296.628906 156.015625 296.195312 156.308594 C 295.761719 156.597656 295.300781 156.84375 294.816406 157.042969 C 294.332031 157.246094 293.835938 157.394531 293.324219 157.496094 C 292.808594 157.601562 292.292969 157.652344 291.769531 157.652344 C 291.246094 157.652344 290.726562 157.601562 290.214844 157.496094 C 289.699219 157.394531 289.203125 157.246094 288.71875 157.042969 C 288.234375 156.84375 287.777344 156.597656 287.339844 156.308594 C 286.90625 156.015625 286.503906 155.6875 286.132812 155.316406 C 285.761719 154.945312 285.433594 154.542969 285.140625 154.109375 C 284.851562 153.675781 284.605469 153.214844 284.40625 152.730469 C 284.207031 152.25 284.054688 151.75 283.953125 151.238281 C 283.851562 150.722656 283.800781 150.207031 283.800781 149.683594 C 283.800781 149.160156 283.851562 148.640625 283.953125 148.128906 C 284.054688 147.613281 284.207031 147.117188 284.40625 146.632812 C 284.605469 146.148438 284.851562 145.691406 285.140625 145.253906 C 285.433594 144.820312 285.761719 144.417969 286.132812 144.046875 C 286.503906 143.675781 286.90625 143.347656 287.339844 143.054688 C 287.777344 142.765625 288.234375 142.519531 288.71875 142.320312 C 289.203125 142.121094 289.699219 141.96875 290.214844 141.867188 C 290.726562 141.765625 291.246094 141.714844 291.769531 141.714844 C 292.292969 141.714844 292.808594 141.765625 293.324219 141.867188 C 293.835938 141.96875 294.332031 142.121094 294.816406 142.320312 C 295.300781 142.519531 295.761719 142.765625 296.195312 143.054688 C 296.628906 143.347656 297.03125 143.675781 297.402344 144.046875 C 297.773438 144.417969 298.101562 144.820312 298.394531 145.253906 C 298.683594 145.691406 298.929688 146.148438 299.128906 146.632812 C 299.332031 147.117188 299.480469 147.613281 299.582031 148.128906 C 299.6875 148.640625 299.738281 149.160156 299.738281 149.683594 Z M 299.738281 149.683594 " fill-opacity="1" fill-rule="nonzero"/></g><g clip-path="url(#4bfa5459ce)"><path fill="#d9d9d9" d="M 390.203125 149.679688 C 390.203125 150.089844 390.160156 150.492188 390.082031 150.890625 C 390.003906 151.292969 389.886719 151.679688 389.730469 152.054688 C 389.574219 152.433594 389.382812 152.789062 389.15625 153.128906 C 388.929688 153.46875 388.671875 153.78125 388.382812 154.070312 C 388.097656 154.355469 387.78125 154.613281 387.445312 154.839844 C 387.105469 155.066406 386.746094 155.257812 386.371094 155.414062 C 385.996094 155.570312 385.605469 155.6875 385.207031 155.765625 C 384.808594 155.847656 384.402344 155.886719 383.996094 155.886719 C 383.589844 155.886719 383.1875 155.847656 382.785156 155.765625 C 382.386719 155.6875 382 155.570312 381.621094 155.414062 C 381.246094 155.257812 380.886719 155.066406 380.550781 154.839844 C 380.210938 154.613281 379.898438 154.355469 379.609375 154.070312 C 379.320312 153.78125 379.0625 153.46875 378.835938 153.128906 C 378.609375 152.789062 378.417969 152.433594 378.265625 152.054688 C 378.109375 151.679688 377.988281 151.292969 377.910156 150.890625 C 377.832031 150.492188 377.792969 150.089844 377.792969 149.679688 C 377.792969 149.273438 377.832031 148.871094 377.910156 148.472656 C 377.988281 148.070312 378.109375 147.683594 378.265625 147.308594 C 378.417969 146.929688 378.609375 146.574219 378.835938 146.234375 C 379.0625 145.894531 379.320312 145.582031 379.609375 145.292969 C 379.898438 145.003906 380.210938 144.75 380.550781 144.523438 C 380.886719 144.296875 381.246094 144.105469 381.621094 143.949219 C 382 143.792969 382.386719 143.675781 382.785156 143.597656 C 383.1875 143.515625 383.589844 143.476562 383.996094 143.476562 C 384.402344 143.476562 384.808594 143.515625 385.207031 143.597656 C 385.605469 143.675781 385.996094 143.792969 386.371094 143.949219 C 386.746094 144.105469 387.105469 144.296875 387.445312 144.523438 C 387.78125 144.75 388.097656 145.003906 388.382812 145.292969 C 388.671875 145.582031 388.929688 145.894531 389.15625 146.234375 C 389.382812 146.574219 389.574219 146.929688 389.730469 147.308594 C 389.886719 147.683594 390.003906 148.070312 390.082031 148.472656 C 390.160156 148.871094 390.203125 149.273438 390.203125 149.679688 Z M 390.203125 149.679688 " fill-opacity="1" fill-rule="nonzero"/></g><g clip-path="url(#30bd43d31a)"><path fill="#2f434f" d="M 101.066406 159.679688 L 697.398438 159.679688 L 697.398438 201.609375 L 101.066406 201.609375 Z M 101.066406 159.679688 " fill-opacity="1" fill-rule="nonzero"/></g><path fill="#ffffff" d="M 492.996094 193.082031 L 275.335938 193.082031 C 268.558594 193.082031 263.007812 187.507812 263.007812 180.730469 C 263.007812 173.921875 268.558594 168.347656 275.335938 168.347656 L 492.992188 168.347656 C 499.773438 168.347656 505.320312 173.921875 505.320312 180.730469 C 505.292969 187.507812 499.746094 193.082031 492.996094 193.082031 Z M 492.996094 193.082031 " fill-opacity="0.3" fill-rule="nonzero"/><g clip-path="url(#338ce0e96f)"><path fill="#231f20" d="M 492.996094 194.179688 L 275.335938 194.179688 C 267.929688 194.179688 261.914062 188.140625 261.914062 180.730469 C 261.914062 173.316406 267.929688 167.25 275.335938 167.25 L 492.992188 167.25 C 500.402344 167.25 506.414062 173.289062 506.414062 180.730469 C 506.414062 188.167969 500.375 194.179688 492.996094 194.179688 Z M 275.335938 169.445312 C 269.132812 169.445312 264.101562 174.496094 264.101562 180.730469 C 264.101562 186.960938 269.132812 192.011719 275.335938 192.011719 L 492.992188 192.011719 C 499.171875 192.011719 504.226562 186.960938 504.226562 180.730469 C 504.226562 174.496094 499.171875 169.445312 492.996094 169.445312 Z M 275.335938 169.445312 " fill-opacity="1" fill-rule="nonzero"/></g><path fill="#231f20" d="M 282.359375 172.027344 C 278.644531 172.027344 275.609375 175.074219 275.609375 178.808594 C 275.609375 180.34375 276.128906 181.800781 277.003906 182.925781 L 272.082031 187.867188 C 271.726562 188.222656 271.726562 188.773438 272.082031 189.128906 C 272.4375 189.484375 272.984375 189.484375 273.339844 189.128906 L 278.261719 184.1875 C 279.410156 185.066406 280.828125 185.589844 282.359375 185.589844 C 286.078125 185.589844 289.113281 182.539062 289.113281 178.808594 C 289.113281 175.074219 286.078125 172.027344 282.359375 172.027344 Z M 282.359375 183.832031 C 279.601562 183.832031 277.386719 181.582031 277.386719 178.835938 C 277.386719 176.0625 279.628906 173.839844 282.359375 173.839844 C 285.121094 173.839844 287.335938 176.089844 287.335938 178.835938 C 287.363281 181.582031 285.121094 183.832031 282.359375 183.832031 Z M 282.359375 183.832031 " fill-opacity="1" fill-rule="nonzero"/><path fill="#231f20" d="M 295.34375 189.402344 C 295.042969 189.402344 294.796875 189.15625 294.796875 188.855469 L 294.796875 172.578125 C 294.796875 172.273438 295.042969 172.027344 295.34375 172.027344 C 295.644531 172.027344 295.890625 172.273438 295.890625 172.578125 L 295.890625 188.828125 C 295.890625 189.15625 295.644531 189.402344 295.34375 189.402344 Z M 295.34375 189.402344 " fill-opacity="1" fill-rule="nonzero"/><g clip-path="url(#24ebf16658)"><g clip-path="url(#91147f7725)"><path fill="#62c559" d="M 106.601562 170.472656 L 126.949219 170.472656 L 126.949219 190.820312 L 106.601562 190.820312 Z M 106.601562 170.472656 " fill-opacity="1" fill-rule="nonzero"/></g></g><g clip-path="url(#1839a0cfbe)"><g clip-path="url(#a0ab8fb459)"><path fill="#e9ce2c" d="M 137.449219 170.472656 L 157.796875 170.472656 L 157.796875 190.820312 L 137.449219 190.820312 Z M 137.449219 170.472656 " fill-opacity="1" fill-rule="nonzero"/></g></g><g clip-path="url(#f1e1f4a846)"><g clip-path="url(#3b79d6fef1)"><path fill="#bf211e" d="M 168.347656 170.472656 L 188.695312 170.472656 L 188.695312 190.820312 L 168.347656 190.820312 Z M 168.347656 170.472656 " fill-opacity="1" fill-rule="nonzero"/></g></g><g fill="#ffd83c" fill-opacity="0.4"><g transform="translate(213.89781, 416.169403)"><g><path d="M 11.671875 8.203125 C 11.671875 10.804688 12.921875 12.875 15.421875 14.40625 C 17.929688 15.9375 21.382812 16.703125 25.78125 16.703125 C 28.125 16.703125 30.25 16.414062 32.15625 15.84375 C 34.0625 15.269531 35.679688 14.535156 37.015625 13.640625 C 38.347656 12.753906 39.378906 11.707031 40.109375 10.5 C 40.847656 9.289062 41.21875 8.050781 41.21875 6.78125 C 41.21875 4.539062 40.378906 2.976562 38.703125 2.09375 C 37.023438 1.21875 34.585938 0.78125 31.390625 0.78125 L 23 0.78125 C 22.050781 0.78125 21.03125 0.726562 19.9375 0.625 C 18.851562 0.53125 17.773438 0.320312 16.703125 0 C 14.972656 1.269531 13.703125 2.601562 12.890625 4 C 12.078125 5.40625 11.671875 6.804688 11.671875 8.203125 Z M 4.5 9.28125 C 4.5 7.226562 5.128906 5.265625 6.390625 3.390625 C 7.660156 1.523438 9.390625 -0.171875 11.578125 -1.703125 L 11.578125 -2.09375 C 10.398438 -2.84375 9.390625 -3.859375 8.546875 -5.140625 C 7.703125 -6.429688 7.28125 -8.054688 7.28125 -10.015625 C 7.28125 -12.066406 7.847656 -13.851562 8.984375 -15.375 C 10.117188 -16.90625 11.320312 -18.113281 12.59375 -19 L 12.59375 -19.390625 C 11 -20.722656 9.550781 -22.503906 8.25 -24.734375 C 6.945312 -26.960938 6.296875 -29.554688 6.296875 -32.515625 C 6.296875 -35.191406 6.773438 -37.59375 7.734375 -39.71875 C 8.703125 -41.851562 10.019531 -43.664062 11.6875 -45.15625 C 13.363281 -46.65625 15.316406 -47.804688 17.546875 -48.609375 C 19.785156 -49.410156 22.140625 -49.8125 24.609375 -49.8125 C 25.941406 -49.8125 27.1875 -49.695312 28.34375 -49.46875 C 29.5 -49.238281 30.550781 -48.941406 31.5 -48.578125 L 48.390625 -48.578125 L 48.390625 -42.28125 L 38.375 -42.28125 C 39.519531 -41.144531 40.472656 -39.710938 41.234375 -37.984375 C 42.003906 -36.265625 42.390625 -34.378906 42.390625 -32.328125 C 42.390625 -29.722656 41.921875 -27.367188 40.984375 -25.265625 C 40.054688 -23.171875 38.796875 -21.40625 37.203125 -19.96875 C 35.609375 -18.539062 33.71875 -17.414062 31.53125 -16.59375 C 29.351562 -15.78125 27.046875 -15.375 24.609375 -15.375 C 23.398438 -15.375 22.160156 -15.53125 20.890625 -15.84375 C 19.628906 -16.15625 18.425781 -16.570312 17.28125 -17.09375 C 16.4375 -16.375 15.710938 -15.554688 15.109375 -14.640625 C 14.503906 -13.734375 14.203125 -12.613281 14.203125 -11.28125 C 14.203125 -9.75 14.796875 -8.484375 15.984375 -7.484375 C 17.179688 -6.492188 19.453125 -6 22.796875 -6 L 32.171875 -6 C 37.835938 -6 42.085938 -5.078125 44.921875 -3.234375 C 47.753906 -1.398438 49.171875 1.546875 49.171875 5.609375 C 49.171875 7.859375 48.609375 10 47.484375 12.03125 C 46.359375 14.070312 44.726562 15.851562 42.59375 17.375 C 40.46875 18.90625 37.882812 20.125 34.84375 21.03125 C 31.800781 21.945312 28.390625 22.40625 24.609375 22.40625 C 21.578125 22.40625 18.832031 22.117188 16.375 21.546875 C 13.925781 20.984375 11.8125 20.128906 10.03125 18.984375 C 8.257812 17.847656 6.894531 16.484375 5.9375 14.890625 C 4.976562 13.296875 4.5 11.425781 4.5 9.28125 Z M 24.609375 -20.90625 C 26.003906 -20.90625 27.3125 -21.171875 28.53125 -21.703125 C 29.757812 -22.242188 30.859375 -23.007812 31.828125 -24 C 32.804688 -24.988281 33.5625 -26.195312 34.09375 -27.625 C 34.632812 -29.0625 34.90625 -30.691406 34.90625 -32.515625 C 34.90625 -36.097656 33.90625 -38.875 31.90625 -40.84375 C 29.90625 -42.8125 27.472656 -43.796875 24.609375 -43.796875 C 21.742188 -43.796875 19.3125 -42.8125 17.3125 -40.84375 C 15.3125 -38.875 14.3125 -36.097656 14.3125 -32.515625 C 14.3125 -30.691406 14.570312 -29.0625 15.09375 -27.625 C 15.613281 -26.195312 16.359375 -24.988281 17.328125 -24 C 18.304688 -23.007812 19.414062 -22.242188 20.65625 -21.703125 C 21.894531 -21.171875 23.210938 -20.90625 24.609375 -20.90625 Z M 24.609375 -20.90625 "/></g></g></g><g fill="#ffd83c" fill-opacity="0.4"><g transform="translate(264.286464, 416.169403)"><g><path d="M 4.59375 -24.21875 C 4.59375 -28.1875 5.207031 -31.757812 6.4375 -34.9375 C 7.675781 -38.113281 9.3125 -40.800781 11.34375 -43 C 13.382812 -45.195312 15.695312 -46.878906 18.28125 -48.046875 C 20.875 -49.222656 23.570312 -49.8125 26.375 -49.8125 C 29.457031 -49.8125 32.210938 -49.269531 34.640625 -48.1875 C 37.066406 -47.113281 39.101562 -45.578125 40.75 -43.578125 C 42.394531 -41.578125 43.644531 -39.175781 44.5 -36.375 C 45.363281 -33.570312 45.796875 -30.445312 45.796875 -27 C 45.796875 -25.207031 45.703125 -23.710938 45.515625 -22.515625 L 12.703125 -22.515625 C 13.023438 -17.234375 14.632812 -13.0625 17.53125 -10 C 20.425781 -6.945312 24.21875 -5.421875 28.90625 -5.421875 C 31.21875 -5.421875 33.359375 -5.769531 35.328125 -6.46875 C 37.296875 -7.164062 39.175781 -8.070312 40.96875 -9.1875 L 43.890625 -3.8125 C 41.742188 -2.476562 39.375 -1.304688 36.78125 -0.296875 C 34.195312 0.710938 31.226562 1.21875 27.875 1.21875 C 24.625 1.21875 21.582031 0.632812 18.75 -0.53125 C 15.914062 -1.707031 13.445312 -3.378906 11.34375 -5.546875 C 9.25 -7.710938 7.597656 -10.363281 6.390625 -13.5 C 5.191406 -16.644531 4.59375 -20.21875 4.59375 -24.21875 Z M 38.578125 -27.875 C 38.578125 -32.894531 37.523438 -36.722656 35.421875 -39.359375 C 33.328125 -41.992188 30.390625 -43.3125 26.609375 -43.3125 C 24.847656 -43.3125 23.1875 -42.960938 21.625 -42.265625 C 20.0625 -41.566406 18.644531 -40.566406 17.375 -39.265625 C 16.113281 -37.960938 15.066406 -36.359375 14.234375 -34.453125 C 13.398438 -32.546875 12.851562 -30.351562 12.59375 -27.875 Z M 38.578125 -27.875 "/></g></g></g><g fill="#ffd83c" fill-opacity="0.4"><g transform="translate(313.845078, 416.169403)"><g><path d="M 4.59375 -24.21875 C 4.59375 -28.289062 5.207031 -31.90625 6.4375 -35.0625 C 7.675781 -38.21875 9.328125 -40.894531 11.390625 -43.09375 C 13.460938 -45.289062 15.847656 -46.957031 18.546875 -48.09375 C 21.253906 -49.238281 24.101562 -49.8125 27.09375 -49.8125 C 30.09375 -49.8125 32.941406 -49.238281 35.640625 -48.09375 C 38.347656 -46.957031 40.734375 -45.289062 42.796875 -43.09375 C 44.867188 -40.894531 46.519531 -38.21875 47.75 -35.0625 C 48.988281 -31.90625 49.609375 -28.289062 49.609375 -24.21875 C 49.609375 -20.21875 48.988281 -16.628906 47.75 -13.453125 C 46.519531 -10.273438 44.867188 -7.601562 42.796875 -5.4375 C 40.734375 -3.28125 38.347656 -1.628906 35.640625 -0.484375 C 32.941406 0.648438 30.09375 1.21875 27.09375 1.21875 C 24.101562 1.21875 21.253906 0.648438 18.546875 -0.484375 C 15.847656 -1.628906 13.460938 -3.28125 11.390625 -5.4375 C 9.328125 -7.601562 7.675781 -10.273438 6.4375 -13.453125 C 5.207031 -16.628906 4.59375 -20.21875 4.59375 -24.21875 Z M 13.09375 -24.21875 C 13.09375 -21.414062 13.425781 -18.875 14.09375 -16.59375 C 14.757812 -14.320312 15.707031 -12.367188 16.9375 -10.734375 C 18.175781 -9.109375 19.65625 -7.847656 21.375 -6.953125 C 23.101562 -6.054688 25.007812 -5.609375 27.09375 -5.609375 C 29.144531 -5.609375 31.039062 -6.054688 32.78125 -6.953125 C 34.53125 -7.847656 36.019531 -9.109375 37.25 -10.734375 C 38.488281 -12.367188 39.441406 -14.320312 40.109375 -16.59375 C 40.773438 -18.875 41.109375 -21.414062 41.109375 -24.21875 C 41.109375 -27.019531 40.773438 -29.566406 40.109375 -31.859375 C 39.441406 -34.148438 38.488281 -36.125 37.25 -37.78125 C 36.019531 -39.445312 34.53125 -40.734375 32.78125 -41.640625 C 31.039062 -42.554688 29.144531 -43.015625 27.09375 -43.015625 C 25.007812 -43.015625 23.101562 -42.554688 21.375 -41.640625 C 19.65625 -40.734375 18.175781 -39.445312 16.9375 -37.78125 C 15.707031 -36.125 14.757812 -34.148438 14.09375 -31.859375 C 13.425781 -29.566406 13.09375 -27.019531 13.09375 -24.21875 Z M 13.09375 -24.21875 "/></g></g></g><g fill="#ffd83c" fill-opacity="0.4"><g transform="translate(368.042177, 416.169403)"><g><path d="M 27.6875 -71 L 33.6875 -71 L 6.984375 16.015625 L 0.984375 16.015625 Z M 27.6875 -71 "/></g></g></g><g fill="#ffd83c" fill-opacity="0.4"><g transform="translate(403.001747, 416.169403)"><g><path d="M 8.15625 -71.1875 L 16.359375 -71.1875 L 16.359375 -51.8125 L 16.15625 -43.015625 C 18.34375 -44.941406 20.738281 -46.554688 23.34375 -47.859375 C 25.945312 -49.160156 28.613281 -49.8125 31.34375 -49.8125 C 34.46875 -49.8125 37.234375 -49.222656 39.640625 -48.046875 C 42.054688 -46.878906 44.078125 -45.210938 45.703125 -43.046875 C 47.328125 -40.878906 48.554688 -38.28125 49.390625 -35.25 C 50.222656 -32.226562 50.640625 -28.84375 50.640625 -25.09375 C 50.640625 -20.957031 50.078125 -17.253906 48.953125 -13.984375 C 47.828125 -10.710938 46.296875 -7.945312 44.359375 -5.6875 C 42.421875 -3.425781 40.179688 -1.707031 37.640625 -0.53125 C 35.109375 0.632812 32.441406 1.21875 29.640625 1.21875 C 27.390625 1.21875 25.046875 0.695312 22.609375 -0.34375 C 20.171875 -1.382812 17.890625 -2.863281 15.765625 -4.78125 L 15.484375 -4.78125 L 14.75 0 L 8.15625 0 Z M 16.359375 -10.796875 C 18.472656 -8.941406 20.578125 -7.628906 22.671875 -6.859375 C 24.773438 -6.097656 26.640625 -5.71875 28.265625 -5.71875 C 30.253906 -5.71875 32.101562 -6.164062 33.8125 -7.0625 C 35.519531 -7.957031 36.984375 -9.21875 38.203125 -10.84375 C 39.429688 -12.46875 40.394531 -14.484375 41.09375 -16.890625 C 41.789062 -19.304688 42.140625 -22.007812 42.140625 -25 C 42.140625 -27.664062 41.910156 -30.097656 41.453125 -32.296875 C 40.992188 -34.492188 40.242188 -36.375 39.203125 -37.9375 C 38.160156 -39.5 36.828125 -40.71875 35.203125 -41.59375 C 33.578125 -42.476562 31.625 -42.921875 29.34375 -42.921875 C 25.40625 -42.921875 21.078125 -40.707031 16.359375 -36.28125 Z M 16.359375 -10.796875 "/></g></g></g><g fill="#ffd83c" fill-opacity="0.4"><g transform="translate(458.468339, 416.169403)"><g><path d="M 4.59375 -24.21875 C 4.59375 -28.289062 5.207031 -31.90625 6.4375 -35.0625 C 7.675781 -38.21875 9.328125 -40.894531 11.390625 -43.09375 C 13.460938 -45.289062 15.847656 -46.957031 18.546875 -48.09375 C 21.253906 -49.238281 24.101562 -49.8125 27.09375 -49.8125 C 30.09375 -49.8125 32.941406 -49.238281 35.640625 -48.09375 C 38.347656 -46.957031 40.734375 -45.289062 42.796875 -43.09375 C 44.867188 -40.894531 46.519531 -38.21875 47.75 -35.0625 C 48.988281 -31.90625 49.609375 -28.289062 49.609375 -24.21875 C 49.609375 -20.21875 48.988281 -16.628906 47.75 -13.453125 C 46.519531 -10.273438 44.867188 -7.601562 42.796875 -5.4375 C 40.734375 -3.28125 38.347656 -1.628906 35.640625 -0.484375 C 32.941406 0.648438 30.09375 1.21875 27.09375 1.21875 C 24.101562 1.21875 21.253906 0.648438 18.546875 -0.484375 C 15.847656 -1.628906 13.460938 -3.28125 11.390625 -5.4375 C 9.328125 -7.601562 7.675781 -10.273438 6.4375 -13.453125 C 5.207031 -16.628906 4.59375 -20.21875 4.59375 -24.21875 Z M 13.09375 -24.21875 C 13.09375 -21.414062 13.425781 -18.875 14.09375 -16.59375 C 14.757812 -14.320312 15.707031 -12.367188 16.9375 -10.734375 C 18.175781 -9.109375 19.65625 -7.847656 21.375 -6.953125 C 23.101562 -6.054688 25.007812 -5.609375 27.09375 -5.609375 C 29.144531 -5.609375 31.039062 -6.054688 32.78125 -6.953125 C 34.53125 -7.847656 36.019531 -9.109375 37.25 -10.734375 C 38.488281 -12.367188 39.441406 -14.320312 40.109375 -16.59375 C 40.773438 -18.875 41.109375 -21.414062 41.109375 -24.21875 C 41.109375 -27.019531 40.773438 -29.566406 40.109375 -31.859375 C 39.441406 -34.148438 38.488281 -36.125 37.25 -37.78125 C 36.019531 -39.445312 34.53125 -40.734375 32.78125 -41.640625 C 31.039062 -42.554688 29.144531 -43.015625 27.09375 -43.015625 C 25.007812 -43.015625 23.101562 -42.554688 21.375 -41.640625 C 19.65625 -40.734375 18.175781 -39.445312 16.9375 -37.78125 C 15.707031 -36.125 14.757812 -34.148438 14.09375 -31.859375 C 13.425781 -29.566406 13.09375 -27.019531 13.09375 -24.21875 Z M 13.09375 -24.21875 "/></g></g></g><g fill="#ffd83c" fill-opacity="0.4"><g transform="translate(512.665449, 416.169403)"><g><path d="M 8.15625 -71.1875 L 16.359375 -71.1875 L 16.359375 -9.1875 C 16.359375 -7.84375 16.59375 -6.910156 17.0625 -6.390625 C 17.539062 -5.867188 18.070312 -5.609375 18.65625 -5.609375 C 18.914062 -5.609375 19.164062 -5.609375 19.40625 -5.609375 C 19.65625 -5.609375 20.003906 -5.675781 20.453125 -5.8125 L 21.53125 0.390625 C 21.007812 0.648438 20.382812 0.851562 19.65625 1 C 18.925781 1.144531 17.988281 1.21875 16.84375 1.21875 C 13.71875 1.21875 11.488281 0.285156 10.15625 -1.578125 C 8.820312 -3.453125 8.15625 -6.195312 8.15625 -9.8125 Z M 8.15625 -71.1875 "/></g></g></g><g fill="#ffd83c" fill-opacity="0.4"><g transform="translate(538.152722, 416.169403)"><g><path d="M 4.6875 -24.21875 C 4.6875 -28.125 5.269531 -31.660156 6.4375 -34.828125 C 7.613281 -38.003906 9.160156 -40.691406 11.078125 -42.890625 C 13.003906 -45.085938 15.234375 -46.789062 17.765625 -48 C 20.304688 -49.207031 22.976562 -49.8125 25.78125 -49.8125 C 28.582031 -49.8125 31.015625 -49.304688 33.078125 -48.296875 C 35.148438 -47.285156 37.257812 -45.914062 39.40625 -44.1875 L 38.96875 -52.484375 L 38.96875 -71.1875 L 47.265625 -71.1875 L 47.265625 0 L 40.484375 0 L 39.796875 -5.71875 L 39.5 -5.71875 C 37.550781 -3.820312 35.332031 -2.191406 32.84375 -0.828125 C 30.351562 0.535156 27.675781 1.21875 24.8125 1.21875 C 18.65625 1.21875 13.757812 -0.984375 10.125 -5.390625 C 6.5 -9.804688 4.6875 -16.082031 4.6875 -24.21875 Z M 13.1875 -24.3125 C 13.1875 -18.425781 14.347656 -13.851562 16.671875 -10.59375 C 19.003906 -7.34375 22.316406 -5.71875 26.609375 -5.71875 C 28.859375 -5.71875 30.984375 -6.257812 32.984375 -7.34375 C 34.984375 -8.4375 36.976562 -10.125 38.96875 -12.40625 L 38.96875 -37.796875 C 36.914062 -39.648438 34.9375 -40.96875 33.03125 -41.75 C 31.125 -42.53125 29.179688 -42.921875 27.203125 -42.921875 C 25.242188 -42.921875 23.414062 -42.460938 21.71875 -41.546875 C 20.03125 -40.640625 18.550781 -39.367188 17.28125 -37.734375 C 16.007812 -36.109375 15.007812 -34.164062 14.28125 -31.90625 C 13.550781 -29.644531 13.1875 -27.113281 13.1875 -24.3125 Z M 13.1875 -24.3125 "/></g></g></g><g fill="#f08700" fill-opacity="1"><g transform="translate(209.478405, 411.75)"><g><path d="M 11.671875 8.203125 C 11.671875 10.804688 12.921875 12.875 15.421875 14.40625 C 17.929688 15.9375 21.382812 16.703125 25.78125 16.703125 C 28.125 16.703125 30.25 16.414062 32.15625 15.84375 C 34.0625 15.269531 35.679688 14.535156 37.015625 13.640625 C 38.347656 12.753906 39.378906 11.707031 40.109375 10.5 C 40.847656 9.289062 41.21875 8.050781 41.21875 6.78125 C 41.21875 4.539062 40.378906 2.976562 38.703125 2.09375 C 37.023438 1.21875 34.585938 0.78125 31.390625 0.78125 L 23 0.78125 C 22.050781 0.78125 21.03125 0.726562 19.9375 0.625 C 18.851562 0.53125 17.773438 0.320312 16.703125 0 C 14.972656 1.269531 13.703125 2.601562 12.890625 4 C 12.078125 5.40625 11.671875 6.804688 11.671875 8.203125 Z M 4.5 9.28125 C 4.5 7.226562 5.128906 5.265625 6.390625 3.390625 C 7.660156 1.523438 9.390625 -0.171875 11.578125 -1.703125 L 11.578125 -2.09375 C 10.398438 -2.84375 9.390625 -3.859375 8.546875 -5.140625 C 7.703125 -6.429688 7.28125 -8.054688 7.28125 -10.015625 C 7.28125 -12.066406 7.847656 -13.851562 8.984375 -15.375 C 10.117188 -16.90625 11.320312 -18.113281 12.59375 -19 L 12.59375 -19.390625 C 11 -20.722656 9.550781 -22.503906 8.25 -24.734375 C 6.945312 -26.960938 6.296875 -29.554688 6.296875 -32.515625 C 6.296875 -35.191406 6.773438 -37.59375 7.734375 -39.71875 C 8.703125 -41.851562 10.019531 -43.664062 11.6875 -45.15625 C 13.363281 -46.65625 15.316406 -47.804688 17.546875 -48.609375 C 19.785156 -49.410156 22.140625 -49.8125 24.609375 -49.8125 C 25.941406 -49.8125 27.1875 -49.695312 28.34375 -49.46875 C 29.5 -49.238281 30.550781 -48.941406 31.5 -48.578125 L 48.390625 -48.578125 L 48.390625 -42.28125 L 38.375 -42.28125 C 39.519531 -41.144531 40.472656 -39.710938 41.234375 -37.984375 C 42.003906 -36.265625 42.390625 -34.378906 42.390625 -32.328125 C 42.390625 -29.722656 41.921875 -27.367188 40.984375 -25.265625 C 40.054688 -23.171875 38.796875 -21.40625 37.203125 -19.96875 C 35.609375 -18.539062 33.71875 -17.414062 31.53125 -16.59375 C 29.351562 -15.78125 27.046875 -15.375 24.609375 -15.375 C 23.398438 -15.375 22.160156 -15.53125 20.890625 -15.84375 C 19.628906 -16.15625 18.425781 -16.570312 17.28125 -17.09375 C 16.4375 -16.375 15.710938 -15.554688 15.109375 -14.640625 C 14.503906 -13.734375 14.203125 -12.613281 14.203125 -11.28125 C 14.203125 -9.75 14.796875 -8.484375 15.984375 -7.484375 C 17.179688 -6.492188 19.453125 -6 22.796875 -6 L 32.171875 -6 C 37.835938 -6 42.085938 -5.078125 44.921875 -3.234375 C 47.753906 -1.398438 49.171875 1.546875 49.171875 5.609375 C 49.171875 7.859375 48.609375 10 47.484375 12.03125 C 46.359375 14.070312 44.726562 15.851562 42.59375 17.375 C 40.46875 18.90625 37.882812 20.125 34.84375 21.03125 C 31.800781 21.945312 28.390625 22.40625 24.609375 22.40625 C 21.578125 22.40625 18.832031 22.117188 16.375 21.546875 C 13.925781 20.984375 11.8125 20.128906 10.03125 18.984375 C 8.257812 17.847656 6.894531 16.484375 5.9375 14.890625 C 4.976562 13.296875 4.5 11.425781 4.5 9.28125 Z M 24.609375 -20.90625 C 26.003906 -20.90625 27.3125 -21.171875 28.53125 -21.703125 C 29.757812 -22.242188 30.859375 -23.007812 31.828125 -24 C 32.804688 -24.988281 33.5625 -26.195312 34.09375 -27.625 C 34.632812 -29.0625 34.90625 -30.691406 34.90625 -32.515625 C 34.90625 -36.097656 33.90625 -38.875 31.90625 -40.84375 C 29.90625 -42.8125 27.472656 -43.796875 24.609375 -43.796875 C 21.742188 -43.796875 19.3125 -42.8125 17.3125 -40.84375 C 15.3125 -38.875 14.3125 -36.097656 14.3125 -32.515625 C 14.3125 -30.691406 14.570312 -29.0625 15.09375 -27.625 C 15.613281 -26.195312 16.359375 -24.988281 17.328125 -24 C 18.304688 -23.007812 19.414062 -22.242188 20.65625 -21.703125 C 21.894531 -21.171875 23.210938 -20.90625 24.609375 -20.90625 Z M 24.609375 -20.90625 "/></g></g></g><g fill="#f08700" fill-opacity="1"><g transform="translate(259.867058, 411.75)"><g><path d="M 4.59375 -24.21875 C 4.59375 -28.1875 5.207031 -31.757812 6.4375 -34.9375 C 7.675781 -38.113281 9.3125 -40.800781 11.34375 -43 C 13.382812 -45.195312 15.695312 -46.878906 18.28125 -48.046875 C 20.875 -49.222656 23.570312 -49.8125 26.375 -49.8125 C 29.457031 -49.8125 32.210938 -49.269531 34.640625 -48.1875 C 37.066406 -47.113281 39.101562 -45.578125 40.75 -43.578125 C 42.394531 -41.578125 43.644531 -39.175781 44.5 -36.375 C 45.363281 -33.570312 45.796875 -30.445312 45.796875 -27 C 45.796875 -25.207031 45.703125 -23.710938 45.515625 -22.515625 L 12.703125 -22.515625 C 13.023438 -17.234375 14.632812 -13.0625 17.53125 -10 C 20.425781 -6.945312 24.21875 -5.421875 28.90625 -5.421875 C 31.21875 -5.421875 33.359375 -5.769531 35.328125 -6.46875 C 37.296875 -7.164062 39.175781 -8.070312 40.96875 -9.1875 L 43.890625 -3.8125 C 41.742188 -2.476562 39.375 -1.304688 36.78125 -0.296875 C 34.195312 0.710938 31.226562 1.21875 27.875 1.21875 C 24.625 1.21875 21.582031 0.632812 18.75 -0.53125 C 15.914062 -1.707031 13.445312 -3.378906 11.34375 -5.546875 C 9.25 -7.710938 7.597656 -10.363281 6.390625 -13.5 C 5.191406 -16.644531 4.59375 -20.21875 4.59375 -24.21875 Z M 38.578125 -27.875 C 38.578125 -32.894531 37.523438 -36.722656 35.421875 -39.359375 C 33.328125 -41.992188 30.390625 -43.3125 26.609375 -43.3125 C 24.847656 -43.3125 23.1875 -42.960938 21.625 -42.265625 C 20.0625 -41.566406 18.644531 -40.566406 17.375 -39.265625 C 16.113281 -37.960938 15.066406 -36.359375 14.234375 -34.453125 C 13.398438 -32.546875 12.851562 -30.351562 12.59375 -27.875 Z M 38.578125 -27.875 "/></g></g></g><g fill="#f08700" fill-opacity="1"><g transform="translate(309.425673, 411.75)"><g><path d="M 4.59375 -24.21875 C 4.59375 -28.289062 5.207031 -31.90625 6.4375 -35.0625 C 7.675781 -38.21875 9.328125 -40.894531 11.390625 -43.09375 C 13.460938 -45.289062 15.847656 -46.957031 18.546875 -48.09375 C 21.253906 -49.238281 24.101562 -49.8125 27.09375 -49.8125 C 30.09375 -49.8125 32.941406 -49.238281 35.640625 -48.09375 C 38.347656 -46.957031 40.734375 -45.289062 42.796875 -43.09375 C 44.867188 -40.894531 46.519531 -38.21875 47.75 -35.0625 C 48.988281 -31.90625 49.609375 -28.289062 49.609375 -24.21875 C 49.609375 -20.21875 48.988281 -16.628906 47.75 -13.453125 C 46.519531 -10.273438 44.867188 -7.601562 42.796875 -5.4375 C 40.734375 -3.28125 38.347656 -1.628906 35.640625 -0.484375 C 32.941406 0.648438 30.09375 1.21875 27.09375 1.21875 C 24.101562 1.21875 21.253906 0.648438 18.546875 -0.484375 C 15.847656 -1.628906 13.460938 -3.28125 11.390625 -5.4375 C 9.328125 -7.601562 7.675781 -10.273438 6.4375 -13.453125 C 5.207031 -16.628906 4.59375 -20.21875 4.59375 -24.21875 Z M 13.09375 -24.21875 C 13.09375 -21.414062 13.425781 -18.875 14.09375 -16.59375 C 14.757812 -14.320312 15.707031 -12.367188 16.9375 -10.734375 C 18.175781 -9.109375 19.65625 -7.847656 21.375 -6.953125 C 23.101562 -6.054688 25.007812 -5.609375 27.09375 -5.609375 C 29.144531 -5.609375 31.039062 -6.054688 32.78125 -6.953125 C 34.53125 -7.847656 36.019531 -9.109375 37.25 -10.734375 C 38.488281 -12.367188 39.441406 -14.320312 40.109375 -16.59375 C 40.773438 -18.875 41.109375 -21.414062 41.109375 -24.21875 C 41.109375 -27.019531 40.773438 -29.566406 40.109375 -31.859375 C 39.441406 -34.148438 38.488281 -36.125 37.25 -37.78125 C 36.019531 -39.445312 34.53125 -40.734375 32.78125 -41.640625 C 31.039062 -42.554688 29.144531 -43.015625 27.09375 -43.015625 C 25.007812 -43.015625 23.101562 -42.554688 21.375 -41.640625 C 19.65625 -40.734375 18.175781 -39.445312 16.9375 -37.78125 C 15.707031 -36.125 14.757812 -34.148438 14.09375 -31.859375 C 13.425781 -29.566406 13.09375 -27.019531 13.09375 -24.21875 Z M 13.09375 -24.21875 "/></g></g></g><g fill="#f08700" fill-opacity="1"><g transform="translate(363.622772, 411.75)"><g><path d="M 27.6875 -71 L 33.6875 -71 L 6.984375 16.015625 L 0.984375 16.015625 Z M 27.6875 -71 "/></g></g></g><g fill="#f08700" fill-opacity="1"><g transform="translate(398.582342, 411.75)"><g><path d="M 8.15625 -71.1875 L 16.359375 -71.1875 L 16.359375 -51.8125 L 16.15625 -43.015625 C 18.34375 -44.941406 20.738281 -46.554688 23.34375 -47.859375 C 25.945312 -49.160156 28.613281 -49.8125 31.34375 -49.8125 C 34.46875 -49.8125 37.234375 -49.222656 39.640625 -48.046875 C 42.054688 -46.878906 44.078125 -45.210938 45.703125 -43.046875 C 47.328125 -40.878906 48.554688 -38.28125 49.390625 -35.25 C 50.222656 -32.226562 50.640625 -28.84375 50.640625 -25.09375 C 50.640625 -20.957031 50.078125 -17.253906 48.953125 -13.984375 C 47.828125 -10.710938 46.296875 -7.945312 44.359375 -5.6875 C 42.421875 -3.425781 40.179688 -1.707031 37.640625 -0.53125 C 35.109375 0.632812 32.441406 1.21875 29.640625 1.21875 C 27.390625 1.21875 25.046875 0.695312 22.609375 -0.34375 C 20.171875 -1.382812 17.890625 -2.863281 15.765625 -4.78125 L 15.484375 -4.78125 L 14.75 0 L 8.15625 0 Z M 16.359375 -10.796875 C 18.472656 -8.941406 20.578125 -7.628906 22.671875 -6.859375 C 24.773438 -6.097656 26.640625 -5.71875 28.265625 -5.71875 C 30.253906 -5.71875 32.101562 -6.164062 33.8125 -7.0625 C 35.519531 -7.957031 36.984375 -9.21875 38.203125 -10.84375 C 39.429688 -12.46875 40.394531 -14.484375 41.09375 -16.890625 C 41.789062 -19.304688 42.140625 -22.007812 42.140625 -25 C 42.140625 -27.664062 41.910156 -30.097656 41.453125 -32.296875 C 40.992188 -34.492188 40.242188 -36.375 39.203125 -37.9375 C 38.160156 -39.5 36.828125 -40.71875 35.203125 -41.59375 C 33.578125 -42.476562 31.625 -42.921875 29.34375 -42.921875 C 25.40625 -42.921875 21.078125 -40.707031 16.359375 -36.28125 Z M 16.359375 -10.796875 "/></g></g></g><g fill="#f08700" fill-opacity="1"><g transform="translate(454.048934, 411.75)"><g><path d="M 4.59375 -24.21875 C 4.59375 -28.289062 5.207031 -31.90625 6.4375 -35.0625 C 7.675781 -38.21875 9.328125 -40.894531 11.390625 -43.09375 C 13.460938 -45.289062 15.847656 -46.957031 18.546875 -48.09375 C 21.253906 -49.238281 24.101562 -49.8125 27.09375 -49.8125 C 30.09375 -49.8125 32.941406 -49.238281 35.640625 -48.09375 C 38.347656 -46.957031 40.734375 -45.289062 42.796875 -43.09375 C 44.867188 -40.894531 46.519531 -38.21875 47.75 -35.0625 C 48.988281 -31.90625 49.609375 -28.289062 49.609375 -24.21875 C 49.609375 -20.21875 48.988281 -16.628906 47.75 -13.453125 C 46.519531 -10.273438 44.867188 -7.601562 42.796875 -5.4375 C 40.734375 -3.28125 38.347656 -1.628906 35.640625 -0.484375 C 32.941406 0.648438 30.09375 1.21875 27.09375 1.21875 C 24.101562 1.21875 21.253906 0.648438 18.546875 -0.484375 C 15.847656 -1.628906 13.460938 -3.28125 11.390625 -5.4375 C 9.328125 -7.601562 7.675781 -10.273438 6.4375 -13.453125 C 5.207031 -16.628906 4.59375 -20.21875 4.59375 -24.21875 Z M 13.09375 -24.21875 C 13.09375 -21.414062 13.425781 -18.875 14.09375 -16.59375 C 14.757812 -14.320312 15.707031 -12.367188 16.9375 -10.734375 C 18.175781 -9.109375 19.65625 -7.847656 21.375 -6.953125 C 23.101562 -6.054688 25.007812 -5.609375 27.09375 -5.609375 C 29.144531 -5.609375 31.039062 -6.054688 32.78125 -6.953125 C 34.53125 -7.847656 36.019531 -9.109375 37.25 -10.734375 C 38.488281 -12.367188 39.441406 -14.320312 40.109375 -16.59375 C 40.773438 -18.875 41.109375 -21.414062 41.109375 -24.21875 C 41.109375 -27.019531 40.773438 -29.566406 40.109375 -31.859375 C 39.441406 -34.148438 38.488281 -36.125 37.25 -37.78125 C 36.019531 -39.445312 34.53125 -40.734375 32.78125 -41.640625 C 31.039062 -42.554688 29.144531 -43.015625 27.09375 -43.015625 C 25.007812 -43.015625 23.101562 -42.554688 21.375 -41.640625 C 19.65625 -40.734375 18.175781 -39.445312 16.9375 -37.78125 C 15.707031 -36.125 14.757812 -34.148438 14.09375 -31.859375 C 13.425781 -29.566406 13.09375 -27.019531 13.09375 -24.21875 Z M 13.09375 -24.21875 "/></g></g></g><g fill="#f08700" fill-opacity="1"><g transform="translate(508.246044, 411.75)"><g><path d="M 8.15625 -71.1875 L 16.359375 -71.1875 L 16.359375 -9.1875 C 16.359375 -7.84375 16.59375 -6.910156 17.0625 -6.390625 C 17.539062 -5.867188 18.070312 -5.609375 18.65625 -5.609375 C 18.914062 -5.609375 19.164062 -5.609375 19.40625 -5.609375 C 19.65625 -5.609375 20.003906 -5.675781 20.453125 -5.8125 L 21.53125 0.390625 C 21.007812 0.648438 20.382812 0.851562 19.65625 1 C 18.925781 1.144531 17.988281 1.21875 16.84375 1.21875 C 13.71875 1.21875 11.488281 0.285156 10.15625 -1.578125 C 8.820312 -3.453125 8.15625 -6.195312 8.15625 -9.8125 Z M 8.15625 -71.1875 "/></g></g></g><g fill="#f08700" fill-opacity="1"><g transform="translate(533.733317, 411.75)"><g><path d="M 4.6875 -24.21875 C 4.6875 -28.125 5.269531 -31.660156 6.4375 -34.828125 C 7.613281 -38.003906 9.160156 -40.691406 11.078125 -42.890625 C 13.003906 -45.085938 15.234375 -46.789062 17.765625 -48 C 20.304688 -49.207031 22.976562 -49.8125 25.78125 -49.8125 C 28.582031 -49.8125 31.015625 -49.304688 33.078125 -48.296875 C 35.148438 -47.285156 37.257812 -45.914062 39.40625 -44.1875 L 38.96875 -52.484375 L 38.96875 -71.1875 L 47.265625 -71.1875 L 47.265625 0 L 40.484375 0 L 39.796875 -5.71875 L 39.5 -5.71875 C 37.550781 -3.820312 35.332031 -2.191406 32.84375 -0.828125 C 30.351562 0.535156 27.675781 1.21875 24.8125 1.21875 C 18.65625 1.21875 13.757812 -0.984375 10.125 -5.390625 C 6.5 -9.804688 4.6875 -16.082031 4.6875 -24.21875 Z M 13.1875 -24.3125 C 13.1875 -18.425781 14.347656 -13.851562 16.671875 -10.59375 C 19.003906 -7.34375 22.316406 -5.71875 26.609375 -5.71875 C 28.859375 -5.71875 30.984375 -6.257812 32.984375 -7.34375 C 34.984375 -8.4375 36.976562 -10.125 38.96875 -12.40625 L 38.96875 -37.796875 C 36.914062 -39.648438 34.9375 -40.96875 33.03125 -41.75 C 31.125 -42.53125 29.179688 -42.921875 27.203125 -42.921875 C 25.242188 -42.921875 23.414062 -42.460938 21.71875 -41.546875 C 20.03125 -40.640625 18.550781 -39.367188 17.28125 -37.734375 C 16.007812 -36.109375 15.007812 -34.164062 14.28125 -31.90625 C 13.550781 -29.644531 13.1875 -27.113281 13.1875 -24.3125 Z M 13.1875 -24.3125 "/></g></g></g><g clip-path="url(#299d79523d)"><path fill="#f08700" d="M 183.96875 260.023438 C 183.96875 259.769531 184.066406 259.519531 184.257812 259.328125 L 190.308594 253.277344 C 190.691406 252.890625 191.316406 252.890625 191.699219 253.277344 C 192.085938 253.664062 192.085938 254.285156 191.699219 254.671875 L 186.347656 260.023438 L 191.699219 265.375 C 192.085938 265.757812 192.085938 266.382812 191.699219 266.769531 C 191.316406 267.152344 190.691406 267.152344 190.308594 266.769531 L 184.257812 260.71875 C 184.066406 260.527344 183.96875 260.273438 183.96875 260.023438 Z M 183.96875 260.023438 " fill-opacity="1" fill-rule="nonzero"/></g><g clip-path="url(#9345d9d5b5)"><path fill="#f08700" d="M 207.636719 253.007812 L 203.859375 267.050781 L 201.757812 267.050781 L 205.535156 253.007812 Z M 207.636719 253.007812 " fill-opacity="1" fill-rule="nonzero"/></g><g clip-path="url(#7379bfe49f)"><path fill="#f08700" d="M 225.519531 260.023438 C 225.519531 259.769531 225.425781 259.519531 225.234375 259.328125 L 219.183594 253.277344 C 218.800781 252.890625 218.175781 252.890625 217.789062 253.277344 C 217.40625 253.664062 217.40625 254.285156 217.789062 254.671875 L 223.144531 260.023438 L 217.792969 265.375 C 217.40625 265.757812 217.40625 266.382812 217.792969 266.769531 C 218.175781 267.152344 218.800781 267.152344 219.183594 266.769531 L 225.234375 260.71875 C 225.425781 260.527344 225.519531 260.273438 225.519531 260.023438 Z M 225.519531 260.023438 " fill-opacity="1" fill-rule="nonzero"/></g><g clip-path="url(#43723d6ee6)"><path fill="#e9ce2c" d="M 165.804688 250.519531 L 170.125 250.519531 L 170.125 312.808594 L 165.804688 312.808594 Z M 165.804688 250.519531 " fill-opacity="1" fill-rule="nonzero"/></g><g clip-path="url(#799bb7079c)"><path fill="#e9ce2c" d="M 146.507812 256.671875 L 153.277344 256.671875 L 153.277344 263.386719 L 146.507812 263.386719 Z M 146.507812 256.671875 " fill-opacity="1" fill-rule="nonzero"/></g><g clip-path="url(#894bcfdc76)"><path fill="#e9ce2c" d="M 146.507812 273.171875 L 153.277344 273.171875 L 153.277344 279.886719 L 146.507812 279.886719 Z M 146.507812 273.171875 " fill-opacity="1" fill-rule="nonzero"/></g><g clip-path="url(#59f7f3eace)"><path fill="#e9ce2c" d="M 146.507812 289.410156 L 153.277344 289.410156 L 153.277344 296.125 L 146.507812 296.125 Z M 146.507812 289.410156 " fill-opacity="1" fill-rule="nonzero"/></g><g clip-path="url(#3ec789a68a)"><path fill="#e9ce2c" d="M 146.507812 305.574219 L 153.277344 305.574219 L 153.277344 312.289062 L 146.507812 312.289062 Z M 146.507812 305.574219 " fill-opacity="1" fill-rule="nonzero"/></g><g clip-path="url(#fd0eaf18ff)"><path fill="#f08700" d="M 176.308594 273.171875 L 212.375 273.171875 L 212.375 279.886719 L 176.308594 279.886719 Z M 176.308594 273.171875 " fill-opacity="1" fill-rule="nonzero"/></g><g clip-path="url(#a3ccb6571c)"><path fill="#bf211e" d="M 183.933594 289.183594 L 244.296875 289.183594 L 244.296875 296.351562 L 183.933594 296.351562 Z M 183.933594 289.183594 " fill-opacity="1" fill-rule="nonzero"/></g><g clip-path="url(#347af38310)"><path fill="#bf211e" d="M 219.269531 273.171875 L 238.128906 273.171875 L 238.128906 279.886719 L 219.269531 279.886719 Z M 219.269531 273.171875 " fill-opacity="1" fill-rule="nonzero"/></g><g clip-path="url(#7a33f3578e)"><path fill="#009ddc" d="M 183.933594 305.351562 L 289.300781 305.351562 L 289.300781 312.515625 L 183.933594 312.515625 Z M 183.933594 305.351562 " fill-opacity="1" fill-rule="nonzero"/></g><g clip-path="url(#ef49d75a9b)"><path fill="#009ddc" d="M 290.90625 289.183594 L 350.210938 289.183594 L 350.210938 296.351562 L 290.90625 296.351562 Z M 290.90625 289.183594 " fill-opacity="1" fill-rule="nonzero"/></g><g clip-path="url(#85b583cb1b)"><path fill="#bf211e" d="M 296.433594 305.351562 L 325.425781 305.351562 L 325.425781 312.515625 L 296.433594 312.515625 Z M 296.433594 305.351562 " fill-opacity="1" fill-rule="nonzero"/></g><g clip-path="url(#504bbc12c4)"><path fill="#f08700" d="M 331.625 305.648438 L 377.128906 305.648438 L 377.128906 312.816406 L 331.625 312.816406 Z M 331.625 305.648438 " fill-opacity="1" fill-rule="nonzero"/></g><g clip-path="url(#a25a6bf228)"><path fill="#e9ce2c" d="M 251.746094 289.410156 L 283.453125 289.410156 L 283.453125 296.574219 L 251.746094 296.574219 Z M 251.746094 289.410156 " fill-opacity="1" fill-rule="nonzero"/></g><g clip-path="url(#d2476470e4)"><path fill="#f08700" d="M 188.097656 510.503906 C 188.097656 510.25 188.195312 510 188.386719 509.808594 L 194.433594 503.757812 C 194.820312 503.375 195.445312 503.375 195.828125 503.757812 C 196.210938 504.144531 196.210938 504.765625 195.828125 505.152344 L 190.476562 510.503906 L 195.828125 515.855469 C 196.210938 516.242188 196.210938 516.863281 195.828125 517.25 C 195.441406 517.632812 194.820312 517.632812 194.433594 517.25 L 188.386719 511.199219 C 188.191406 511.007812 188.097656 510.753906 188.097656 510.503906 Z M 188.097656 510.503906 " fill-opacity="1" fill-rule="nonzero"/></g><g clip-path="url(#b08b3149bf)"><path fill="#f08700" d="M 211.765625 503.488281 L 207.984375 517.53125 L 205.882812 517.53125 L 209.664062 503.488281 Z M 211.765625 503.488281 " fill-opacity="1" fill-rule="nonzero"/></g><g clip-path="url(#b8a6418763)"><path fill="#f08700" d="M 229.648438 510.503906 C 229.648438 510.25 229.550781 510 229.359375 509.808594 L 223.3125 503.757812 C 222.925781 503.375 222.300781 503.375 221.917969 503.757812 C 221.53125 504.144531 221.53125 504.765625 221.917969 505.152344 L 227.269531 510.503906 L 221.917969 515.855469 C 221.535156 516.242188 221.535156 516.863281 221.917969 517.25 C 222.304688 517.632812 222.925781 517.632812 223.3125 517.25 L 229.359375 511.199219 C 229.554688 511.007812 229.648438 510.753906 229.648438 510.503906 Z M 229.648438 510.503906 " fill-opacity="1" fill-rule="nonzero"/></g><g clip-path="url(#bf668eac4a)"><path fill="#e9ce2c" d="M 168.40625 454.25 L 172.726562 454.25 L 172.726562 516.535156 L 168.40625 516.535156 Z M 168.40625 454.25 " fill-opacity="1" fill-rule="nonzero"/></g><g clip-path="url(#e17183044e)"><path fill="#e9ce2c" d="M 147.648438 455.550781 L 154.414062 455.550781 L 154.414062 462.265625 L 147.648438 462.265625 Z M 147.648438 455.550781 " fill-opacity="1" fill-rule="nonzero"/></g><g clip-path="url(#6f2682c5cc)"><path fill="#e9ce2c" d="M 147.648438 472.371094 L 154.414062 472.371094 L 154.414062 479.085938 L 147.648438 479.085938 Z M 147.648438 472.371094 " fill-opacity="1" fill-rule="nonzero"/></g><g clip-path="url(#9a35cbdc36)"><path fill="#e9ce2c" d="M 147.648438 490.089844 L 154.414062 490.089844 L 154.414062 496.804688 L 147.648438 496.804688 Z M 147.648438 490.089844 " fill-opacity="1" fill-rule="nonzero"/></g><g clip-path="url(#0aca5a4e60)"><path fill="#f08700" d="M 178.242188 490.089844 L 205.886719 490.089844 L 205.886719 496.804688 L 178.242188 496.804688 Z M 178.242188 490.089844 " fill-opacity="1" fill-rule="nonzero"/></g><g clip-path="url(#71bf5754d3)"><path fill="#e9ce2c" d="M 186.976562 472.371094 L 214.972656 472.371094 L 214.972656 479.8125 L 186.976562 479.8125 Z M 186.976562 472.371094 " fill-opacity="1" fill-rule="nonzero"/></g><g clip-path="url(#92851f18fa)"><path fill="#009ddc" d="M 222.921875 472.648438 L 353.28125 472.648438 L 353.28125 479.8125 L 222.921875 479.8125 Z M 222.921875 472.648438 " fill-opacity="1" fill-rule="nonzero"/></g><g clip-path="url(#0d3add03d3)"><path fill="#bf211e" d="M 188.058594 455.550781 L 244.058594 455.550781 L 244.058594 462.714844 L 188.058594 462.714844 Z M 188.058594 455.550781 " fill-opacity="1" fill-rule="nonzero"/></g><g clip-path="url(#d97d0bb273)"><path fill="#e9ce2c" d="M 251.164062 455.550781 L 344.664062 455.550781 L 344.664062 462.714844 L 251.164062 462.714844 Z M 251.164062 455.550781 " fill-opacity="1" fill-rule="nonzero"/></g><g clip-path="url(#398e2352b2)"><path fill="#009ddc" d="M 352.488281 455.550781 L 368.644531 455.550781 L 368.644531 462.265625 L 352.488281 462.265625 Z M 352.488281 455.550781 " fill-opacity="1" fill-rule="nonzero"/></g></svg>