<?xml version="1.0" encoding="UTF-8" standalone="no" ?>
<!DOCTYPE svg PUBLIC "-//W3C//DTD SVG 1.1//EN" "http://www.w3.org/Graphics/SVG/1.1/DTD/svg11.dtd">
<svg xmlns="http://www.w3.org/2000/svg" xmlns:xlink="http://www.w3.org/1999/xlink" version="1.1" width="500" height="300" viewBox="0 0 500 300" xml:space="preserve">
<desc>Created with Fabric.js 5.2.4</desc>
<defs>
</defs>
<g transform="matrix(1 0 0 1 250 150)" id="4d4456b3-0ec7-4d28-8214-5a1d66642a89"  >
<rect style="stroke: none; stroke-width: 1; stroke-dasharray: none; stroke-linecap: butt; stroke-dashoffset: 0; stroke-linejoin: miter; stroke-miterlimit: 4; fill: rgb(255,255,255); fill-rule: nonzero; opacity: 1; visibility: hidden;" vector-effect="non-scaling-stroke"  x="-250" y="-150" rx="0" ry="0" width="500" height="300" />
</g>
<g transform="matrix(Infinity NaN NaN Infinity 0 0)" id="66d9b6d3-d46c-47e3-af8a-f8544e591c19"  >
</g>
<g transform="matrix(0.77 0 0 0.77 250 150)"  >
<g style="" vector-effect="non-scaling-stroke"   >
		<g transform="matrix(1.33 0 0 1.33 0 0)" clip-path="url(#CLIPPATH_4)"  >
<clipPath id="CLIPPATH_4" >
	<path transform="matrix(1 0 0 1 0.14 0) translate(-377.95, -384)" id="d16ecf86a7" clip-path="url(#undefined)" d="M 181.089844 275.496094 L 574.808594 275.496094 C 583.558594 275.496094 591.953125 278.972656 598.140625 285.164062 C 604.328125 291.351562 607.808594 299.746094 607.808594 308.496094 L 607.808594 459.503906 C 607.808594 468.253906 604.328125 476.648438 598.140625 482.835938 C 591.953125 489.027344 583.558594 492.503906 574.808594 492.503906 L 181.089844 492.503906 C 172.335938 492.503906 163.941406 489.027344 157.753906 482.835938 C 151.566406 476.648438 148.089844 468.253906 148.089844 459.503906 L 148.089844 308.496094 C 148.089844 299.746094 151.566406 291.351562 157.753906 285.164062 C 163.941406 278.972656 172.335938 275.496094 181.089844 275.496094 Z M 181.089844 275.496094" stroke-linecap="round" />
</clipPath>
<path style="stroke: none; stroke-width: 1; stroke-dasharray: none; stroke-linecap: butt; stroke-dashoffset: 0; stroke-linejoin: miter; stroke-miterlimit: 4; fill: rgb(26,26,26); fill-rule: nonzero; opacity: 1;" vector-effect="non-scaling-stroke"  transform=" translate(-377.81, -384)" d="M 148.089844 275.496094 L 607.53125 275.496094 L 607.53125 492.503906 L 148.089844 492.503906 Z M 148.089844 275.496094" stroke-linecap="round" />
</g>
		<g transform="matrix(1.33 0 0 1.33 1.78 0.77)" clip-path="url(#CLIPPATH_5)"  >
<linearGradient id="SVGID_fd4bde95c1_3" gradientUnits="userSpaceOnUse" gradientTransform="matrix(0.73 0 0 0.73 164.88 291.27)"  x1="-0.0000121684" y1="0" x2="587.906246" y2="0">
<stop offset="0%" style="stop-color:rgb(0,0,0);stop-opacity: 1"/>
<stop offset="0.78125%" style="stop-color:rgb(0,0,0);stop-opacity: 1"/>
<stop offset="1.5625%" style="stop-color:rgb(0,0,0);stop-opacity: 1"/>
<stop offset="2.34375%" style="stop-color:rgb(0,0,0);stop-opacity: 1"/>
<stop offset="3.125%" style="stop-color:rgb(2,2,2);stop-opacity: 1"/>
<stop offset="3.90625%" style="stop-color:rgb(2,2,2);stop-opacity: 1"/>
<stop offset="4.6875%" style="stop-color:rgb(2,2,2);stop-opacity: 1"/>
<stop offset="5.46875%" style="stop-color:rgb(5,5,5);stop-opacity: 1"/>
<stop offset="6.25%" style="stop-color:rgb(5,5,5);stop-opacity: 1"/>
<stop offset="7.03125%" style="stop-color:rgb(5,5,5);stop-opacity: 1"/>
<stop offset="7.8125%" style="stop-color:rgb(7,7,7);stop-opacity: 1"/>
<stop offset="8.59375%" style="stop-color:rgb(7,7,7);stop-opacity: 1"/>
<stop offset="9.375%" style="stop-color:rgb(10,10,10);stop-opacity: 1"/>
<stop offset="10.1562%" style="stop-color:rgb(10,10,10);stop-opacity: 1"/>
<stop offset="10.9375%" style="stop-color:rgb(10,10,10);stop-opacity: 1"/>
<stop offset="11.7188%" style="stop-color:rgb(12,12,12);stop-opacity: 1"/>
<stop offset="12.5%" style="stop-color:rgb(12,12,12);stop-opacity: 1"/>
<stop offset="13.281200000000002%" style="stop-color:rgb(12,12,12);stop-opacity: 1"/>
<stop offset="14.0625%" style="stop-color:rgb(15,15,15);stop-opacity: 1"/>
<stop offset="14.843799999999998%" style="stop-color:rgb(15,15,15);stop-opacity: 1"/>
<stop offset="15.625%" style="stop-color:rgb(15,15,15);stop-opacity: 1"/>
<stop offset="16.406200000000002%" style="stop-color:rgb(17,17,17);stop-opacity: 1"/>
<stop offset="17.1875%" style="stop-color:rgb(17,17,17);stop-opacity: 1"/>
<stop offset="17.968799999999998%" style="stop-color:rgb(17,17,17);stop-opacity: 1"/>
<stop offset="18.75%" style="stop-color:rgb(20,20,20);stop-opacity: 1"/>
<stop offset="19.531200000000002%" style="stop-color:rgb(20,20,20);stop-opacity: 1"/>
<stop offset="20.3125%" style="stop-color:rgb(20,20,20);stop-opacity: 1"/>
<stop offset="21.093799999999998%" style="stop-color:rgb(22,22,22);stop-opacity: 1"/>
<stop offset="21.875%" style="stop-color:rgb(22,22,22);stop-opacity: 1"/>
<stop offset="22.656200000000002%" style="stop-color:rgb(25,25,25);stop-opacity: 1"/>
<stop offset="23.4375%" style="stop-color:rgb(25,25,25);stop-opacity: 1"/>
<stop offset="24.218799999999998%" style="stop-color:rgb(25,25,25);stop-opacity: 1"/>
<stop offset="25%" style="stop-color:rgb(28,28,28);stop-opacity: 1"/>
<stop offset="25.7812%" style="stop-color:rgb(28,28,28);stop-opacity: 1"/>
<stop offset="26.5625%" style="stop-color:rgb(28,28,28);stop-opacity: 1"/>
<stop offset="27.3438%" style="stop-color:rgb(30,30,30);stop-opacity: 1"/>
<stop offset="28.125%" style="stop-color:rgb(30,30,30);stop-opacity: 1"/>
<stop offset="28.9062%" style="stop-color:rgb(30,30,30);stop-opacity: 1"/>
<stop offset="29.6875%" style="stop-color:rgb(33,33,33);stop-opacity: 1"/>
<stop offset="30.4687%" style="stop-color:rgb(33,33,33);stop-opacity: 1"/>
<stop offset="31.25%" style="stop-color:rgb(33,33,33);stop-opacity: 1"/>
<stop offset="32.0312%" style="stop-color:rgb(35,35,35);stop-opacity: 1"/>
<stop offset="32.8125%" style="stop-color:rgb(35,35,35);stop-opacity: 1"/>
<stop offset="33.5938%" style="stop-color:rgb(35,35,35);stop-opacity: 1"/>
<stop offset="34.375%" style="stop-color:rgb(38,38,38);stop-opacity: 1"/>
<stop offset="35.1562%" style="stop-color:rgb(38,38,38);stop-opacity: 1"/>
<stop offset="35.9375%" style="stop-color:rgb(40,40,40);stop-opacity: 1"/>
<stop offset="36.7187%" style="stop-color:rgb(40,40,40);stop-opacity: 1"/>
<stop offset="37.5%" style="stop-color:rgb(40,40,40);stop-opacity: 1"/>
<stop offset="38.2812%" style="stop-color:rgb(43,43,43);stop-opacity: 1"/>
<stop offset="39.0625%" style="stop-color:rgb(43,43,43);stop-opacity: 1"/>
<stop offset="39.8438%" style="stop-color:rgb(43,43,43);stop-opacity: 1"/>
<stop offset="40.625%" style="stop-color:rgb(45,45,45);stop-opacity: 1"/>
<stop offset="41.4062%" style="stop-color:rgb(45,45,45);stop-opacity: 1"/>
<stop offset="42.1875%" style="stop-color:rgb(45,45,45);stop-opacity: 1"/>
<stop offset="42.9687%" style="stop-color:rgb(48,48,48);stop-opacity: 1"/>
<stop offset="43.75%" style="stop-color:rgb(48,48,48);stop-opacity: 1"/>
<stop offset="44.5312%" style="stop-color:rgb(48,48,48);stop-opacity: 1"/>
<stop offset="45.3125%" style="stop-color:rgb(51,51,51);stop-opacity: 1"/>
<stop offset="46.0938%" style="stop-color:rgb(51,51,51);stop-opacity: 1"/>
<stop offset="46.875%" style="stop-color:rgb(51,51,51);stop-opacity: 1"/>
<stop offset="47.6562%" style="stop-color:rgb(53,53,53);stop-opacity: 1"/>
<stop offset="48.4375%" style="stop-color:rgb(53,53,53);stop-opacity: 1"/>
<stop offset="49.2187%" style="stop-color:rgb(56,56,56);stop-opacity: 1"/>
<stop offset="50%" style="stop-color:rgb(56,56,56);stop-opacity: 1"/>
<stop offset="50.781200000000005%" style="stop-color:rgb(56,56,56);stop-opacity: 1"/>
<stop offset="51.5625%" style="stop-color:rgb(58,58,58);stop-opacity: 1"/>
<stop offset="52.343700000000005%" style="stop-color:rgb(58,58,58);stop-opacity: 1"/>
<stop offset="53.125%" style="stop-color:rgb(58,58,58);stop-opacity: 1"/>
<stop offset="53.906200000000005%" style="stop-color:rgb(61,61,61);stop-opacity: 1"/>
<stop offset="54.6875%" style="stop-color:rgb(61,61,61);stop-opacity: 1"/>
<stop offset="55.468799999999995%" style="stop-color:rgb(61,61,61);stop-opacity: 1"/>
<stop offset="56.25%" style="stop-color:rgb(63,63,63);stop-opacity: 1"/>
<stop offset="57.031200000000005%" style="stop-color:rgb(63,63,63);stop-opacity: 1"/>
<stop offset="57.8125%" style="stop-color:rgb(63,63,63);stop-opacity: 1"/>
<stop offset="58.593799999999995%" style="stop-color:rgb(66,66,66);stop-opacity: 1"/>
<stop offset="59.375%" style="stop-color:rgb(66,66,66);stop-opacity: 1"/>
<stop offset="60.156299999999995%" style="stop-color:rgb(66,66,66);stop-opacity: 1"/>
<stop offset="60.9375%" style="stop-color:rgb(68,68,68);stop-opacity: 1"/>
<stop offset="61.718799999999995%" style="stop-color:rgb(68,68,68);stop-opacity: 1"/>
<stop offset="62.5%" style="stop-color:rgb(71,71,71);stop-opacity: 1"/>
<stop offset="63.281200000000005%" style="stop-color:rgb(71,71,71);stop-opacity: 1"/>
<stop offset="64.0625%" style="stop-color:rgb(71,71,71);stop-opacity: 1"/>
<stop offset="64.8437%" style="stop-color:rgb(73,73,73);stop-opacity: 1"/>
<stop offset="65.625%" style="stop-color:rgb(73,73,73);stop-opacity: 1"/>
<stop offset="66.4062%" style="stop-color:rgb(73,73,73);stop-opacity: 1"/>
<stop offset="67.1875%" style="stop-color:rgb(76,76,76);stop-opacity: 1"/>
<stop offset="67.9688%" style="stop-color:rgb(76,76,76);stop-opacity: 1"/>
<stop offset="68.75%" style="stop-color:rgb(76,76,76);stop-opacity: 1"/>
<stop offset="69.5312%" style="stop-color:rgb(79,79,79);stop-opacity: 1"/>
<stop offset="70.3125%" style="stop-color:rgb(79,79,79);stop-opacity: 1"/>
<stop offset="71.0938%" style="stop-color:rgb(79,79,79);stop-opacity: 1"/>
<stop offset="71.875%" style="stop-color:rgb(81,81,81);stop-opacity: 1"/>
<stop offset="72.6563%" style="stop-color:rgb(81,81,81);stop-opacity: 1"/>
<stop offset="73.4375%" style="stop-color:rgb(81,81,81);stop-opacity: 1"/>
<stop offset="74.2188%" style="stop-color:rgb(84,84,84);stop-opacity: 1"/>
<stop offset="75%" style="stop-color:rgb(84,84,84);stop-opacity: 1"/>
<stop offset="75.7812%" style="stop-color:rgb(84,84,84);stop-opacity: 1"/>
<stop offset="76.5625%" style="stop-color:rgb(86,86,86);stop-opacity: 1"/>
<stop offset="77.3437%" style="stop-color:rgb(86,86,86);stop-opacity: 1"/>
<stop offset="78.125%" style="stop-color:rgb(89,89,89);stop-opacity: 1"/>
<stop offset="78.9062%" style="stop-color:rgb(89,89,89);stop-opacity: 1"/>
<stop offset="79.6875%" style="stop-color:rgb(89,89,89);stop-opacity: 1"/>
<stop offset="80.4688%" style="stop-color:rgb(91,91,91);stop-opacity: 1"/>
<stop offset="81.25%" style="stop-color:rgb(91,91,91);stop-opacity: 1"/>
<stop offset="82.0312%" style="stop-color:rgb(91,91,91);stop-opacity: 1"/>
<stop offset="82.8125%" style="stop-color:rgb(94,94,94);stop-opacity: 1"/>
<stop offset="83.5938%" style="stop-color:rgb(94,94,94);stop-opacity: 1"/>
<stop offset="84.375%" style="stop-color:rgb(94,94,94);stop-opacity: 1"/>
<stop offset="85.1563%" style="stop-color:rgb(96,96,96);stop-opacity: 1"/>
<stop offset="85.9375%" style="stop-color:rgb(96,96,96);stop-opacity: 1"/>
<stop offset="86.7188%" style="stop-color:rgb(96,96,96);stop-opacity: 1"/>
<stop offset="87.5%" style="stop-color:rgb(99,99,99);stop-opacity: 1"/>
<stop offset="88.2812%" style="stop-color:rgb(99,99,99);stop-opacity: 1"/>
<stop offset="89.0625%" style="stop-color:rgb(99,99,99);stop-opacity: 1"/>
<stop offset="89.8437%" style="stop-color:rgb(102,102,102);stop-opacity: 1"/>
<stop offset="90.625%" style="stop-color:rgb(102,102,102);stop-opacity: 1"/>
<stop offset="91.4062%" style="stop-color:rgb(104,104,104);stop-opacity: 1"/>
<stop offset="92.1875%" style="stop-color:rgb(104,104,104);stop-opacity: 1"/>
<stop offset="92.9688%" style="stop-color:rgb(104,104,104);stop-opacity: 1"/>
<stop offset="93.75%" style="stop-color:rgb(107,107,107);stop-opacity: 1"/>
<stop offset="94.5312%" style="stop-color:rgb(107,107,107);stop-opacity: 1"/>
<stop offset="95.3125%" style="stop-color:rgb(107,107,107);stop-opacity: 1"/>
<stop offset="96.0938%" style="stop-color:rgb(109,109,109);stop-opacity: 1"/>
<stop offset="96.875%" style="stop-color:rgb(109,109,109);stop-opacity: 1"/>
<stop offset="97.6563%" style="stop-color:rgb(109,109,109);stop-opacity: 1"/>
<stop offset="98.4375%" style="stop-color:rgb(112,112,112);stop-opacity: 1"/>
<stop offset="99.2188%" style="stop-color:rgb(112,112,112);stop-opacity: 1"/>
<stop offset="100%" style="stop-color:rgb(112,112,112);stop-opacity: 1"/>
</linearGradient>
<clipPath id="CLIPPATH_5" >
	<path transform="matrix(1 0 0 1 0 0) translate(-379.15, -384.58)" id="47" clip-path="url(#undefined)" d="M 182.878906 291.273438 L 575.425781 291.273438 C 580.203125 291.273438 584.78125 293.171875 588.15625 296.546875 C 591.53125 299.921875 593.425781 304.5 593.425781 309.273438 L 593.425781 459.878906 C 593.425781 464.652344 591.53125 469.230469 588.15625 472.609375 C 584.78125 475.984375 580.203125 477.878906 575.425781 477.878906 L 182.878906 477.878906 C 178.101562 477.878906 173.523438 475.984375 170.148438 472.609375 C 166.773438 469.230469 164.878906 464.652344 164.878906 459.878906 L 164.878906 309.273438 C 164.878906 304.5 166.773438 299.921875 170.148438 296.546875 C 173.523438 293.171875 178.101562 291.273438 182.878906 291.273438 Z M 182.878906 291.273438" stroke-linecap="round" />
</clipPath>
<path style="stroke: none; stroke-width: 1; stroke-dasharray: none; stroke-linecap: butt; stroke-dashoffset: 0; stroke-linejoin: miter; stroke-miterlimit: 4; fill: url(#SVGID_fd4bde95c1_3); fill-rule: nonzero; opacity: 1;" vector-effect="non-scaling-stroke"  transform=" translate(-379.15, -384.58)" d="M 164.878906 291.273438 L 164.878906 477.878906 L 593.417969 477.878906 L 593.417969 291.273438 Z M 164.878906 291.273438" stroke-linecap="round" />
</g>
		<g transform="matrix(1.33 0 0 1.33 -66.86 35.42)"  >
<path style="stroke: none; stroke-width: 1; stroke-dasharray: none; stroke-linecap: butt; stroke-dashoffset: 0; stroke-linejoin: miter; stroke-miterlimit: 4; fill: rgb(240,135,0); fill-opacity: 0.4; fill-rule: nonzero; opacity: 1;" vector-effect="non-scaling-stroke"  transform=" translate(-38.59, 19.7)" d="M 16.78125 11.796875 C 16.78125 15.546875 18.582031 18.519531 22.1875 20.71875 C 25.789062 22.914062 30.753906 24.015625 37.078125 24.015625 C 40.453125 24.015625 43.507812 23.601562 46.25 22.78125 C 48.988281 21.96875 51.316406 20.914062 53.234375 19.625 C 55.148438 18.34375 56.632812 16.832031 57.6875 15.09375 C 58.738281 13.363281 59.265625 11.585938 59.265625 9.765625 C 59.265625 6.535156 58.0625 4.285156 55.65625 3.015625 C 53.25 1.753906 49.75 1.125 45.15625 1.125 L 33.078125 1.125 C 31.722656 1.125 30.257812 1.050781 28.6875 0.90625 C 27.113281 0.769531 25.554688 0.46875 24.015625 0 C 21.535156 1.820312 19.707031 3.738281 18.53125 5.75 C 17.363281 7.769531 16.78125 9.785156 16.78125 11.796875 Z M 6.46875 13.34375 C 6.46875 10.394531 7.378906 7.570312 9.203125 4.875 C 11.023438 2.1875 13.503906 -0.253906 16.640625 -2.453125 L 16.640625 -3.015625 C 14.953125 -4.097656 13.5 -5.5625 12.28125 -7.40625 C 11.070312 -9.257812 10.46875 -11.585938 10.46875 -14.390625 C 10.46875 -17.347656 11.285156 -19.925781 12.921875 -22.125 C 14.554688 -24.320312 16.289062 -26.050781 18.125 -27.3125 L 18.125 -27.875 C 15.820312 -29.800781 13.734375 -32.363281 11.859375 -35.5625 C 9.992188 -38.769531 9.0625 -42.503906 9.0625 -46.765625 C 9.0625 -50.609375 9.75 -54.0625 11.125 -57.125 C 12.507812 -60.195312 14.40625 -62.804688 16.8125 -64.953125 C 19.226562 -67.109375 22.039062 -68.757812 25.25 -69.90625 C 28.457031 -71.0625 31.835938 -71.640625 35.390625 -71.640625 C 37.316406 -71.640625 39.109375 -71.472656 40.765625 -71.140625 C 42.429688 -70.816406 43.941406 -70.394531 45.296875 -69.875 L 69.59375 -69.875 L 69.59375 -60.8125 L 55.203125 -60.8125 C 56.835938 -59.175781 58.203125 -57.117188 59.296875 -54.640625 C 60.398438 -52.160156 60.953125 -49.441406 60.953125 -46.484375 C 60.953125 -42.742188 60.285156 -39.363281 58.953125 -36.34375 C 57.617188 -33.320312 55.804688 -30.78125 53.515625 -28.71875 C 51.222656 -26.664062 48.503906 -25.050781 45.359375 -23.875 C 42.222656 -22.707031 38.898438 -22.125 35.390625 -22.125 C 33.660156 -22.125 31.878906 -22.34375 30.046875 -22.78125 C 28.222656 -23.226562 26.492188 -23.828125 24.859375 -24.578125 C 23.640625 -23.546875 22.597656 -22.375 21.734375 -21.0625 C 20.867188 -19.757812 20.4375 -18.144531 20.4375 -16.21875 C 20.4375 -14.019531 21.289062 -12.207031 23 -10.78125 C 24.707031 -9.351562 27.972656 -8.640625 32.796875 -8.640625 L 46.28125 -8.640625 C 54.425781 -8.640625 60.535156 -7.316406 64.609375 -4.671875 C 68.679688 -2.023438 70.71875 2.222656 70.71875 8.078125 C 70.71875 11.304688 69.910156 14.382812 68.296875 17.3125 C 66.679688 20.238281 64.335938 22.800781 61.265625 25 C 58.203125 27.195312 54.484375 28.953125 50.109375 30.265625 C 45.734375 31.578125 40.828125 32.234375 35.390625 32.234375 C 31.035156 32.234375 27.09375 31.820312 23.5625 31 C 20.03125 30.1875 16.988281 28.957031 14.4375 27.3125 C 11.882812 25.675781 9.914062 23.710938 8.53125 21.421875 C 7.15625 19.128906 6.46875 16.4375 6.46875 13.34375 Z M 35.390625 -30.0625 C 37.410156 -30.0625 39.296875 -30.445312 41.046875 -31.21875 C 42.804688 -31.988281 44.382812 -33.085938 45.78125 -34.515625 C 47.1875 -35.941406 48.273438 -37.6875 49.046875 -39.75 C 49.828125 -41.8125 50.21875 -44.148438 50.21875 -46.765625 C 50.21875 -51.921875 48.773438 -55.914062 45.890625 -58.75 C 43.015625 -61.582031 39.515625 -63 35.390625 -63 C 31.273438 -63 27.773438 -61.582031 24.890625 -58.75 C 22.015625 -55.914062 20.578125 -51.921875 20.578125 -46.765625 C 20.578125 -44.148438 20.953125 -41.8125 21.703125 -39.75 C 22.453125 -37.6875 23.523438 -35.941406 24.921875 -34.515625 C 26.328125 -33.085938 27.921875 -31.988281 29.703125 -31.21875 C 31.484375 -30.445312 33.378906 -30.0625 35.390625 -30.0625 Z M 35.390625 -30.0625" stroke-linecap="round" />
</g>
		<g transform="matrix(1.33 0 0 1.33 11.56 8.98)"  >
<path style="stroke: none; stroke-width: 1; stroke-dasharray: none; stroke-linecap: butt; stroke-dashoffset: 0; stroke-linejoin: miter; stroke-miterlimit: 4; fill: rgb(240,135,0); fill-opacity: 0.4; fill-rule: nonzero; opacity: 1;" vector-effect="non-scaling-stroke"  transform=" translate(-24.93, 39.54)" d="M 39.8125 -102.109375 L 48.453125 -102.109375 L 10.046875 23.03125 L 1.40625 23.03125 Z M 39.8125 -102.109375" stroke-linecap="round" />
</g>
		<g transform="matrix(1.33 0 0 1.33 101.74 -5.4)"  >
<path style="stroke: none; stroke-width: 1; stroke-dasharray: none; stroke-linecap: butt; stroke-dashoffset: 0; stroke-linejoin: miter; stroke-miterlimit: 4; fill: rgb(240,135,0); fill-opacity: 0.4; fill-rule: nonzero; opacity: 1;" vector-effect="non-scaling-stroke"  transform=" translate(-42.28, 50.32)" d="M 11.734375 -102.390625 L 23.53125 -102.390625 L 23.53125 -74.515625 L 23.25 -61.875 C 26.382812 -64.632812 29.820312 -66.953125 33.5625 -68.828125 C 37.3125 -70.703125 41.15625 -71.640625 45.09375 -71.640625 C 49.582031 -71.640625 53.554688 -70.796875 57.015625 -69.109375 C 60.484375 -67.421875 63.390625 -65.019531 65.734375 -61.90625 C 68.078125 -58.789062 69.84375 -55.054688 71.03125 -50.703125 C 72.226562 -46.347656 72.828125 -41.476562 72.828125 -36.09375 C 72.828125 -30.144531 72.019531 -24.816406 70.40625 -20.109375 C 68.789062 -15.410156 66.585938 -11.429688 63.796875 -8.171875 C 61.015625 -4.921875 57.796875 -2.453125 54.140625 -0.765625 C 50.492188 0.910156 46.65625 1.75 42.625 1.75 C 39.394531 1.75 36.023438 1.003906 32.515625 -0.484375 C 29.003906 -1.984375 25.726562 -4.113281 22.6875 -6.875 L 22.265625 -6.875 L 21.203125 0 L 11.734375 0 Z M 23.53125 -15.515625 C 26.570312 -12.847656 29.601562 -10.960938 32.625 -9.859375 C 35.644531 -8.765625 38.320312 -8.21875 40.65625 -8.21875 C 43.519531 -8.21875 46.175781 -8.859375 48.625 -10.140625 C 51.082031 -11.429688 53.191406 -13.25 54.953125 -15.59375 C 56.710938 -17.9375 58.09375 -20.835938 59.09375 -24.296875 C 60.101562 -27.765625 60.609375 -31.648438 60.609375 -35.953125 C 60.609375 -39.796875 60.28125 -43.296875 59.625 -46.453125 C 58.96875 -49.617188 57.890625 -52.320312 56.390625 -54.5625 C 54.890625 -56.8125 52.96875 -58.566406 50.625 -59.828125 C 48.289062 -61.097656 45.484375 -61.734375 42.203125 -61.734375 C 36.535156 -61.734375 30.3125 -58.550781 23.53125 -52.1875 Z M 23.53125 -15.515625" stroke-linecap="round" />
</g>
		<g transform="matrix(1.33 0 0 1.33 -75.34 26.95)"  >
<path style="stroke: none; stroke-width: 1; stroke-dasharray: none; stroke-linecap: butt; stroke-dashoffset: 0; stroke-linejoin: miter; stroke-miterlimit: 4; fill: rgb(240,135,0); fill-rule: nonzero; opacity: 1;" vector-effect="non-scaling-stroke"  transform=" translate(-38.59, 19.7)" d="M 16.78125 11.796875 C 16.78125 15.546875 18.582031 18.519531 22.1875 20.71875 C 25.789062 22.914062 30.753906 24.015625 37.078125 24.015625 C 40.453125 24.015625 43.507812 23.601562 46.25 22.78125 C 48.988281 21.96875 51.316406 20.914062 53.234375 19.625 C 55.148438 18.34375 56.632812 16.832031 57.6875 15.09375 C 58.738281 13.363281 59.265625 11.585938 59.265625 9.765625 C 59.265625 6.535156 58.0625 4.285156 55.65625 3.015625 C 53.25 1.753906 49.75 1.125 45.15625 1.125 L 33.078125 1.125 C 31.722656 1.125 30.257812 1.050781 28.6875 0.90625 C 27.113281 0.769531 25.554688 0.46875 24.015625 0 C 21.535156 1.820312 19.707031 3.738281 18.53125 5.75 C 17.363281 7.769531 16.78125 9.785156 16.78125 11.796875 Z M 6.46875 13.34375 C 6.46875 10.394531 7.378906 7.570312 9.203125 4.875 C 11.023438 2.1875 13.503906 -0.253906 16.640625 -2.453125 L 16.640625 -3.015625 C 14.953125 -4.097656 13.5 -5.5625 12.28125 -7.40625 C 11.070312 -9.257812 10.46875 -11.585938 10.46875 -14.390625 C 10.46875 -17.347656 11.285156 -19.925781 12.921875 -22.125 C 14.554688 -24.320312 16.289062 -26.050781 18.125 -27.3125 L 18.125 -27.875 C 15.820312 -29.800781 13.734375 -32.363281 11.859375 -35.5625 C 9.992188 -38.769531 9.0625 -42.503906 9.0625 -46.765625 C 9.0625 -50.609375 9.75 -54.0625 11.125 -57.125 C 12.507812 -60.195312 14.40625 -62.804688 16.8125 -64.953125 C 19.226562 -67.109375 22.039062 -68.757812 25.25 -69.90625 C 28.457031 -71.0625 31.835938 -71.640625 35.390625 -71.640625 C 37.316406 -71.640625 39.109375 -71.472656 40.765625 -71.140625 C 42.429688 -70.816406 43.941406 -70.394531 45.296875 -69.875 L 69.59375 -69.875 L 69.59375 -60.8125 L 55.203125 -60.8125 C 56.835938 -59.175781 58.203125 -57.117188 59.296875 -54.640625 C 60.398438 -52.160156 60.953125 -49.441406 60.953125 -46.484375 C 60.953125 -42.742188 60.285156 -39.363281 58.953125 -36.34375 C 57.617188 -33.320312 55.804688 -30.78125 53.515625 -28.71875 C 51.222656 -26.664062 48.503906 -25.050781 45.359375 -23.875 C 42.222656 -22.707031 38.898438 -22.125 35.390625 -22.125 C 33.660156 -22.125 31.878906 -22.34375 30.046875 -22.78125 C 28.222656 -23.226562 26.492188 -23.828125 24.859375 -24.578125 C 23.640625 -23.546875 22.597656 -22.375 21.734375 -21.0625 C 20.867188 -19.757812 20.4375 -18.144531 20.4375 -16.21875 C 20.4375 -14.019531 21.289062 -12.207031 23 -10.78125 C 24.707031 -9.351562 27.972656 -8.640625 32.796875 -8.640625 L 46.28125 -8.640625 C 54.425781 -8.640625 60.535156 -7.316406 64.609375 -4.671875 C 68.679688 -2.023438 70.71875 2.222656 70.71875 8.078125 C 70.71875 11.304688 69.910156 14.382812 68.296875 17.3125 C 66.679688 20.238281 64.335938 22.800781 61.265625 25 C 58.203125 27.195312 54.484375 28.953125 50.109375 30.265625 C 45.734375 31.578125 40.828125 32.234375 35.390625 32.234375 C 31.035156 32.234375 27.09375 31.820312 23.5625 31 C 20.03125 30.1875 16.988281 28.957031 14.4375 27.3125 C 11.882812 25.675781 9.914062 23.710938 8.53125 21.421875 C 7.15625 19.128906 6.46875 16.4375 6.46875 13.34375 Z M 35.390625 -30.0625 C 37.410156 -30.0625 39.296875 -30.445312 41.046875 -31.21875 C 42.804688 -31.988281 44.382812 -33.085938 45.78125 -34.515625 C 47.1875 -35.941406 48.273438 -37.6875 49.046875 -39.75 C 49.828125 -41.8125 50.21875 -44.148438 50.21875 -46.765625 C 50.21875 -51.921875 48.773438 -55.914062 45.890625 -58.75 C 43.015625 -61.582031 39.515625 -63 35.390625 -63 C 31.273438 -63 27.773438 -61.582031 24.890625 -58.75 C 22.015625 -55.914062 20.578125 -51.921875 20.578125 -46.765625 C 20.578125 -44.148438 20.953125 -41.8125 21.703125 -39.75 C 22.453125 -37.6875 23.523438 -35.941406 24.921875 -34.515625 C 26.328125 -33.085938 27.921875 -31.988281 29.703125 -31.21875 C 31.484375 -30.445312 33.378906 -30.0625 35.390625 -30.0625 Z M 35.390625 -30.0625" stroke-linecap="round" />
</g>
		<g transform="matrix(1.33 0 0 1.33 3.08 0.5)"  >
<path style="stroke: none; stroke-width: 1; stroke-dasharray: none; stroke-linecap: butt; stroke-dashoffset: 0; stroke-linejoin: miter; stroke-miterlimit: 4; fill: rgb(240,135,0); fill-rule: nonzero; opacity: 1;" vector-effect="non-scaling-stroke"  transform=" translate(-24.93, 39.54)" d="M 39.8125 -102.109375 L 48.453125 -102.109375 L 10.046875 23.03125 L 1.40625 23.03125 Z M 39.8125 -102.109375" stroke-linecap="round" />
</g>
		<g transform="matrix(1.33 0 0 1.33 93.26 -13.87)"  >
<path style="stroke: none; stroke-width: 1; stroke-dasharray: none; stroke-linecap: butt; stroke-dashoffset: 0; stroke-linejoin: miter; stroke-miterlimit: 4; fill: rgb(240,135,0); fill-rule: nonzero; opacity: 1;" vector-effect="non-scaling-stroke"  transform=" translate(-42.28, 50.32)" d="M 11.734375 -102.390625 L 23.53125 -102.390625 L 23.53125 -74.515625 L 23.25 -61.875 C 26.382812 -64.632812 29.820312 -66.953125 33.5625 -68.828125 C 37.3125 -70.703125 41.15625 -71.640625 45.09375 -71.640625 C 49.582031 -71.640625 53.554688 -70.796875 57.015625 -69.109375 C 60.484375 -67.421875 63.390625 -65.019531 65.734375 -61.90625 C 68.078125 -58.789062 69.84375 -55.054688 71.03125 -50.703125 C 72.226562 -46.347656 72.828125 -41.476562 72.828125 -36.09375 C 72.828125 -30.144531 72.019531 -24.816406 70.40625 -20.109375 C 68.789062 -15.410156 66.585938 -11.429688 63.796875 -8.171875 C 61.015625 -4.921875 57.796875 -2.453125 54.140625 -0.765625 C 50.492188 0.910156 46.65625 1.75 42.625 1.75 C 39.394531 1.75 36.023438 1.003906 32.515625 -0.484375 C 29.003906 -1.984375 25.726562 -4.113281 22.6875 -6.875 L 22.265625 -6.875 L 21.203125 0 L 11.734375 0 Z M 23.53125 -15.515625 C 26.570312 -12.847656 29.601562 -10.960938 32.625 -9.859375 C 35.644531 -8.765625 38.320312 -8.21875 40.65625 -8.21875 C 43.519531 -8.21875 46.175781 -8.859375 48.625 -10.140625 C 51.082031 -11.429688 53.191406 -13.25 54.953125 -15.59375 C 56.710938 -17.9375 58.09375 -20.835938 59.09375 -24.296875 C 60.101562 -27.765625 60.609375 -31.648438 60.609375 -35.953125 C 60.609375 -39.796875 60.28125 -43.296875 59.625 -46.453125 C 58.96875 -49.617188 57.890625 -52.320312 56.390625 -54.5625 C 54.890625 -56.8125 52.96875 -58.566406 50.625 -59.828125 C 48.289062 -61.097656 45.484375 -61.734375 42.203125 -61.734375 C 36.535156 -61.734375 30.3125 -58.550781 23.53125 -52.1875 Z M 23.53125 -15.515625" stroke-linecap="round" />
</g>
		<g transform="matrix(1.33 0 0 1.33 -198.33 0)" clip-path="url(#CLIPPATH_6)"  >
<clipPath id="CLIPPATH_6" >
	<path transform="matrix(1 0 0 1 -0.13 -0.11) translate(-228.93, -383.89)" id="b9ac0006f8" d="M 191.433594 322.761719 L 266.433594 322.761719 L 266.433594 445.011719 L 191.433594 445.011719 Z M 191.433594 322.761719" stroke-linecap="round" />
</clipPath>
<path style="stroke: none; stroke-width: 1; stroke-dasharray: none; stroke-linecap: butt; stroke-dashoffset: 0; stroke-linejoin: miter; stroke-miterlimit: 4; fill: rgb(0,157,220); fill-rule: nonzero; opacity: 1;" vector-effect="non-scaling-stroke"  transform=" translate(-229.06, -384)" d="M 191.84375 383.996094 L 252.855469 322.984375 L 266.28125 336.40625 L 218.6875 383.996094 L 266.28125 431.585938 L 252.855469 445.011719 Z M 191.84375 383.996094" stroke-linecap="round" />
</g>
		<g transform="matrix(1.33 0 0 1.33 202.7 0)" clip-path="url(#CLIPPATH_7)"  >
<clipPath id="CLIPPATH_7" >
	<path transform="matrix(1 0 0 1 0.13 0.11) translate(-529.96, -384.11)" id="6" d="M 492.460938 322.984375 L 567.460938 322.984375 L 567.460938 445.234375 L 492.460938 445.234375 Z M 492.460938 322.984375" stroke-linecap="round" />
</clipPath>
<path style="stroke: none; stroke-width: 1; stroke-dasharray: none; stroke-linecap: butt; stroke-dashoffset: 0; stroke-linejoin: miter; stroke-miterlimit: 4; fill: rgb(0,157,220); fill-rule: nonzero; opacity: 1;" vector-effect="non-scaling-stroke"  transform=" translate(-529.83, -384)" d="M 567.050781 383.996094 L 506.039062 445.011719 L 492.613281 431.585938 L 540.207031 383.996094 L 492.613281 336.40625 L 506.039062 322.984375 Z M 567.050781 383.996094" stroke-linecap="round" />
</g>
		<g transform="matrix(1.33 0 0 1.33 -209.15 -133.59)" clip-path="url(#CLIPPATH_8)"  >
<clipPath id="CLIPPATH_8" >
	<path transform="matrix(1 0 0 1 0 0) translate(-220.95, -283.81)" id="56538" clip-path="url(#undefined)" d="M 220.949219 289.578125 C 224.136719 289.578125 226.71875 286.996094 226.71875 283.808594 C 226.71875 280.621094 224.136719 278.035156 220.949219 278.035156 C 217.761719 278.035156 215.175781 280.621094 215.175781 283.808594 C 215.175781 286.996094 217.761719 289.578125 220.949219 289.578125 Z M 220.949219 289.578125" stroke-linecap="round" />
</clipPath>
<path style="stroke: none; stroke-width: 1; stroke-dasharray: none; stroke-linecap: butt; stroke-dashoffset: 0; stroke-linejoin: miter; stroke-miterlimit: 4; fill: rgb(98,197,89); fill-rule: nonzero; opacity: 1;" vector-effect="non-scaling-stroke"  transform=" translate(-220.95, -283.81)" d="M 226.71875 289.578125 L 215.175781 289.578125 L 215.175781 278.035156 L 226.71875 278.035156 Z M 226.71875 289.578125" stroke-linecap="round" />
</g>
		<g transform="matrix(1.33 0 0 1.33 -232.48 -133.59)" clip-path="url(#CLIPPATH_9)"  >
<clipPath id="CLIPPATH_9" >
	<path transform="matrix(1 0 0 1 0 0) translate(-203.45, -283.81)" id="Infinity" clip-path="url(#undefined)" d="M 203.445312 289.578125 C 206.632812 289.578125 209.21875 286.996094 209.21875 283.808594 C 209.21875 280.621094 206.632812 278.035156 203.445312 278.035156 C 200.257812 278.035156 197.675781 280.621094 197.675781 283.808594 C 197.675781 286.996094 200.257812 289.578125 203.445312 289.578125 Z M 203.445312 289.578125" stroke-linecap="round" />
</clipPath>
<path style="stroke: none; stroke-width: 1; stroke-dasharray: none; stroke-linecap: butt; stroke-dashoffset: 0; stroke-linejoin: miter; stroke-miterlimit: 4; fill: rgb(233,206,44); fill-rule: nonzero; opacity: 1;" vector-effect="non-scaling-stroke"  transform=" translate(-203.45, -283.81)" d="M 209.21875 289.578125 L 197.675781 289.578125 L 197.675781 278.035156 L 209.21875 278.035156 Z M 209.21875 289.578125" stroke-linecap="round" />
</g>
		<g transform="matrix(1.33 0 0 1.33 -255.86 -133.59)" clip-path="url(#CLIPPATH_10)"  >
<clipPath id="CLIPPATH_10" >
	<path transform="matrix(1 0 0 1 0 0) translate(-185.92, -283.81)" id="96" clip-path="url(#undefined)" d="M 185.917969 289.578125 C 189.105469 289.578125 191.6875 286.996094 191.6875 283.808594 C 191.6875 280.621094 189.105469 278.035156 185.917969 278.035156 C 182.730469 278.035156 180.144531 280.621094 180.144531 283.808594 C 180.144531 286.996094 182.730469 289.578125 185.917969 289.578125 Z M 185.917969 289.578125" stroke-linecap="round" />
</clipPath>
<path style="stroke: none; stroke-width: 1; stroke-dasharray: none; stroke-linecap: butt; stroke-dashoffset: 0; stroke-linejoin: miter; stroke-miterlimit: 4; fill: rgb(191,33,30); fill-rule: nonzero; opacity: 1;" vector-effect="non-scaling-stroke"  transform=" translate(-185.92, -283.81)" d="M 191.6875 289.578125 L 180.144531 289.578125 L 180.144531 278.035156 L 191.6875 278.035156 Z M 191.6875 289.578125" stroke-linecap="round" />
</g>
</g>
</g>
</svg>