<svg xmlns="http://www.w3.org/2000/svg" xmlns:xlink="http://www.w3.org/1999/xlink" width="1024" zoomAndPan="magnify" viewBox="0 0 768 767.999994" height="1024" preserveAspectRatio="xMidYMid meet" version="1.0"><defs><g/><clipPath id="ad041ab9e5"><path d="M 148.089844 275.496094 L 608 275.496094 L 608 492.503906 L 148.089844 492.503906 Z M 148.089844 275.496094 " clip-rule="nonzero"/></clipPath><clipPath id="d16ecf86a7"><path d="M 181.089844 275.496094 L 574.808594 275.496094 C 583.558594 275.496094 591.953125 278.972656 598.140625 285.164062 C 604.328125 291.351562 607.808594 299.746094 607.808594 308.496094 L 607.808594 459.503906 C 607.808594 468.253906 604.328125 476.648438 598.140625 482.835938 C 591.953125 489.027344 583.558594 492.503906 574.808594 492.503906 L 181.089844 492.503906 C 172.335938 492.503906 163.941406 489.027344 157.753906 482.835938 C 151.566406 476.648438 148.089844 468.253906 148.089844 459.503906 L 148.089844 308.496094 C 148.089844 299.746094 151.566406 291.351562 157.753906 285.164062 C 163.941406 278.972656 172.335938 275.496094 181.089844 275.496094 Z M 181.089844 275.496094 " clip-rule="nonzero"/></clipPath><clipPath id="03b2bcb88b"><path d="M 164.878906 291.273438 L 593.417969 291.273438 L 593.417969 477.878906 L 164.878906 477.878906 Z M 164.878906 291.273438 " clip-rule="nonzero"/></clipPath><clipPath id="47a1cedadf"><path d="M 182.878906 291.273438 L 575.425781 291.273438 C 580.203125 291.273438 584.78125 293.171875 588.15625 296.546875 C 591.53125 299.921875 593.425781 304.5 593.425781 309.273438 L 593.425781 459.878906 C 593.425781 464.652344 591.53125 469.230469 588.15625 472.609375 C 584.78125 475.984375 580.203125 477.878906 575.425781 477.878906 L 182.878906 477.878906 C 178.101562 477.878906 173.523438 475.984375 170.148438 472.609375 C 166.773438 469.230469 164.878906 464.652344 164.878906 459.878906 L 164.878906 309.273438 C 164.878906 304.5 166.773438 299.921875 170.148438 296.546875 C 173.523438 293.171875 178.101562 291.273438 182.878906 291.273438 Z M 182.878906 291.273438 " clip-rule="nonzero"/></clipPath><linearGradient x1="-0.0000121684" gradientTransform="matrix(0.728929, 0, 0, 0.728929, 164.877352, 291.274278)" y1="0" x2="587.906246" gradientUnits="userSpaceOnUse" y2="0" id="fd4bde95c1"><stop stop-opacity="1" stop-color="rgb(0%, 0%, 0%)" offset="0"/><stop stop-opacity="1" stop-color="rgb(0.175476%, 0.175476%, 0.175476%)" offset="0.0078125"/><stop stop-opacity="1" stop-color="rgb(0.526428%, 0.526428%, 0.526428%)" offset="0.015625"/><stop stop-opacity="1" stop-color="rgb(0.878906%, 0.878906%, 0.878906%)" offset="0.0234375"/><stop stop-opacity="1" stop-color="rgb(1.231384%, 1.231384%, 1.231384%)" offset="0.03125"/><stop stop-opacity="1" stop-color="rgb(1.583862%, 1.583862%, 1.583862%)" offset="0.0390625"/><stop stop-opacity="1" stop-color="rgb(1.93634%, 1.93634%, 1.93634%)" offset="0.046875"/><stop stop-opacity="1" stop-color="rgb(2.288818%, 2.288818%, 2.288818%)" offset="0.0546875"/><stop stop-opacity="1" stop-color="rgb(2.641296%, 2.641296%, 2.641296%)" offset="0.0625"/><stop stop-opacity="1" stop-color="rgb(2.993774%, 2.993774%, 2.993774%)" offset="0.0703125"/><stop stop-opacity="1" stop-color="rgb(3.346252%, 3.346252%, 3.346252%)" offset="0.078125"/><stop stop-opacity="1" stop-color="rgb(3.69873%, 3.69873%, 3.69873%)" offset="0.0859375"/><stop stop-opacity="1" stop-color="rgb(4.051208%, 4.051208%, 4.051208%)" offset="0.09375"/><stop stop-opacity="1" stop-color="rgb(4.402161%, 4.402161%, 4.402161%)" offset="0.101562"/><stop stop-opacity="1" stop-color="rgb(4.754639%, 4.754639%, 4.754639%)" offset="0.109375"/><stop stop-opacity="1" stop-color="rgb(5.107117%, 5.107117%, 5.107117%)" offset="0.117188"/><stop stop-opacity="1" stop-color="rgb(5.459595%, 5.459595%, 5.459595%)" offset="0.125"/><stop stop-opacity="1" stop-color="rgb(5.812073%, 5.812073%, 5.812073%)" offset="0.132812"/><stop stop-opacity="1" stop-color="rgb(6.164551%, 6.164551%, 6.164551%)" offset="0.140625"/><stop stop-opacity="1" stop-color="rgb(6.517029%, 6.517029%, 6.517029%)" offset="0.148438"/><stop stop-opacity="1" stop-color="rgb(6.869507%, 6.869507%, 6.869507%)" offset="0.15625"/><stop stop-opacity="1" stop-color="rgb(7.221985%, 7.221985%, 7.221985%)" offset="0.164062"/><stop stop-opacity="1" stop-color="rgb(7.574463%, 7.574463%, 7.574463%)" offset="0.171875"/><stop stop-opacity="1" stop-color="rgb(7.926941%, 7.926941%, 7.926941%)" offset="0.179688"/><stop stop-opacity="1" stop-color="rgb(8.277893%, 8.277893%, 8.277893%)" offset="0.1875"/><stop stop-opacity="1" stop-color="rgb(8.630371%, 8.630371%, 8.630371%)" offset="0.195312"/><stop stop-opacity="1" stop-color="rgb(8.982849%, 8.982849%, 8.982849%)" offset="0.203125"/><stop stop-opacity="1" stop-color="rgb(9.335327%, 9.335327%, 9.335327%)" offset="0.210938"/><stop stop-opacity="1" stop-color="rgb(9.687805%, 9.687805%, 9.687805%)" offset="0.21875"/><stop stop-opacity="1" stop-color="rgb(10.040283%, 10.040283%, 10.040283%)" offset="0.226562"/><stop stop-opacity="1" stop-color="rgb(10.392761%, 10.392761%, 10.392761%)" offset="0.234375"/><stop stop-opacity="1" stop-color="rgb(10.745239%, 10.745239%, 10.745239%)" offset="0.242188"/><stop stop-opacity="1" stop-color="rgb(11.097717%, 11.097717%, 11.097717%)" offset="0.25"/><stop stop-opacity="1" stop-color="rgb(11.450195%, 11.450195%, 11.450195%)" offset="0.257812"/><stop stop-opacity="1" stop-color="rgb(11.802673%, 11.802673%, 11.802673%)" offset="0.265625"/><stop stop-opacity="1" stop-color="rgb(12.155151%, 12.155151%, 12.155151%)" offset="0.273438"/><stop stop-opacity="1" stop-color="rgb(12.506104%, 12.506104%, 12.506104%)" offset="0.28125"/><stop stop-opacity="1" stop-color="rgb(12.858582%, 12.858582%, 12.858582%)" offset="0.289062"/><stop stop-opacity="1" stop-color="rgb(13.21106%, 13.21106%, 13.21106%)" offset="0.296875"/><stop stop-opacity="1" stop-color="rgb(13.563538%, 13.563538%, 13.563538%)" offset="0.304687"/><stop stop-opacity="1" stop-color="rgb(13.916016%, 13.916016%, 13.916016%)" offset="0.3125"/><stop stop-opacity="1" stop-color="rgb(14.268494%, 14.268494%, 14.268494%)" offset="0.320312"/><stop stop-opacity="1" stop-color="rgb(14.620972%, 14.620972%, 14.620972%)" offset="0.328125"/><stop stop-opacity="1" stop-color="rgb(14.97345%, 14.97345%, 14.97345%)" offset="0.335938"/><stop stop-opacity="1" stop-color="rgb(15.325928%, 15.325928%, 15.325928%)" offset="0.34375"/><stop stop-opacity="1" stop-color="rgb(15.678406%, 15.678406%, 15.678406%)" offset="0.351562"/><stop stop-opacity="1" stop-color="rgb(16.030884%, 16.030884%, 16.030884%)" offset="0.359375"/><stop stop-opacity="1" stop-color="rgb(16.381836%, 16.381836%, 16.381836%)" offset="0.367187"/><stop stop-opacity="1" stop-color="rgb(16.734314%, 16.734314%, 16.734314%)" offset="0.375"/><stop stop-opacity="1" stop-color="rgb(17.086792%, 17.086792%, 17.086792%)" offset="0.382812"/><stop stop-opacity="1" stop-color="rgb(17.43927%, 17.43927%, 17.43927%)" offset="0.390625"/><stop stop-opacity="1" stop-color="rgb(17.791748%, 17.791748%, 17.791748%)" offset="0.398438"/><stop stop-opacity="1" stop-color="rgb(18.144226%, 18.144226%, 18.144226%)" offset="0.40625"/><stop stop-opacity="1" stop-color="rgb(18.496704%, 18.496704%, 18.496704%)" offset="0.414062"/><stop stop-opacity="1" stop-color="rgb(18.849182%, 18.849182%, 18.849182%)" offset="0.421875"/><stop stop-opacity="1" stop-color="rgb(19.20166%, 19.20166%, 19.20166%)" offset="0.429687"/><stop stop-opacity="1" stop-color="rgb(19.554138%, 19.554138%, 19.554138%)" offset="0.4375"/><stop stop-opacity="1" stop-color="rgb(19.906616%, 19.906616%, 19.906616%)" offset="0.445312"/><stop stop-opacity="1" stop-color="rgb(20.257568%, 20.257568%, 20.257568%)" offset="0.453125"/><stop stop-opacity="1" stop-color="rgb(20.610046%, 20.610046%, 20.610046%)" offset="0.460938"/><stop stop-opacity="1" stop-color="rgb(20.962524%, 20.962524%, 20.962524%)" offset="0.46875"/><stop stop-opacity="1" stop-color="rgb(21.315002%, 21.315002%, 21.315002%)" offset="0.476562"/><stop stop-opacity="1" stop-color="rgb(21.66748%, 21.66748%, 21.66748%)" offset="0.484375"/><stop stop-opacity="1" stop-color="rgb(22.019958%, 22.019958%, 22.019958%)" offset="0.492187"/><stop stop-opacity="1" stop-color="rgb(22.372437%, 22.372437%, 22.372437%)" offset="0.5"/><stop stop-opacity="1" stop-color="rgb(22.724915%, 22.724915%, 22.724915%)" offset="0.507812"/><stop stop-opacity="1" stop-color="rgb(23.077393%, 23.077393%, 23.077393%)" offset="0.515625"/><stop stop-opacity="1" stop-color="rgb(23.429871%, 23.429871%, 23.429871%)" offset="0.523437"/><stop stop-opacity="1" stop-color="rgb(23.782349%, 23.782349%, 23.782349%)" offset="0.53125"/><stop stop-opacity="1" stop-color="rgb(24.134827%, 24.134827%, 24.134827%)" offset="0.539062"/><stop stop-opacity="1" stop-color="rgb(24.485779%, 24.485779%, 24.485779%)" offset="0.546875"/><stop stop-opacity="1" stop-color="rgb(24.838257%, 24.838257%, 24.838257%)" offset="0.554688"/><stop stop-opacity="1" stop-color="rgb(25.190735%, 25.190735%, 25.190735%)" offset="0.5625"/><stop stop-opacity="1" stop-color="rgb(25.543213%, 25.543213%, 25.543213%)" offset="0.570312"/><stop stop-opacity="1" stop-color="rgb(25.895691%, 25.895691%, 25.895691%)" offset="0.578125"/><stop stop-opacity="1" stop-color="rgb(26.248169%, 26.248169%, 26.248169%)" offset="0.585938"/><stop stop-opacity="1" stop-color="rgb(26.600647%, 26.600647%, 26.600647%)" offset="0.59375"/><stop stop-opacity="1" stop-color="rgb(26.953125%, 26.953125%, 26.953125%)" offset="0.601563"/><stop stop-opacity="1" stop-color="rgb(27.305603%, 27.305603%, 27.305603%)" offset="0.609375"/><stop stop-opacity="1" stop-color="rgb(27.658081%, 27.658081%, 27.658081%)" offset="0.617188"/><stop stop-opacity="1" stop-color="rgb(28.010559%, 28.010559%, 28.010559%)" offset="0.625"/><stop stop-opacity="1" stop-color="rgb(28.361511%, 28.361511%, 28.361511%)" offset="0.632812"/><stop stop-opacity="1" stop-color="rgb(28.713989%, 28.713989%, 28.713989%)" offset="0.640625"/><stop stop-opacity="1" stop-color="rgb(29.066467%, 29.066467%, 29.066467%)" offset="0.648437"/><stop stop-opacity="1" stop-color="rgb(29.418945%, 29.418945%, 29.418945%)" offset="0.65625"/><stop stop-opacity="1" stop-color="rgb(29.771423%, 29.771423%, 29.771423%)" offset="0.664062"/><stop stop-opacity="1" stop-color="rgb(30.123901%, 30.123901%, 30.123901%)" offset="0.671875"/><stop stop-opacity="1" stop-color="rgb(30.476379%, 30.476379%, 30.476379%)" offset="0.679688"/><stop stop-opacity="1" stop-color="rgb(30.828857%, 30.828857%, 30.828857%)" offset="0.6875"/><stop stop-opacity="1" stop-color="rgb(31.181335%, 31.181335%, 31.181335%)" offset="0.695312"/><stop stop-opacity="1" stop-color="rgb(31.533813%, 31.533813%, 31.533813%)" offset="0.703125"/><stop stop-opacity="1" stop-color="rgb(31.886292%, 31.886292%, 31.886292%)" offset="0.710938"/><stop stop-opacity="1" stop-color="rgb(32.237244%, 32.237244%, 32.237244%)" offset="0.71875"/><stop stop-opacity="1" stop-color="rgb(32.589722%, 32.589722%, 32.589722%)" offset="0.726563"/><stop stop-opacity="1" stop-color="rgb(32.9422%, 32.9422%, 32.9422%)" offset="0.734375"/><stop stop-opacity="1" stop-color="rgb(33.294678%, 33.294678%, 33.294678%)" offset="0.742188"/><stop stop-opacity="1" stop-color="rgb(33.647156%, 33.647156%, 33.647156%)" offset="0.75"/><stop stop-opacity="1" stop-color="rgb(33.999634%, 33.999634%, 33.999634%)" offset="0.757812"/><stop stop-opacity="1" stop-color="rgb(34.352112%, 34.352112%, 34.352112%)" offset="0.765625"/><stop stop-opacity="1" stop-color="rgb(34.70459%, 34.70459%, 34.70459%)" offset="0.773437"/><stop stop-opacity="1" stop-color="rgb(35.057068%, 35.057068%, 35.057068%)" offset="0.78125"/><stop stop-opacity="1" stop-color="rgb(35.409546%, 35.409546%, 35.409546%)" offset="0.789062"/><stop stop-opacity="1" stop-color="rgb(35.762024%, 35.762024%, 35.762024%)" offset="0.796875"/><stop stop-opacity="1" stop-color="rgb(36.114502%, 36.114502%, 36.114502%)" offset="0.804688"/><stop stop-opacity="1" stop-color="rgb(36.465454%, 36.465454%, 36.465454%)" offset="0.8125"/><stop stop-opacity="1" stop-color="rgb(36.817932%, 36.817932%, 36.817932%)" offset="0.820312"/><stop stop-opacity="1" stop-color="rgb(37.17041%, 37.17041%, 37.17041%)" offset="0.828125"/><stop stop-opacity="1" stop-color="rgb(37.522888%, 37.522888%, 37.522888%)" offset="0.835938"/><stop stop-opacity="1" stop-color="rgb(37.875366%, 37.875366%, 37.875366%)" offset="0.84375"/><stop stop-opacity="1" stop-color="rgb(38.227844%, 38.227844%, 38.227844%)" offset="0.851563"/><stop stop-opacity="1" stop-color="rgb(38.580322%, 38.580322%, 38.580322%)" offset="0.859375"/><stop stop-opacity="1" stop-color="rgb(38.9328%, 38.9328%, 38.9328%)" offset="0.867188"/><stop stop-opacity="1" stop-color="rgb(39.285278%, 39.285278%, 39.285278%)" offset="0.875"/><stop stop-opacity="1" stop-color="rgb(39.637756%, 39.637756%, 39.637756%)" offset="0.882812"/><stop stop-opacity="1" stop-color="rgb(39.990234%, 39.990234%, 39.990234%)" offset="0.890625"/><stop stop-opacity="1" stop-color="rgb(40.341187%, 40.341187%, 40.341187%)" offset="0.898437"/><stop stop-opacity="1" stop-color="rgb(40.693665%, 40.693665%, 40.693665%)" offset="0.90625"/><stop stop-opacity="1" stop-color="rgb(41.046143%, 41.046143%, 41.046143%)" offset="0.914062"/><stop stop-opacity="1" stop-color="rgb(41.398621%, 41.398621%, 41.398621%)" offset="0.921875"/><stop stop-opacity="1" stop-color="rgb(41.751099%, 41.751099%, 41.751099%)" offset="0.929688"/><stop stop-opacity="1" stop-color="rgb(42.103577%, 42.103577%, 42.103577%)" offset="0.9375"/><stop stop-opacity="1" stop-color="rgb(42.456055%, 42.456055%, 42.456055%)" offset="0.945312"/><stop stop-opacity="1" stop-color="rgb(42.808533%, 42.808533%, 42.808533%)" offset="0.953125"/><stop stop-opacity="1" stop-color="rgb(43.161011%, 43.161011%, 43.161011%)" offset="0.960938"/><stop stop-opacity="1" stop-color="rgb(43.513489%, 43.513489%, 43.513489%)" offset="0.96875"/><stop stop-opacity="1" stop-color="rgb(43.865967%, 43.865967%, 43.865967%)" offset="0.976563"/><stop stop-opacity="1" stop-color="rgb(44.216919%, 44.216919%, 44.216919%)" offset="0.984375"/><stop stop-opacity="1" stop-color="rgb(44.569397%, 44.569397%, 44.569397%)" offset="0.992188"/><stop stop-opacity="1" stop-color="rgb(44.921875%, 44.921875%, 44.921875%)" offset="1"/></linearGradient><clipPath id="b9ac0006f8"><path d="M 191.433594 322.761719 L 266.433594 322.761719 L 266.433594 445.011719 L 191.433594 445.011719 Z M 191.433594 322.761719 " clip-rule="nonzero"/></clipPath><clipPath id="6d122743df"><path d="M 492.460938 322.984375 L 567.460938 322.984375 L 567.460938 445.234375 L 492.460938 445.234375 Z M 492.460938 322.984375 " clip-rule="nonzero"/></clipPath><clipPath id="75fda82525"><path d="M 215.175781 278.035156 L 226.71875 278.035156 L 226.71875 289.578125 L 215.175781 289.578125 Z M 215.175781 278.035156 " clip-rule="nonzero"/></clipPath><clipPath id="56538ea171"><path d="M 220.949219 289.578125 C 224.136719 289.578125 226.71875 286.996094 226.71875 283.808594 C 226.71875 280.621094 224.136719 278.035156 220.949219 278.035156 C 217.761719 278.035156 215.175781 280.621094 215.175781 283.808594 C 215.175781 286.996094 217.761719 289.578125 220.949219 289.578125 Z M 220.949219 289.578125 " clip-rule="nonzero"/></clipPath><clipPath id="e184fb179b"><path d="M 197.675781 278.035156 L 209.21875 278.035156 L 209.21875 289.578125 L 197.675781 289.578125 Z M 197.675781 278.035156 " clip-rule="nonzero"/></clipPath><clipPath id="8941e87461"><path d="M 203.445312 289.578125 C 206.632812 289.578125 209.21875 286.996094 209.21875 283.808594 C 209.21875 280.621094 206.632812 278.035156 203.445312 278.035156 C 200.257812 278.035156 197.675781 280.621094 197.675781 283.808594 C 197.675781 286.996094 200.257812 289.578125 203.445312 289.578125 Z M 203.445312 289.578125 " clip-rule="nonzero"/></clipPath><clipPath id="40f84e3733"><path d="M 180.144531 278.035156 L 191.6875 278.035156 L 191.6875 289.578125 L 180.144531 289.578125 Z M 180.144531 278.035156 " clip-rule="nonzero"/></clipPath><clipPath id="96f58fc830"><path d="M 185.917969 289.578125 C 189.105469 289.578125 191.6875 286.996094 191.6875 283.808594 C 191.6875 280.621094 189.105469 278.035156 185.917969 278.035156 C 182.730469 278.035156 180.144531 280.621094 180.144531 283.808594 C 180.144531 286.996094 182.730469 289.578125 185.917969 289.578125 Z M 185.917969 289.578125 " clip-rule="nonzero"/></clipPath></defs><g clip-path="url(#ad041ab9e5)"><g clip-path="url(#d16ecf86a7)"><path fill="#1a1a1a" d="M 148.089844 275.496094 L 607.53125 275.496094 L 607.53125 492.503906 L 148.089844 492.503906 Z M 148.089844 275.496094 " fill-opacity="1" fill-rule="nonzero"/></g></g><g clip-path="url(#03b2bcb88b)"><g clip-path="url(#47a1cedadf)"><path fill="url(#fd4bde95c1)" d="M 164.878906 291.273438 L 164.878906 477.878906 L 593.417969 477.878906 L 593.417969 291.273438 Z M 164.878906 291.273438 " fill-rule="nonzero"/></g></g><g fill="#f08700" fill-opacity="0.4"><g transform="translate(289.070789, 430.270946)"><g><path d="M 16.78125 11.796875 C 16.78125 15.546875 18.582031 18.519531 22.1875 20.71875 C 25.789062 22.914062 30.753906 24.015625 37.078125 24.015625 C 40.453125 24.015625 43.507812 23.601562 46.25 22.78125 C 48.988281 21.96875 51.316406 20.914062 53.234375 19.625 C 55.148438 18.34375 56.632812 16.832031 57.6875 15.09375 C 58.738281 13.363281 59.265625 11.585938 59.265625 9.765625 C 59.265625 6.535156 58.0625 4.285156 55.65625 3.015625 C 53.25 1.753906 49.75 1.125 45.15625 1.125 L 33.078125 1.125 C 31.722656 1.125 30.257812 1.050781 28.6875 0.90625 C 27.113281 0.769531 25.554688 0.46875 24.015625 0 C 21.535156 1.820312 19.707031 3.738281 18.53125 5.75 C 17.363281 7.769531 16.78125 9.785156 16.78125 11.796875 Z M 6.46875 13.34375 C 6.46875 10.394531 7.378906 7.570312 9.203125 4.875 C 11.023438 2.1875 13.503906 -0.253906 16.640625 -2.453125 L 16.640625 -3.015625 C 14.953125 -4.097656 13.5 -5.5625 12.28125 -7.40625 C 11.070312 -9.257812 10.46875 -11.585938 10.46875 -14.390625 C 10.46875 -17.347656 11.285156 -19.925781 12.921875 -22.125 C 14.554688 -24.320312 16.289062 -26.050781 18.125 -27.3125 L 18.125 -27.875 C 15.820312 -29.800781 13.734375 -32.363281 11.859375 -35.5625 C 9.992188 -38.769531 9.0625 -42.503906 9.0625 -46.765625 C 9.0625 -50.609375 9.75 -54.0625 11.125 -57.125 C 12.507812 -60.195312 14.40625 -62.804688 16.8125 -64.953125 C 19.226562 -67.109375 22.039062 -68.757812 25.25 -69.90625 C 28.457031 -71.0625 31.835938 -71.640625 35.390625 -71.640625 C 37.316406 -71.640625 39.109375 -71.472656 40.765625 -71.140625 C 42.429688 -70.816406 43.941406 -70.394531 45.296875 -69.875 L 69.59375 -69.875 L 69.59375 -60.8125 L 55.203125 -60.8125 C 56.835938 -59.175781 58.203125 -57.117188 59.296875 -54.640625 C 60.398438 -52.160156 60.953125 -49.441406 60.953125 -46.484375 C 60.953125 -42.742188 60.285156 -39.363281 58.953125 -36.34375 C 57.617188 -33.320312 55.804688 -30.78125 53.515625 -28.71875 C 51.222656 -26.664062 48.503906 -25.050781 45.359375 -23.875 C 42.222656 -22.707031 38.898438 -22.125 35.390625 -22.125 C 33.660156 -22.125 31.878906 -22.34375 30.046875 -22.78125 C 28.222656 -23.226562 26.492188 -23.828125 24.859375 -24.578125 C 23.640625 -23.546875 22.597656 -22.375 21.734375 -21.0625 C 20.867188 -19.757812 20.4375 -18.144531 20.4375 -16.21875 C 20.4375 -14.019531 21.289062 -12.207031 23 -10.78125 C 24.707031 -9.351562 27.972656 -8.640625 32.796875 -8.640625 L 46.28125 -8.640625 C 54.425781 -8.640625 60.535156 -7.316406 64.609375 -4.671875 C 68.679688 -2.023438 70.71875 2.222656 70.71875 8.078125 C 70.71875 11.304688 69.910156 14.382812 68.296875 17.3125 C 66.679688 20.238281 64.335938 22.800781 61.265625 25 C 58.203125 27.195312 54.484375 28.953125 50.109375 30.265625 C 45.734375 31.578125 40.828125 32.234375 35.390625 32.234375 C 31.035156 32.234375 27.09375 31.820312 23.5625 31 C 20.03125 30.1875 16.988281 28.957031 14.4375 27.3125 C 11.882812 25.675781 9.914062 23.710938 8.53125 21.421875 C 7.15625 19.128906 6.46875 16.4375 6.46875 13.34375 Z M 35.390625 -30.0625 C 37.410156 -30.0625 39.296875 -30.445312 41.046875 -31.21875 C 42.804688 -31.988281 44.382812 -33.085938 45.78125 -34.515625 C 47.1875 -35.941406 48.273438 -37.6875 49.046875 -39.75 C 49.828125 -41.8125 50.21875 -44.148438 50.21875 -46.765625 C 50.21875 -51.921875 48.773438 -55.914062 45.890625 -58.75 C 43.015625 -61.582031 39.515625 -63 35.390625 -63 C 31.273438 -63 27.773438 -61.582031 24.890625 -58.75 C 22.015625 -55.914062 20.578125 -51.921875 20.578125 -46.765625 C 20.578125 -44.148438 20.953125 -41.8125 21.703125 -39.75 C 22.453125 -37.6875 23.523438 -35.941406 24.921875 -34.515625 C 26.328125 -33.085938 27.921875 -31.988281 29.703125 -31.21875 C 31.484375 -30.445312 33.378906 -30.0625 35.390625 -30.0625 Z M 35.390625 -30.0625 "/></g></g></g><g fill="#f08700" fill-opacity="0.4"><g transform="translate(361.547444, 430.270946)"><g><path d="M 39.8125 -102.109375 L 48.453125 -102.109375 L 10.046875 23.03125 L 1.40625 23.03125 Z M 39.8125 -102.109375 "/></g></g></g><g fill="#f08700" fill-opacity="0.4"><g transform="translate(411.831635, 430.270946)"><g><path d="M 11.734375 -102.390625 L 23.53125 -102.390625 L 23.53125 -74.515625 L 23.25 -61.875 C 26.382812 -64.632812 29.820312 -66.953125 33.5625 -68.828125 C 37.3125 -70.703125 41.15625 -71.640625 45.09375 -71.640625 C 49.582031 -71.640625 53.554688 -70.796875 57.015625 -69.109375 C 60.484375 -67.421875 63.390625 -65.019531 65.734375 -61.90625 C 68.078125 -58.789062 69.84375 -55.054688 71.03125 -50.703125 C 72.226562 -46.347656 72.828125 -41.476562 72.828125 -36.09375 C 72.828125 -30.144531 72.019531 -24.816406 70.40625 -20.109375 C 68.789062 -15.410156 66.585938 -11.429688 63.796875 -8.171875 C 61.015625 -4.921875 57.796875 -2.453125 54.140625 -0.765625 C 50.492188 0.910156 46.65625 1.75 42.625 1.75 C 39.394531 1.75 36.023438 1.003906 32.515625 -0.484375 C 29.003906 -1.984375 25.726562 -4.113281 22.6875 -6.875 L 22.265625 -6.875 L 21.203125 0 L 11.734375 0 Z M 23.53125 -15.515625 C 26.570312 -12.847656 29.601562 -10.960938 32.625 -9.859375 C 35.644531 -8.765625 38.320312 -8.21875 40.65625 -8.21875 C 43.519531 -8.21875 46.175781 -8.859375 48.625 -10.140625 C 51.082031 -11.429688 53.191406 -13.25 54.953125 -15.59375 C 56.710938 -17.9375 58.09375 -20.835938 59.09375 -24.296875 C 60.101562 -27.765625 60.609375 -31.648438 60.609375 -35.953125 C 60.609375 -39.796875 60.28125 -43.296875 59.625 -46.453125 C 58.96875 -49.617188 57.890625 -52.320312 56.390625 -54.5625 C 54.890625 -56.8125 52.96875 -58.566406 50.625 -59.828125 C 48.289062 -61.097656 45.484375 -61.734375 42.203125 -61.734375 C 36.535156 -61.734375 30.3125 -58.550781 23.53125 -52.1875 Z M 23.53125 -15.515625 "/></g></g></g><g fill="#f08700" fill-opacity="1"><g transform="translate(282.714123, 423.914287)"><g><path d="M 16.78125 11.796875 C 16.78125 15.546875 18.582031 18.519531 22.1875 20.71875 C 25.789062 22.914062 30.753906 24.015625 37.078125 24.015625 C 40.453125 24.015625 43.507812 23.601562 46.25 22.78125 C 48.988281 21.96875 51.316406 20.914062 53.234375 19.625 C 55.148438 18.34375 56.632812 16.832031 57.6875 15.09375 C 58.738281 13.363281 59.265625 11.585938 59.265625 9.765625 C 59.265625 6.535156 58.0625 4.285156 55.65625 3.015625 C 53.25 1.753906 49.75 1.125 45.15625 1.125 L 33.078125 1.125 C 31.722656 1.125 30.257812 1.050781 28.6875 0.90625 C 27.113281 0.769531 25.554688 0.46875 24.015625 0 C 21.535156 1.820312 19.707031 3.738281 18.53125 5.75 C 17.363281 7.769531 16.78125 9.785156 16.78125 11.796875 Z M 6.46875 13.34375 C 6.46875 10.394531 7.378906 7.570312 9.203125 4.875 C 11.023438 2.1875 13.503906 -0.253906 16.640625 -2.453125 L 16.640625 -3.015625 C 14.953125 -4.097656 13.5 -5.5625 12.28125 -7.40625 C 11.070312 -9.257812 10.46875 -11.585938 10.46875 -14.390625 C 10.46875 -17.347656 11.285156 -19.925781 12.921875 -22.125 C 14.554688 -24.320312 16.289062 -26.050781 18.125 -27.3125 L 18.125 -27.875 C 15.820312 -29.800781 13.734375 -32.363281 11.859375 -35.5625 C 9.992188 -38.769531 9.0625 -42.503906 9.0625 -46.765625 C 9.0625 -50.609375 9.75 -54.0625 11.125 -57.125 C 12.507812 -60.195312 14.40625 -62.804688 16.8125 -64.953125 C 19.226562 -67.109375 22.039062 -68.757812 25.25 -69.90625 C 28.457031 -71.0625 31.835938 -71.640625 35.390625 -71.640625 C 37.316406 -71.640625 39.109375 -71.472656 40.765625 -71.140625 C 42.429688 -70.816406 43.941406 -70.394531 45.296875 -69.875 L 69.59375 -69.875 L 69.59375 -60.8125 L 55.203125 -60.8125 C 56.835938 -59.175781 58.203125 -57.117188 59.296875 -54.640625 C 60.398438 -52.160156 60.953125 -49.441406 60.953125 -46.484375 C 60.953125 -42.742188 60.285156 -39.363281 58.953125 -36.34375 C 57.617188 -33.320312 55.804688 -30.78125 53.515625 -28.71875 C 51.222656 -26.664062 48.503906 -25.050781 45.359375 -23.875 C 42.222656 -22.707031 38.898438 -22.125 35.390625 -22.125 C 33.660156 -22.125 31.878906 -22.34375 30.046875 -22.78125 C 28.222656 -23.226562 26.492188 -23.828125 24.859375 -24.578125 C 23.640625 -23.546875 22.597656 -22.375 21.734375 -21.0625 C 20.867188 -19.757812 20.4375 -18.144531 20.4375 -16.21875 C 20.4375 -14.019531 21.289062 -12.207031 23 -10.78125 C 24.707031 -9.351562 27.972656 -8.640625 32.796875 -8.640625 L 46.28125 -8.640625 C 54.425781 -8.640625 60.535156 -7.316406 64.609375 -4.671875 C 68.679688 -2.023438 70.71875 2.222656 70.71875 8.078125 C 70.71875 11.304688 69.910156 14.382812 68.296875 17.3125 C 66.679688 20.238281 64.335938 22.800781 61.265625 25 C 58.203125 27.195312 54.484375 28.953125 50.109375 30.265625 C 45.734375 31.578125 40.828125 32.234375 35.390625 32.234375 C 31.035156 32.234375 27.09375 31.820312 23.5625 31 C 20.03125 30.1875 16.988281 28.957031 14.4375 27.3125 C 11.882812 25.675781 9.914062 23.710938 8.53125 21.421875 C 7.15625 19.128906 6.46875 16.4375 6.46875 13.34375 Z M 35.390625 -30.0625 C 37.410156 -30.0625 39.296875 -30.445312 41.046875 -31.21875 C 42.804688 -31.988281 44.382812 -33.085938 45.78125 -34.515625 C 47.1875 -35.941406 48.273438 -37.6875 49.046875 -39.75 C 49.828125 -41.8125 50.21875 -44.148438 50.21875 -46.765625 C 50.21875 -51.921875 48.773438 -55.914062 45.890625 -58.75 C 43.015625 -61.582031 39.515625 -63 35.390625 -63 C 31.273438 -63 27.773438 -61.582031 24.890625 -58.75 C 22.015625 -55.914062 20.578125 -51.921875 20.578125 -46.765625 C 20.578125 -44.148438 20.953125 -41.8125 21.703125 -39.75 C 22.453125 -37.6875 23.523438 -35.941406 24.921875 -34.515625 C 26.328125 -33.085938 27.921875 -31.988281 29.703125 -31.21875 C 31.484375 -30.445312 33.378906 -30.0625 35.390625 -30.0625 Z M 35.390625 -30.0625 "/></g></g></g><g fill="#f08700" fill-opacity="1"><g transform="translate(355.190778, 423.914287)"><g><path d="M 39.8125 -102.109375 L 48.453125 -102.109375 L 10.046875 23.03125 L 1.40625 23.03125 Z M 39.8125 -102.109375 "/></g></g></g><g fill="#f08700" fill-opacity="1"><g transform="translate(405.474969, 423.914287)"><g><path d="M 11.734375 -102.390625 L 23.53125 -102.390625 L 23.53125 -74.515625 L 23.25 -61.875 C 26.382812 -64.632812 29.820312 -66.953125 33.5625 -68.828125 C 37.3125 -70.703125 41.15625 -71.640625 45.09375 -71.640625 C 49.582031 -71.640625 53.554688 -70.796875 57.015625 -69.109375 C 60.484375 -67.421875 63.390625 -65.019531 65.734375 -61.90625 C 68.078125 -58.789062 69.84375 -55.054688 71.03125 -50.703125 C 72.226562 -46.347656 72.828125 -41.476562 72.828125 -36.09375 C 72.828125 -30.144531 72.019531 -24.816406 70.40625 -20.109375 C 68.789062 -15.410156 66.585938 -11.429688 63.796875 -8.171875 C 61.015625 -4.921875 57.796875 -2.453125 54.140625 -0.765625 C 50.492188 0.910156 46.65625 1.75 42.625 1.75 C 39.394531 1.75 36.023438 1.003906 32.515625 -0.484375 C 29.003906 -1.984375 25.726562 -4.113281 22.6875 -6.875 L 22.265625 -6.875 L 21.203125 0 L 11.734375 0 Z M 23.53125 -15.515625 C 26.570312 -12.847656 29.601562 -10.960938 32.625 -9.859375 C 35.644531 -8.765625 38.320312 -8.21875 40.65625 -8.21875 C 43.519531 -8.21875 46.175781 -8.859375 48.625 -10.140625 C 51.082031 -11.429688 53.191406 -13.25 54.953125 -15.59375 C 56.710938 -17.9375 58.09375 -20.835938 59.09375 -24.296875 C 60.101562 -27.765625 60.609375 -31.648438 60.609375 -35.953125 C 60.609375 -39.796875 60.28125 -43.296875 59.625 -46.453125 C 58.96875 -49.617188 57.890625 -52.320312 56.390625 -54.5625 C 54.890625 -56.8125 52.96875 -58.566406 50.625 -59.828125 C 48.289062 -61.097656 45.484375 -61.734375 42.203125 -61.734375 C 36.535156 -61.734375 30.3125 -58.550781 23.53125 -52.1875 Z M 23.53125 -15.515625 "/></g></g></g><g clip-path="url(#b9ac0006f8)"><path fill="#009ddc" d="M 191.84375 383.996094 L 252.855469 322.984375 L 266.28125 336.40625 L 218.6875 383.996094 L 266.28125 431.585938 L 252.855469 445.011719 Z M 191.84375 383.996094 " fill-opacity="1" fill-rule="nonzero"/></g><g clip-path="url(#6d122743df)"><path fill="#009ddc" d="M 567.050781 383.996094 L 506.039062 445.011719 L 492.613281 431.585938 L 540.207031 383.996094 L 492.613281 336.40625 L 506.039062 322.984375 Z M 567.050781 383.996094 " fill-opacity="1" fill-rule="nonzero"/></g><g clip-path="url(#75fda82525)"><g clip-path="url(#56538ea171)"><path fill="#62c559" d="M 226.71875 289.578125 L 215.175781 289.578125 L 215.175781 278.035156 L 226.71875 278.035156 Z M 226.71875 289.578125 " fill-opacity="1" fill-rule="nonzero"/></g></g><g clip-path="url(#e184fb179b)"><g clip-path="url(#8941e87461)"><path fill="#e9ce2c" d="M 209.21875 289.578125 L 197.675781 289.578125 L 197.675781 278.035156 L 209.21875 278.035156 Z M 209.21875 289.578125 " fill-opacity="1" fill-rule="nonzero"/></g></g><g clip-path="url(#40f84e3733)"><g clip-path="url(#96f58fc830)"><path fill="#bf211e" d="M 191.6875 289.578125 L 180.144531 289.578125 L 180.144531 278.035156 L 191.6875 278.035156 Z M 191.6875 289.578125 " fill-opacity="1" fill-rule="nonzero"/></g></g></svg>